<?xml version="1.0" standalone="no"?>
<!DOCTYPE svg PUBLIC "-//W3C//DTD SVG 20010904//EN"
 "http://www.w3.org/TR/2001/REC-SVG-20010904/DTD/svg10.dtd">
<svg version="1.0" xmlns="http://www.w3.org/2000/svg"
 width="800.000000pt" height="600.000000pt" viewBox="0 0 800.000000 600.000000"
 preserveAspectRatio="xMidYMid meet">

<g transform="translate(0.000000,600.000000) scale(0.100000,-0.100000)"
fill="#000000" stroke="none">
<path d="M4098 4366 c-28 -15 -69 -25 -118 -29 -90 -8 -162 -17 -170 -22 -3
-2 -12 0 -19 5 -8 4 -28 2 -47 -6 -18 -8 -40 -11 -49 -8 -8 4 -21 1 -29 -5 -7
-6 -40 -13 -72 -15 -63 -4 -206 -46 -233 -69 -9 -7 -36 -19 -60 -26 -52 -15
-152 -69 -164 -88 -5 -8 -17 -11 -32 -7 -20 5 -28 0 -42 -25 -10 -17 -23 -31
-29 -31 -6 0 -19 -9 -29 -20 -18 -20 -18 -20 14 -4 17 8 36 14 43 12 6 -2 -6
-13 -27 -24 -21 -11 -41 -27 -43 -35 -4 -11 -2 -12 9 -1 21 19 32 14 27 -13
-6 -30 -5 -30 29 -8 26 17 27 17 19 -2 -4 -11 -12 -32 -16 -47 -13 -44 -20
-50 -36 -34 -8 8 -14 19 -14 25 0 6 -4 11 -10 11 -5 0 -10 -12 -10 -26 0 -21
-4 -24 -20 -19 -11 4 -20 2 -20 -4 0 -6 7 -11 15 -11 8 0 15 -6 15 -13 0 -18
-38 -48 -45 -37 -4 6 -1 10 5 10 15 0 2 41 -19 57 -15 12 -14 14 2 24 12 7 15
15 8 26 -6 11 -2 27 11 50 17 28 18 39 10 71 l-10 37 0 -40 c1 -46 -9 -85 -23
-85 -5 0 -9 -7 -9 -15 0 -18 -12 -19 -28 -3 -6 6 -15 8 -19 4 -5 -4 2 -16 14
-26 17 -14 22 -26 19 -50 -2 -18 -9 -35 -15 -39 -6 -4 -9 -35 -7 -79 2 -45 -1
-72 -8 -72 -5 0 -1 -7 10 -15 18 -14 17 -14 -13 -15 -18 0 -33 4 -33 8 0 4
-25 3 -55 -2 -34 -6 -55 -15 -55 -24 0 -9 5 -10 19 -2 24 12 121 13 121 1 0
-5 -6 -12 -12 -14 -7 -3 5 -6 27 -7 36 -1 38 -2 22 -14 -18 -14 -18 -14 0 -18
14 -3 10 -9 -19 -28 -21 -14 -38 -29 -38 -34 0 -5 8 -2 18 6 44 39 85 40 142
3 8 -5 25 -8 36 -7 23 3 64 -53 64 -89 0 -10 4 -19 9 -19 18 0 18 25 -1 60
-18 35 -18 35 2 38 11 2 20 7 20 12 0 15 51 18 66 3 11 -11 14 -12 14 -1 0 16
58 50 71 42 5 -3 9 -14 9 -24 0 -26 -30 -100 -40 -100 -5 0 -6 -9 -3 -20 6
-22 23 -27 23 -7 0 7 8 29 19 50 12 24 18 53 16 87 -3 46 -2 49 16 39 11 -5
17 -14 14 -19 -3 -5 -1 -18 5 -29 6 -12 6 -22 1 -25 -5 -3 -7 -15 -4 -26 3
-10 -4 -32 -16 -49 -12 -16 -21 -34 -21 -40 0 -6 -12 -18 -27 -26 -16 -9 -20
-14 -10 -11 12 4 17 2 14 -6 -3 -9 -19 -12 -48 -10 -51 4 -47 -6 8 -18 42 -10
83 8 83 36 0 9 13 32 30 50 38 43 46 77 32 128 -7 26 -7 45 -1 51 5 5 9 19 9
31 0 18 4 21 21 17 25 -7 53 -66 43 -95 -4 -14 -2 -18 5 -14 18 11 13 68 -9
101 -15 24 -26 29 -48 27 -23 -3 -31 2 -35 17 -7 28 -57 29 -74 2 -6 -10 -34
-33 -62 -51 -50 -33 -50 -33 -30 -51 25 -22 15 -28 -47 -29 -63 -2 -114 9
-121 25 -5 16 43 95 58 95 11 0 38 19 101 72 46 38 50 13 4 -29 -20 -18 -36
-35 -36 -38 0 -11 73 41 87 62 14 21 18 22 25 9 11 -20 -5 -45 -57 -86 -21
-16 -33 -30 -27 -30 5 0 41 24 78 53 68 53 70 54 134 53 62 0 65 1 63 22 -2
18 5 26 32 38 42 17 44 23 8 21 -21 -2 -30 5 -42 28 -8 17 -19 33 -24 37 -18
11 10 35 60 49 40 11 44 14 27 21 -16 7 -33 1 -74 -26 -58 -38 -81 -46 -59
-20 7 8 13 30 13 47 1 27 5 33 30 37 l28 5 -21 25 c-19 23 -20 24 -21 5 0 -11
-23 -42 -49 -68 l-49 -48 -53 7 c-47 6 -50 8 -33 21 10 7 24 11 32 8 7 -3 10
0 7 6 -4 5 -2 16 4 22 24 30 -8 66 -84 93 -15 5 -8 9 29 16 38 7 58 5 89 -7
48 -19 59 -13 21 11 -19 13 -44 18 -85 17 -39 -2 -61 2 -69 12 -7 8 -9 15 -4
16 5 0 23 2 39 2 22 2 29 6 27 19 -3 21 18 35 28 19 4 -7 27 -14 51 -17 l44
-4 -38 12 c-39 13 -41 28 -5 28 11 0 34 11 52 25 30 22 40 25 118 22 48 -1 86
-6 85 -10 -1 -5 5 -12 13 -16 8 -5 25 -13 37 -19 42 -22 48 -12 13 18 -19 16
-38 30 -42 30 -19 0 -4 18 31 38 46 26 63 28 54 6 -5 -14 -3 -15 15 -5 31 17
47 15 32 -4 -18 -22 -5 -30 26 -16 37 17 42 6 11 -25 -15 -15 -27 -34 -27 -43
0 -9 -3 -27 -6 -41 -4 -14 6 -2 20 25 43 82 95 129 163 148 69 20 76 20 68 7
-8 -13 4 -13 45 1 24 9 34 9 39 0 6 -9 98 -31 132 -31 3 0 23 -12 44 -26 21
-14 41 -21 44 -16 3 5 12 11 20 14 8 2 -11 12 -42 22 -69 22 -76 41 -12 34 25
-3 46 -1 48 5 6 20 47 -6 76 -50 36 -54 38 -52 12 10 -20 47 -63 80 -116 90
l-30 6 28 -12 c39 -16 34 -24 -16 -25 -24 -1 -63 -6 -87 -11 -39 -9 -49 -8
-90 6 -17 6 23 21 85 32 l40 7 -32 11 c-27 10 -37 8 -75 -11z m-919 -350 c16
-9 33 -11 41 -6 20 12 29 4 23 -21 -4 -12 -11 -18 -20 -15 -11 5 -13 1 -7 -16
5 -16 3 -20 -9 -15 -13 5 -15 0 -10 -27 3 -19 1 -36 -5 -40 -14 -8 -43 4 -36
16 3 5 2 17 -2 26 -13 32 -9 57 11 63 18 6 18 7 -7 17 -21 9 -28 18 -28 39 1
24 2 25 11 10 5 -9 22 -23 38 -31z m-49 -91 c7 -9 10 -19 6 -23 -4 -4 -12 1
-17 11 -15 26 -29 11 -22 -24 4 -21 1 -34 -8 -40 -8 -5 -9 -9 -3 -9 6 0 9 -13
6 -32 -4 -26 -2 -30 12 -25 19 7 21 -4 4 -21 -8 -8 -15 -9 -25 0 -16 13 -26 6
-21 -16 3 -15 7 -15 40 2 58 30 53 2 -6 -34 -51 -31 -77 -35 -55 -8 16 19 0
18 -22 -2 -16 -14 -16 -18 -4 -31 13 -13 18 -12 42 6 30 24 34 23 27 -6 -4
-12 -16 -23 -28 -25 -13 -2 -22 -11 -22 -23 -1 -11 -2 -26 -3 -32 -1 -7 -10
-13 -20 -13 -14 0 -18 -5 -14 -19 5 -20 -18 -34 -42 -25 -20 8 -19 24 0 24 12
0 13 4 5 19 -14 27 -13 34 5 27 9 -3 15 0 15 10 0 8 -7 17 -15 20 -8 4 -15 17
-15 30 0 15 -5 22 -12 19 -8 -3 -13 -22 -12 -45 0 -22 -2 -37 -5 -34 -3 3 -6
35 -7 70 -1 64 9 83 22 42 6 -20 7 -20 19 8 15 35 45 64 45 43 -1 -8 -7 -25
-15 -39 -8 -14 -14 -31 -15 -39 0 -13 22 25 77 129 12 25 23 55 23 67 0 51 32
71 60 38z m160 -54 c0 -6 -12 -18 -26 -27 -23 -16 -27 -16 -41 -2 -8 9 -13 20
-10 25 8 13 77 16 77 4z m-103 -25 c-4 -13 -47 -21 -47 -9 0 5 5 14 11 20 14
14 41 5 36 -11z m171 -3 c2 -7 -3 -13 -12 -13 -9 0 -16 5 -16 11 0 6 -7 9 -15
5 -8 -3 -15 -1 -15 5 0 14 53 7 58 -8z m-88 -53 c0 -5 -4 -10 -9 -10 -6 0 -13
5 -16 10 -3 6 1 10 9 10 9 0 16 -4 16 -10z m80 -5 c0 -19 -12 -25 -27 -14 -19
16 -16 28 7 26 11 -1 20 -6 20 -12z m-430 -4 c0 -12 -20 -25 -27 -18 -7 7 6
27 18 27 5 0 9 -4 9 -9z m450 -18 c0 -5 -4 -15 -10 -23 -11 -18 -25 -7 -17 15
6 15 27 21 27 8z"/>
<path d="M2980 3650 c0 -5 7 -10 16 -10 8 0 12 5 9 10 -3 6 -10 10 -16 10 -5
0 -9 -4 -9 -10z"/>
<path d="M4040 4273 c-8 -3 -28 -17 -43 -29 -16 -13 -34 -24 -42 -24 -15 0
-65 -39 -49 -40 5 0 19 7 30 15 10 8 25 15 31 15 7 0 41 16 75 35 48 26 57 35
38 34 -14 0 -32 -3 -40 -6z"/>
<path d="M3892 4232 c-24 -15 -52 -42 -63 -60 -18 -31 -15 -30 43 19 35 28 65
56 66 60 5 12 3 11 -46 -19z"/>
<path d="M4134 4226 c-17 -13 -13 -14 38 -13 60 2 74 10 36 21 -35 9 -53 7
-74 -8z"/>
<path d="M4013 4191 c-54 -23 -124 -83 -112 -96 3 -2 27 14 55 36 28 21 75 47
104 57 39 14 49 20 35 24 -11 2 -48 -7 -82 -21z"/>
<path d="M4342 4202 c-12 -11 -22 -23 -22 -27 0 -5 8 0 19 9 13 12 27 15 45
10 33 -8 44 -24 17 -24 -22 0 -55 -41 -65 -82 -6 -28 -25 -39 -27 -15 0 6 -7
-1 -14 -18 -8 -16 -12 -37 -9 -47 3 -9 -3 -22 -14 -30 -10 -7 -22 -19 -26 -26
-7 -11 -4 -12 11 -4 31 17 115 121 107 133 -10 16 17 60 43 70 13 5 33 5 45 0
22 -9 22 -9 -7 -16 -48 -11 -55 -14 -55 -24 0 -5 16 -5 42 1 42 9 88 4 88 -10
0 -4 -26 -15 -58 -24 -58 -18 -138 -80 -127 -98 9 -15 -19 -61 -79 -127 -31
-34 -63 -80 -71 -103 -13 -38 -13 -41 0 -30 8 7 15 21 15 31 0 11 31 52 69 92
47 49 76 89 88 123 16 43 24 52 73 76 57 28 104 36 115 18 3 -5 -2 -10 -12
-10 -10 -1 0 -9 22 -20 22 -10 53 -30 68 -44 15 -14 27 -21 27 -15 0 8 -23 35
-122 140 -10 11 -22 19 -28 19 -5 0 -10 7 -10 15 0 16 -65 61 -102 70 -16 4
-31 0 -46 -13z"/>
<path d="M3415 4193 c-41 -10 -34 -20 16 -22 45 -1 50 0 39 14 -13 15 -20 16
-55 8z"/>
<path d="M3492 4153 c2 -9 15 -20 31 -24 22 -6 27 -4 27 11 0 18 -19 30 -47
30 -8 0 -13 -7 -11 -17z"/>
<path d="M4225 4160 c-3 -5 -2 -10 4 -10 5 0 13 5 16 10 3 6 2 10 -4 10 -5 0
-13 -4 -16 -10z"/>
<path d="M4278 4149 c-10 -5 -21 -33 -28 -67 -14 -68 -32 -104 -77 -155 -46
-52 -41 -59 8 -12 47 46 74 95 84 150 4 22 14 51 22 63 17 28 14 34 -9 21z"/>
<path d="M3670 4142 c0 -12 19 -26 26 -19 2 2 -2 10 -11 17 -9 8 -15 8 -15 2z"/>
<path d="M3858 4123 c-19 -22 -33 -63 -21 -63 4 0 18 18 31 40 23 41 17 54
-10 23z"/>
<path d="M4195 4132 c-14 -9 -57 -83 -52 -88 6 -7 69 76 65 86 -2 5 -8 6 -13
2z"/>
<path d="M3585 4121 c-3 -6 1 -14 9 -17 21 -8 20 -27 -3 -55 -16 -21 -22 -22
-45 -11 -28 12 -34 40 -13 61 10 11 7 12 -18 7 -16 -4 -37 -14 -45 -22 -12
-12 -5 -23 60 -84 47 -45 77 -67 83 -61 6 6 0 18 -19 34 l-28 24 30 16 c57 29
72 109 22 115 -14 2 -29 -2 -33 -7z"/>
<path d="M4013 4112 c-31 -25 -71 -110 -77 -162 l-5 -45 13 52 c14 54 37 92
80 132 41 38 32 57 -11 23z"/>
<path d="M3382 4081 c18 -16 35 -27 37 -25 7 7 -42 54 -56 54 -7 0 1 -13 19
-29z"/>
<path d="M3712 4067 c-8 -21 -15 -66 -16 -100 -3 -83 -11 -95 -43 -65 l-26 23
14 -22 c8 -13 17 -23 21 -23 4 0 5 -29 1 -65 -4 -41 -2 -65 4 -65 6 0 8 10 6
23 -3 12 2 40 10 62 9 22 23 60 32 84 10 29 15 67 13 115 l-3 71 -13 -38z"/>
<path d="M4063 4041 c-35 -32 -63 -61 -63 -64 0 -12 109 75 125 99 25 39 4 27
-62 -35z"/>
<path d="M2980 4060 c0 -28 2 -29 20 -18 11 7 20 15 20 18 0 3 -9 11 -20 18
-18 11 -20 10 -20 -18z"/>
<path d="M3799 4085 c-4 -5 -12 -35 -19 -66 -13 -59 -8 -109 11 -109 6 0 8 7
5 15 -3 9 -1 38 5 65 11 50 9 113 -2 95z"/>
<path d="M3853 4033 c-30 -39 -29 -27 -24 -233 1 -60 4 -70 12 -51 5 13 8 69
7 125 -3 96 -1 104 25 149 34 56 20 63 -20 10z"/>
<path d="M4206 4051 c-9 -26 -37 -69 -84 -129 -49 -61 -38 -60 22 2 51 52 83
111 73 139 -2 6 -7 1 -11 -12z"/>
<path d="M3920 4040 c-6 -11 -15 -41 -20 -67 -5 -27 -12 -57 -16 -68 -5 -16
-4 -18 6 -8 11 10 52 163 44 163 -2 0 -8 -9 -14 -20z"/>
<path d="M4439 4030 c-34 -18 -79 -85 -79 -117 0 -7 -16 -28 -35 -49 -43 -45
-41 -52 3 -17 18 14 46 51 62 83 27 53 46 75 96 107 32 20 -6 15 -47 -7z"/>
<path d="M3655 4020 c-3 -5 -1 -10 4 -10 6 0 11 5 11 10 0 6 -2 10 -4 10 -3 0
-8 -4 -11 -10z"/>
<path d="M4490 3987 c-47 -19 -58 -29 -85 -77 -23 -42 -44 -63 -85 -88 -52
-31 -99 -76 -100 -97 0 -5 16 7 36 28 27 27 44 37 64 35 21 -2 45 12 96 54 64
52 129 88 159 88 7 0 23 -8 35 -18 22 -18 22 -18 -33 -18 -47 1 -60 -3 -84
-26 -16 -16 -33 -28 -37 -28 -5 0 -25 -18 -46 -39 -21 -21 -52 -42 -68 -46
-17 -3 -47 -21 -68 -40 l-39 -34 80 40 c44 22 87 48 95 57 8 10 35 32 60 49
36 25 57 32 104 35 41 2 61 -1 63 -9 5 -14 2 -15 -74 -18 -62 -2 -94 -21 -128
-75 -26 -42 -54 -60 -122 -80 -23 -7 -54 -26 -69 -41 -34 -35 -26 -36 29 -6
23 13 59 29 80 36 21 7 58 34 85 62 31 32 65 56 100 69 73 28 106 26 137 -7
35 -39 32 -45 -20 -37 -56 8 -59 -7 -5 -29 31 -12 43 -24 56 -56 9 -23 26 -49
38 -59 12 -9 31 -36 42 -59 10 -23 21 -43 24 -43 14 0 9 105 -5 126 -8 13 -15
38 -16 56 0 18 -5 42 -10 53 -7 15 -8 11 -5 -17 8 -68 -25 -41 -49 39 -10 33
-25 56 -46 72 -44 33 -29 37 21 6 29 -18 39 -21 33 -10 -5 9 -20 22 -34 29
-13 6 -40 35 -59 63 -29 42 -75 84 -92 83 -1 0 -28 -11 -58 -23z m26 -40 c-11
-7 -34 -25 -53 -41 -42 -36 -43 -22 -1 21 18 18 41 33 52 32 20 0 20 -1 2 -12z"/>
<path d="M3610 3990 c0 -5 6 -10 14 -10 8 0 18 5 21 10 3 6 -3 10 -14 10 -12
0 -21 -4 -21 -10z"/>
<path d="M4285 3930 c-4 -6 -20 -19 -36 -29 -29 -18 -114 -109 -108 -116 2 -2
40 30 83 71 44 41 77 77 74 80 -3 3 -9 0 -13 -6z"/>
<path d="M2946 3922 c-8 -13 3 -42 15 -42 11 0 11 21 0 39 -5 8 -11 9 -15 3z"/>
<path d="M3520 3890 c0 -13 50 -33 59 -24 7 7 -28 34 -46 34 -7 0 -13 -5 -13
-10z"/>
<path d="M3740 3889 c0 -9 -3 -38 -6 -65 -5 -47 -5 -48 10 -24 18 29 20 68 6
90 -8 13 -10 13 -10 -1z"/>
<path d="M3579 3824 c19 -8 37 -12 40 -9 9 10 -22 25 -49 24 -23 0 -22 -1 9
-15z"/>
<path d="M3586 3783 c-2 -10 -3 -29 -2 -43 2 -14 4 -33 5 -42 0 -10 6 -18 12
-18 7 0 9 10 5 25 -5 20 -3 25 14 25 24 0 26 17 4 48 -18 27 -31 28 -38 5z"/>
<path d="M3790 3750 c0 -11 4 -20 9 -20 5 0 7 9 4 20 -3 11 -7 20 -9 20 -2 0
-4 -9 -4 -20z"/>
<path d="M3720 3748 c1 -31 30 -131 44 -152 20 -32 47 -58 53 -52 3 3 -6 24
-19 48 -14 24 -35 71 -48 106 -22 61 -30 75 -30 50z"/>
<path d="M4518 3743 c-21 -9 -38 -19 -38 -24 0 -5 -14 -24 -31 -44 -41 -46
-23 -45 22 1 18 20 51 43 72 51 20 8 37 19 37 24 0 12 -18 10 -62 -8z"/>
<path d="M3671 3689 c0 -19 6 -44 14 -55 13 -17 13 -16 5 16 -5 19 -11 44 -13
55 -3 11 -5 5 -6 -16z"/>
<path d="M3437 3665 c44 -46 67 -55 75 -32 9 22 -3 37 -26 31 -15 -3 -28 2
-44 20 -12 15 -28 26 -36 26 -8 0 6 -20 31 -45z"/>
<path d="M4087 3683 c-4 -3 -7 -28 -7 -55 0 -27 -7 -63 -16 -79 -23 -45 -10
-46 17 -2 31 52 36 167 6 136z"/>
<path d="M3395 3670 c3 -5 8 -10 11 -10 2 0 4 5 4 10 0 6 -5 10 -11 10 -5 0
-7 -4 -4 -10z"/>
<path d="M4502 3655 c-23 -14 -49 -39 -57 -55 -9 -17 -39 -42 -75 -62 -60 -33
-80 -55 -37 -43 40 12 97 44 147 84 27 22 63 42 79 46 39 8 92 -15 122 -54 50
-66 92 -111 97 -106 4 3 -6 17 -21 31 -15 14 -33 48 -42 78 -21 72 -51 98
-117 103 -44 3 -61 -1 -96 -22z m122 2 c16 -11 11 -13 -35 -14 -48 -1 -51 1
-34 13 24 18 46 18 69 1z"/>
<path d="M4156 3654 c-5 -14 -4 -15 9 -4 17 14 19 20 6 20 -5 0 -12 -7 -15
-16z"/>
<path d="M4001 3644 c0 -11 3 -14 6 -6 3 7 2 16 -1 19 -3 4 -6 -2 -5 -13z"/>
<path d="M4191 3624 c-12 -20 -20 -38 -19 -40 2 -1 14 13 27 32 13 19 22 37
19 40 -3 3 -15 -12 -27 -32z"/>
<path d="M4347 3621 c-42 -11 -68 -26 -89 -49 -36 -41 -28 -56 10 -19 16 15
34 27 40 27 17 0 89 37 97 50 3 5 5 9 3 9 -2 -1 -29 -9 -61 -18z"/>
<path d="M3576 3605 c-9 -14 -23 -25 -30 -25 -8 0 -16 -10 -19 -22 -7 -27 -2
-34 15 -21 7 6 30 13 51 17 42 8 50 32 18 60 -17 16 -19 15 -35 -9z"/>
<path d="M3150 3599 c0 -5 5 -7 10 -4 6 3 10 8 10 11 0 2 -4 4 -10 4 -5 0 -10
-5 -10 -11z"/>
<path d="M3730 3594 c1 -21 50 -87 50 -67 0 7 -11 29 -25 49 -18 26 -25 31
-25 18z"/>
<path d="M4532 3583 c-16 -8 -51 -37 -78 -65 -42 -43 -45 -48 -19 -35 17 8 39
25 50 37 35 39 71 52 111 41 37 -10 74 -37 74 -53 0 -5 -20 3 -43 17 -57 33
-69 32 -114 -9 -21 -18 -51 -40 -68 -49 -39 -21 -8 -23 42 -2 19 8 47 16 62
16 18 1 20 3 8 6 -28 7 -14 28 22 31 21 2 40 -3 53 -15 20 -18 20 -18 -8 -24
l-29 -6 28 -11 c28 -12 47 -46 47 -86 0 -22 57 -122 65 -114 2 2 -7 26 -21 53
-17 34 -25 66 -24 100 0 27 0 60 0 73 0 26 -24 77 -42 88 -27 17 -88 21 -116
7z"/>
<path d="M2775 3573 c-17 -9 -25 -18 -17 -21 7 -2 27 6 45 17 38 24 16 28 -28
4z"/>
<path d="M2845 3550 c-3 -6 1 -7 9 -4 18 7 21 14 7 14 -6 0 -13 -4 -16 -10z"/>
<path d="M3705 3550 c3 -5 8 -10 11 -10 2 0 4 5 4 10 0 6 -5 10 -11 10 -5 0
-7 -4 -4 -10z"/>
<path d="M4111 3530 c-1 -14 -8 -36 -16 -50 -22 -39 -17 -49 6 -13 13 20 19
43 16 60 -4 27 -4 27 -6 3z"/>
<path d="M3710 3516 c0 -8 -9 -18 -20 -21 -11 -3 -20 -10 -20 -15 0 -12 -37
-19 -48 -8 -7 7 -23 6 -47 -2 -20 -7 -50 -10 -66 -6 -15 3 -31 1 -34 -4 -9
-14 -35 0 -35 19 0 9 -11 -4 -23 -29 -12 -25 -32 -58 -45 -74 -40 -52 -23 -48
26 5 34 37 57 53 78 55 16 2 53 6 82 9 42 4 52 2 52 -10 0 -20 6 -19 44 10 18
14 37 25 42 25 13 0 34 49 23 56 -5 3 -9 -2 -9 -10z"/>
<path d="M4142 3470 c-7 -25 -15 -52 -18 -60 -3 -8 4 -1 16 17 13 19 20 44 18
60 -3 25 -4 23 -16 -17z"/>
<path d="M3161 3490 c-1 -26 38 -82 52 -73 9 5 8 8 -5 11 -9 2 -23 20 -32 40
-8 20 -15 30 -15 22z"/>
<path d="M3751 3470 c6 -14 29 -54 49 -90 21 -36 41 -80 45 -98 4 -19 11 -30
16 -25 12 12 -8 89 -36 131 -13 20 -38 53 -55 72 -25 28 -29 30 -19 10z"/>
<path d="M4215 3480 c3 -5 8 -10 11 -10 2 0 4 5 4 10 0 6 -5 10 -11 10 -5 0
-7 -4 -4 -10z"/>
<path d="M4811 3464 c0 -11 3 -14 6 -6 3 7 2 16 -1 19 -3 4 -6 -2 -5 -13z"/>
<path d="M3877 3428 c27 -30 53 -82 53 -108 0 -11 5 -20 10 -20 6 0 10 21 10
46 0 38 -5 50 -32 75 -39 35 -72 41 -41 7z"/>
<path d="M4153 3383 c-66 -64 -193 -155 -221 -157 -13 -1 -17 8 -19 39 -3 68
-14 99 -41 119 -25 19 -25 19 -18 0 4 -10 14 -46 23 -79 8 -33 19 -68 24 -78
8 -14 1 -28 -31 -65 -36 -44 -57 -83 -28 -54 14 14 28 16 28 3 0 -6 -27 -29
-60 -52 -58 -40 -114 -113 -148 -193 -8 -16 -25 -43 -39 -60 -63 -77 -126
-191 -144 -259 -20 -77 -18 -105 2 -37 8 26 29 57 56 83 25 23 53 57 65 75 24
39 52 55 78 47 24 -8 27 -35 4 -35 -21 0 -99 -67 -113 -96 -16 -35 -2 -29 44
19 22 23 54 50 72 59 24 12 34 26 39 52 4 22 2 42 -5 50 -6 7 -8 16 -5 19 4 3
15 -4 25 -16 l19 -22 -6 27 c-7 31 3 71 16 63 5 -3 6 -13 3 -22 -4 -11 -3 -14
5 -9 7 4 12 15 12 25 0 9 7 26 15 37 19 25 19 34 0 34 -8 0 -15 -4 -15 -10 0
-5 -7 -10 -15 -10 -8 0 -15 -4 -15 -8 0 -5 -29 -29 -63 -55 -51 -37 -70 -59
-95 -110 -29 -58 -76 -116 -86 -106 -10 9 113 192 145 216 49 38 127 113 152
148 13 18 -6 5 -47 -32 -99 -90 -110 -86 -44 15 30 46 59 75 98 100 30 19 80
58 111 87 32 29 90 67 134 88 43 21 75 40 72 43 -3 3 -28 -6 -56 -20 -28 -14
-56 -26 -64 -26 -8 0 -40 -18 -72 -41 -31 -22 -60 -37 -64 -33 -3 3 5 15 19
25 114 84 204 149 243 176 25 17 53 43 62 57 33 49 9 40 -52 -21z m-455 -625
c7 -7 12 -16 12 -22 0 -6 -5 -5 -12 2 -7 7 -25 12 -41 12 -16 0 -26 4 -22 10
9 14 48 13 63 -2z"/>
<path d="M3025 3430 c3 -5 8 -10 11 -10 2 0 4 5 4 10 0 6 -5 10 -11 10 -5 0
-7 -4 -4 -10z"/>
<path d="M4277 3395 c-25 -19 -73 -47 -107 -61 -33 -15 -59 -28 -58 -30 2 -1
31 5 65 15 39 10 75 28 95 47 18 17 44 38 58 47 17 12 19 17 9 17 -9 0 -37
-16 -62 -35z"/>
<path d="M4480 3413 c-19 -8 -48 -17 -64 -19 -15 -2 -49 -17 -75 -33 -25 -16
-59 -35 -75 -41 -16 -6 -26 -13 -24 -16 3 -3 31 7 63 21 32 14 64 25 72 25 7
0 25 8 40 17 34 22 92 18 120 -9 13 -12 23 -24 23 -27 0 -3 -44 -5 -97 -3
-107 4 -90 9 -263 -85 -38 -20 -40 -23 -15 -18 17 3 47 15 69 26 47 24 57 19
19 -11 l-28 -22 30 5 c66 13 152 27 180 30 l30 2 -37 19 c-28 13 -48 16 -79
11 -59 -10 -42 10 21 25 44 10 55 10 88 -5 50 -23 90 -62 97 -94 3 -15 19 -47
36 -71 17 -25 29 -36 26 -25 -3 11 -10 43 -17 70 -6 28 -16 64 -21 81 -5 18
-7 49 -3 71 11 69 -46 107 -116 76z"/>
<path d="M4603 3401 c14 -18 29 -47 33 -66 3 -19 13 -40 22 -47 13 -12 14 -8
8 27 -12 64 -38 110 -65 113 l-24 4 26 -31z"/>
<path d="M4821 3425 c-1 -6 3 -24 7 -40 9 -32 -1 -92 -11 -65 -19 55 -21 56
-25 23 -2 -20 9 -61 29 -110 19 -48 34 -105 38 -148 l7 -70 8 49 c7 40 4 61
-18 128 -23 66 -26 85 -17 110 6 17 11 40 11 52 -1 22 -28 88 -29 71z"/>
<path d="M3996 3405 c-3 -8 -1 -15 4 -15 6 0 10 7 10 15 0 8 -2 15 -4 15 -2 0
-6 -7 -10 -15z"/>
<path d="M4710 3395 c0 -16 12 -48 26 -70 14 -22 22 -31 18 -20 -4 11 -15 43
-25 70 -16 44 -18 46 -19 20z"/>
<path d="M3170 3370 c0 -5 7 -10 16 -10 8 0 12 5 9 10 -3 6 -10 10 -16 10 -5
0 -9 -4 -9 -10z"/>
<path d="M3210 3371 c0 -6 5 -13 10 -16 6 -3 10 1 10 9 0 9 -4 16 -10 16 -5 0
-10 -4 -10 -9z"/>
<path d="M3086 3358 c3 -5 -2 -18 -11 -28 -22 -24 -11 -84 20 -104 25 -17 41
-10 24 10 -6 8 -9 21 -5 29 3 8 1 15 -4 15 -6 0 -10 -5 -10 -11 0 -5 -4 -7
-10 -4 -5 3 -10 17 -10 31 0 20 4 23 23 19 12 -3 34 -2 47 4 24 9 24 10 -7 10
-33 1 -45 15 -20 24 6 2 0 6 -15 9 -15 3 -25 1 -22 -4z"/>
<path d="M3331 3294 c-1 -6 -10 -23 -21 -36 -18 -24 -23 -25 -67 -17 -27 5
-49 14 -51 19 -2 5 -10 3 -18 -5 -8 -8 -21 -12 -29 -9 -18 7 -20 -7 -4 -23 7
-7 21 -8 39 -3 16 5 31 5 35 2 3 -4 20 -7 38 -7 24 -1 39 7 60 32 16 18 26 38
24 45 -3 8 -6 9 -6 2z"/>
<path d="M4480 3233 c0 -6 13 -30 30 -54 34 -50 44 -123 13 -98 -15 12 -16 12
-8 -6 4 -11 11 -41 15 -67 6 -46 24 -78 42 -78 5 0 4 9 -2 19 -5 11 -10 31
-10 45 0 14 -4 26 -10 26 -13 0 -13 27 -1 32 18 6 24 74 8 89 -8 8 -21 29 -30
45 -17 33 -47 63 -47 47z"/>
<path d="M4645 3193 c8 -27 15 -63 15 -81 0 -19 16 -63 36 -100 31 -59 35 -75
33 -132 -1 -36 3 -75 9 -87 7 -12 12 -30 12 -40 0 -10 16 -41 36 -70 26 -38
35 -60 32 -84 -5 -50 -23 -45 -37 10 -7 27 -22 57 -33 68 -11 10 -27 31 -35
46 -8 16 -17 26 -20 23 -3 -3 12 -42 34 -88 28 -57 42 -102 47 -145 6 -66 -8
-129 -23 -104 -6 9 -12 3 -21 -23 -6 -20 -15 -36 -20 -36 -4 0 -15 17 -23 38
-17 43 -47 75 -47 50 0 -9 11 -32 25 -52 14 -20 25 -43 25 -51 0 -7 8 -15 18
-17 15 -3 14 -5 -4 -16 -18 -10 -29 -8 -63 11 -42 23 -61 47 -36 47 11 0 12 6
3 33 -14 43 -28 57 -28 28 0 -16 -4 -21 -15 -17 -15 5 -20 -8 -15 -49 3 -32
17 -42 66 -50 44 -6 45 -8 42 -38 -3 -30 -5 -32 -37 -29 -43 5 -84 30 -79 51
2 9 -6 26 -19 38 l-22 21 -4 -26 c-3 -24 -4 -25 -11 -7 -4 11 -12 28 -17 37
-5 10 -9 25 -9 33 0 8 -4 15 -10 15 -15 0 -12 -28 7 -57 9 -14 17 -37 18 -50
0 -18 12 -30 49 -51 56 -31 64 -43 40 -66 -22 -23 -40 -15 -36 17 3 26 -28 54
-47 43 -11 -7 -27 13 -34 44 -11 46 -32 100 -39 100 -10 0 -10 -3 2 -34 6 -17
6 -26 0 -26 -6 0 -10 -7 -10 -15 0 -9 6 -12 17 -8 11 4 14 3 9 -5 -10 -17 25
-72 45 -72 9 0 22 -7 29 -15 10 -12 9 -20 -4 -40 l-16 -25 -40 39 c-23 22 -40
48 -40 60 0 12 -4 19 -10 16 -19 -12 -10 -47 20 -75 34 -32 37 -45 14 -54 -9
-4 -15 -9 -12 -11 2 -3 29 4 59 15 29 11 63 20 75 20 11 0 29 9 39 20 11 12
34 28 52 37 19 9 36 25 39 39 4 14 15 29 25 35 10 5 26 24 35 42 9 18 20 34
24 37 25 17 50 80 50 124 0 39 7 58 33 95 68 95 71 147 22 310 -14 47 -25 99
-25 117 0 18 -4 36 -10 39 -5 3 -10 23 -11 43 0 20 -4 46 -9 57 -8 19 -16 -75
-13 -165 0 -19 -2 -37 -6 -40 -3 -3 -13 -18 -21 -35 l-15 -30 -3 59 c-2 41
-10 70 -28 97 -13 21 -24 47 -24 58 0 20 -24 93 -42 129 -20 39 -28 24 -13
-25z"/>
<path d="M4291 3190 c-47 -22 -113 -75 -104 -84 5 -5 -8 -28 -42 -71 -13 -17
-17 -18 -25 -5 -7 11 -12 10 -29 -11 -29 -35 -84 -139 -77 -146 7 -7 -23 -43
-36 -43 -4 0 -8 16 -8 35 0 25 6 37 22 46 19 10 19 12 5 21 -23 12 -57 -11
-57 -39 0 -12 -4 -24 -9 -27 -10 -7 -2 -59 12 -67 6 -4 -8 -28 -31 -55 -23
-27 -50 -60 -61 -74 l-20 -25 6 57 c3 31 2 65 -2 75 -5 10 -7 25 -6 32 2 12 0
13 -13 2 -11 -9 -13 -18 -7 -30 15 -27 15 -74 1 -129 -15 -58 -29 -71 -117
-115 -51 -26 -51 -27 -41 -59 6 -18 22 -57 35 -87 29 -62 25 -70 -48 -93 l-45
-15 -1 31 c-1 17 -8 45 -17 61 -19 36 -21 76 -4 93 7 7 9 12 5 12 -6 0 -88
-31 -95 -35 -1 -1 9 -36 23 -78 14 -42 25 -80 25 -86 0 -11 -38 -33 -75 -45
-18 -5 -20 -1 -21 47 0 33 -7 63 -17 78 -22 31 -21 46 4 54 11 4 18 9 16 11
-9 9 -131 -46 -194 -87 -65 -43 -89 -67 -29 -30 56 35 106 3 106 -68 0 -43
-16 -73 -54 -99 -43 -30 -58 -28 -56 6 5 73 0 101 -20 107 -11 3 -20 13 -20
21 0 12 -4 12 -30 -1 l-31 -16 26 -31 c18 -21 25 -40 23 -61 -4 -40 -24 -46
-33 -10 -3 15 -14 36 -22 45 -8 10 -13 24 -10 33 8 20 1 19 -63 -14 l-54 -28
31 -7 c41 -9 51 -22 56 -76 6 -60 -7 -85 -66 -121 -48 -29 -70 -32 -50 -7 5 7
11 34 12 60 2 40 -2 51 -24 69 -26 24 -33 49 -13 49 6 0 9 2 6 5 -3 3 -36 -11
-73 -30 -38 -19 -81 -35 -95 -35 -20 0 -29 -7 -38 -33 -7 -18 -12 -41 -12 -49
0 -24 -95 -54 -115 -38 -23 19 -18 33 17 51 44 21 45 36 4 53 -39 16 -56 41
-56 82 0 22 -3 25 -12 16 -15 -15 5 -171 26 -205 40 -61 157 -83 281 -54 83
19 118 36 227 105 52 33 111 67 131 75 20 9 68 34 106 56 38 23 73 41 78 41
10 0 -1 -165 -13 -195 -4 -11 -22 -41 -39 -66 -22 -32 -35 -68 -44 -120 -9
-49 -23 -87 -42 -114 -36 -52 -155 -175 -168 -175 -6 0 -11 -4 -11 -10 0 -22
22 -6 106 80 101 102 120 134 128 207 7 71 25 109 80 169 25 29 46 58 46 66 0
8 11 25 25 38 14 13 25 28 25 33 0 6 -10 1 -23 -11 -34 -32 -42 -27 -16 11
l23 32 -22 -19 c-34 -29 -37 -13 -7 36 15 23 21 37 14 31 -19 -18 -41 -16 -37
3 5 24 198 92 279 99 14 1 59 20 98 43 82 47 97 51 81 21 -7 -11 -9 -23 -6
-26 8 -8 36 17 36 31 0 26 100 99 123 91 7 -3 24 6 37 20 13 14 29 25 37 25 7
0 21 12 30 27 l18 27 6 -51 c4 -31 16 -64 32 -85 35 -47 39 -69 18 -97 -13
-17 -32 -26 -62 -30 -35 -5 -46 -11 -57 -34 -9 -18 -11 -39 -6 -55 7 -26 7
-26 14 12 8 42 22 56 59 56 42 0 131 120 131 178 0 10 8 29 17 42 10 14 16 33
15 42 -4 23 24 75 56 106 15 14 21 22 13 17 -11 -6 -13 -3 -9 13 4 15 2 22 -8
22 -25 0 -28 30 -4 50 12 11 19 24 15 31 -4 6 -2 15 5 19 8 5 10 15 5 26 -8
17 -9 17 -12 -4 -3 -12 -15 -29 -28 -38 -13 -8 -26 -29 -29 -49 -6 -29 -34
-57 -37 -37 -7 47 -5 80 7 93 13 14 13 27 4 81 l-12 65 31 34 c17 18 31 38 31
43 0 5 7 17 16 27 9 10 17 37 17 62 2 37 -1 43 -15 39 -10 -2 -18 1 -18 7 0 9
-5 9 -20 1 -15 -8 -21 -6 -30 9 -8 16 -6 22 9 31 47 25 141 -2 141 -40 0 -26
17 -26 25 1 5 14 0 28 -16 45 -29 31 -104 33 -168 4z m-16 -273 c-9 -28 -15
-76 -14 -111 1 -58 -10 -103 -37 -136 -6 -8 -17 -32 -23 -52 -19 -58 -34 -59
-25 -2 6 45 6 48 -9 35 -10 -7 -17 -17 -17 -22 0 -33 -141 -169 -174 -169 -6
0 -21 -12 -34 -27 l-23 -28 6 25 c28 108 28 104 6 148 -12 24 -35 49 -53 58
-30 16 -31 17 -13 30 19 14 91 19 119 8 23 -9 50 -71 49 -111 -1 -39 11 -39
41 1 16 21 21 43 22 98 1 39 -4 81 -10 94 -13 27 -52 39 -96 29 -18 -4 -30 -3
-30 3 0 13 48 52 64 52 6 0 22 9 36 20 l25 20 -30 0 -30 1 25 13 c41 22 88 28
125 16 27 -9 35 -17 37 -38 1 -15 3 -38 4 -52 1 -14 3 -38 4 -55 l2 -30 8 32
c8 36 7 91 -4 140 -8 37 -41 49 -101 37 -35 -6 -37 -6 -26 14 16 29 51 52 81
52 14 1 36 7 49 14 23 13 26 12 44 -21 17 -34 18 -38 2 -86z m-277 -163 c12
-4 30 -20 38 -37 15 -28 15 -30 -2 -22 -43 17 -88 26 -105 22 -26 -7 -24 8 3
27 25 18 32 19 66 10z m362 -94 c0 -6 -11 -27 -24 -48 -12 -20 -26 -47 -30
-60 -5 -13 -10 -21 -14 -18 -3 3 -13 -15 -21 -41 -16 -48 -40 -69 -42 -36 -1
16 -2 16 -6 1 -8 -32 -37 -17 -47 24 -5 20 -2 29 11 36 10 5 24 7 31 5 6 -3
12 2 12 11 0 19 16 21 23 4 3 -7 6 0 6 15 1 16 5 25 11 22 5 -3 21 17 35 45
22 44 55 68 55 40z m-477 -78 c24 -25 37 -62 21 -62 -3 0 -20 11 -38 25 -18
14 -40 25 -48 25 -22 0 -29 11 -17 27 18 21 53 15 82 -15z m-84 -65 c28 -14
49 -67 43 -109 -3 -19 -14 -34 -34 -44 -32 -17 -41 -14 -43 14 -1 9 -7 28 -15
42 -40 74 -40 73 -23 92 19 21 39 22 72 5z m462 -114 c-10 -17 -10 -16 -11 3
0 23 13 41 18 25 2 -6 -1 -18 -7 -28z m-893 -50 c17 -44 25 -110 14 -117 -6
-3 -13 13 -17 36 -4 25 -16 50 -28 59 -12 10 -18 23 -14 33 10 25 33 19 45
-11z m-481 -277 c9 -21 13 -41 8 -53 -6 -16 -9 -14 -20 13 -8 17 -21 36 -29
43 -22 18 -20 31 4 31 13 0 26 -12 37 -34z m-83 -7 c31 -36 32 -91 4 -124 -22
-26 -28 -27 -71 -21 l-47 7 34 40 c29 34 33 46 30 80 -3 32 0 39 14 39 10 0
26 -10 36 -21z"/>
<path d="M4105 2876 c-19 -15 -18 -15 18 -16 l37 0 0 -54 c0 -30 5 -58 10 -61
6 -3 10 -16 10 -28 1 -18 2 -19 10 -6 6 10 5 45 -3 95 -11 73 -14 79 -37 82
-14 2 -34 -4 -45 -12z"/>
<path d="M4156 3170 c-32 -10 -64 -24 -70 -31 -8 -9 -6 -10 9 -5 11 4 41 12
67 17 26 6 52 17 59 25 14 17 9 17 -65 -6z"/>
<path d="M4755 3127 c-4 -22 -2 -43 7 -58 12 -23 13 -22 16 25 4 60 -14 85
-23 33z"/>
<path d="M3948 3099 c-42 -40 -46 -46 -18 -28 56 36 102 79 86 79 -8 0 -39
-23 -68 -51z"/>
<path d="M4402 3061 c0 -59 4 -80 20 -102 12 -16 17 -33 13 -41 -6 -10 -5 -10
4 -2 9 8 9 17 0 40 -7 16 -14 52 -15 79 -2 28 -7 61 -12 75 -7 19 -9 7 -10
-49z"/>
<path d="M4088 3100 c-23 -7 -89 -50 -76 -50 2 0 21 9 43 20 21 11 48 17 59
14 12 -3 29 1 39 8 17 13 16 14 -10 15 -15 1 -40 -2 -55 -7z"/>
<path d="M4440 3074 c11 -48 31 -94 40 -94 11 0 0 40 -17 65 -7 11 -13 30 -13
42 0 13 -4 23 -9 23 -5 0 -5 -15 -1 -36z"/>
<path d="M3923 3025 c-15 -13 -23 -25 -17 -25 6 0 21 11 34 25 30 32 19 32
-17 0z"/>
<path d="M4015 3000 c-27 -30 -12 -34 15 -5 13 14 19 25 13 25 -5 0 -18 -9
-28 -20z"/>
<path d="M4661 2988 c6 -18 10 -68 11 -111 1 -43 5 -80 10 -83 4 -3 8 6 8 19
0 13 5 39 11 57 10 27 9 39 -4 64 -8 17 -18 43 -21 59 -4 15 -10 27 -15 27 -6
0 -6 -13 0 -32z"/>
<path d="M3910 2944 c-48 -49 -50 -53 -19 -32 29 18 89 88 76 88 -1 0 -27 -25
-57 -56z"/>
<path d="M4371 2960 c0 -36 2 -41 10 -27 7 12 7 27 0 45 -9 25 -9 24 -10 -18z"/>
<path d="M3830 2941 c-7 -15 -7 -21 0 -21 12 0 25 28 17 36 -3 3 -10 -4 -17
-15z"/>
<path d="M4493 2904 c-1 -24 3 -44 8 -44 11 0 12 60 1 77 -4 6 -8 -9 -9 -33z"/>
<path d="M4326 2933 c-3 -3 -6 -22 -6 -41 0 -29 2 -33 15 -22 8 7 15 23 15 36
0 24 -12 38 -24 27z"/>
<path d="M3880 2843 c0 -11 -4 -23 -9 -28 -12 -14 -1 -77 13 -72 12 4 16 106
4 113 -4 3 -8 -3 -8 -13z"/>
<path d="M4623 2805 c-1 -52 1 -56 9 -32 7 19 7 40 1 60 -9 29 -10 26 -10 -28z"/>
<path d="M4415 2759 c-4 -6 -5 -12 -2 -15 2 -3 7 2 10 11 7 17 1 20 -8 4z"/>
<path d="M4484 2741 c-4 -17 -18 -41 -32 -52 -20 -16 -23 -22 -13 -29 11 -6 9
-11 -9 -20 -38 -20 -14 -22 27 -2 54 28 143 101 143 118 0 8 -25 -11 -56 -41
-31 -31 -59 -54 -61 -52 -2 3 1 26 7 52 6 26 8 50 5 53 -2 3 -8 -9 -11 -27z"/>
<path d="M3755 2683 c-4 -32 -12 -67 -17 -78 -11 -20 -11 -20 10 -1 28 25 44
80 32 112 -5 13 -11 24 -14 24 -2 0 -7 -26 -11 -57z"/>
<path d="M4605 2700 c-9 -15 3 -45 25 -65 20 -18 20 -17 4 29 -17 49 -19 52
-29 36z"/>
<path d="M4521 2641 c-11 -7 -6 -10 19 -13 18 -2 35 -9 38 -16 2 -7 -2 -10
-11 -6 -8 3 -36 -6 -62 -19 -34 -19 -42 -26 -28 -29 15 -3 13 -7 -12 -21 -18
-11 -22 -16 -10 -13 11 3 33 8 48 12 20 4 34 1 47 -11 19 -17 20 -17 20 2 0
22 -18 33 -53 33 -18 0 -19 2 -7 10 25 16 58 11 80 -12 19 -21 20 -21 22 -2 6
73 -41 117 -91 85z"/>
<path d="M4660 2549 c0 -11 16 -35 35 -52 19 -17 35 -36 35 -43 0 -7 5 -16 12
-20 8 -5 9 2 5 26 -4 19 -23 48 -47 71 -35 34 -40 36 -40 18z"/>
<path d="M4355 2540 c-23 -26 -8 -26 25 0 18 14 21 20 9 20 -9 0 -24 -9 -34
-20z"/>
<path d="M2763 2490 c-79 -36 -139 -99 -180 -189 -33 -72 -42 -126 -10 -65 8
16 26 35 39 41 22 10 96 8 107 -2 2 -3 0 -21 -6 -40 -17 -54 0 -42 20 15 18
49 44 77 146 152 24 18 50 43 58 55 13 20 12 23 -11 38 -40 27 -98 25 -163 -5z"/>
<path d="M4610 2496 c0 -22 3 -27 11 -19 8 8 8 16 0 30 -9 16 -10 14 -11 -11z"/>
<path d="M4474 2490 c22 -4 47 -18 58 -31 l19 -24 -3 30 c-3 29 -5 30 -58 32
-51 1 -52 1 -16 -7z"/>
<path d="M4396 2459 c3 -5 11 -9 19 -9 8 0 18 -7 23 -16 6 -10 12 -12 16 -6 3
5 0 14 -7 19 -17 14 -58 23 -51 12z"/>
<path d="M4060 2441 c0 -11 -99 -96 -180 -154 -58 -42 -73 -38 -64 18 5 29 5
29 -10 11 -19 -23 -20 -31 -6 -57 9 -16 2 -30 -52 -89 -99 -112 -90 -114 18
-5 55 55 124 117 155 138 85 55 174 147 144 147 -3 0 -5 -4 -5 -9z"/>
<path d="M4384 2415 c11 -8 25 -15 30 -15 6 0 2 7 -8 15 -11 8 -25 15 -30 15
-6 0 -2 -7 8 -15z"/>
<path d="M4353 2353 c8 -10 17 -29 20 -43 4 -22 4 -22 6 6 1 29 -14 54 -33 54
-5 0 -2 -8 7 -17z"/>
<path d="M3721 2254 c-26 -33 -28 -53 -3 -31 10 10 24 17 30 17 7 0 12 9 12
20 0 27 -15 25 -39 -6z"/>
<path d="M2592 2238 c-14 -14 -16 -48 -2 -48 10 0 30 32 30 49 0 14 -13 14
-28 -1z"/>
<path d="M4337 2233 c-4 -3 -7 -22 -7 -41 0 -42 46 -107 132 -187 63 -59 79
-68 138 -79 l35 -7 -28 16 c-15 9 -32 13 -37 10 -10 -6 -165 131 -202 180 -16
20 -23 43 -23 72 0 24 0 43 -1 43 0 0 -4 -3 -7 -7z"/>
<path d="M4101 2128 c11 -39 33 -71 111 -158 31 -36 77 -89 100 -119 24 -30
55 -63 69 -74 27 -20 33 -20 136 -14 51 3 66 0 79 -15 11 -11 31 -18 52 -18
27 0 42 8 68 37 19 20 34 44 35 52 2 36 -4 77 -14 96 -6 11 -11 29 -11 40 -1
30 -109 82 -166 80 -69 -3 -77 -6 -45 -16 16 -4 39 -6 51 -3 28 7 66 -4 59
-17 -4 -5 9 -9 27 -9 33 0 58 -14 58 -33 0 -5 -9 -7 -20 -4 -11 3 -22 2 -25
-3 -3 -4 6 -11 19 -14 24 -6 27 -15 29 -103 2 -48 -23 -83 -59 -83 -29 0 -84
31 -84 48 0 6 -9 12 -20 12 -11 0 -25 9 -32 20 -8 12 -24 20 -40 20 -16 0 -28
5 -28 10 0 6 -9 10 -19 10 -12 0 -25 12 -33 30 -7 17 -16 30 -21 30 -4 0 -20
12 -36 28 -31 30 -91 65 -99 58 -3 -3 3 -8 12 -12 9 -3 16 -12 16 -20 0 -8 5
-14 10 -14 6 0 10 -6 10 -13 0 -7 23 -35 50 -62 28 -27 50 -53 50 -58 0 -5 7
-16 16 -25 13 -12 14 -17 4 -20 -23 -8 -239 239 -280 318 -29 56 -43 65 -29
18z"/>
<path d="M2645 2121 c3 -48 14 -54 42 -21 29 35 29 35 -13 43 -29 5 -31 4 -29
-22z"/>
<path d="M3655 2109 c-4 -6 -5 -12 -2 -15 2 -3 7 2 10 11 7 17 1 20 -8 4z"/>
<path d="M4170 2112 c1 -16 40 -53 50 -47 16 10 12 19 -20 37 -17 9 -30 14
-30 10z"/>
<path d="M3636 2043 c-4 -10 -10 -49 -13 -88 -5 -75 -54 -195 -93 -230 -11
-10 -20 -25 -20 -34 0 -9 -18 -38 -39 -64 -22 -26 -42 -61 -46 -77 -8 -38 -20
-45 -45 -27 l-20 14 20 18 c11 10 19 23 18 29 -2 11 19 56 31 66 6 5 31 71 31
82 0 3 -9 4 -20 1 -11 -3 -20 -9 -20 -13 0 -5 -6 -15 -12 -22 -19 -21 -38 -56
-38 -71 0 -16 -44 -60 -52 -52 -9 10 -70 -21 -108 -54 -32 -27 -34 -32 -22
-52 12 -18 11 -24 -9 -45 -25 -26 -48 -31 -67 -12 -9 9 -12 9 -12 0 0 -7 -11
-12 -25 -12 -21 0 -25 5 -26 33 -1 30 -2 29 -9 -10 -5 -23 -16 -55 -24 -71
-13 -24 -13 -32 -2 -47 7 -10 22 -19 34 -20 11 0 27 -7 36 -14 10 -8 27 -11
43 -7 16 3 37 8 48 10 45 7 205 145 205 176 0 9 13 31 30 50 16 19 29 42 30
51 0 9 17 36 39 60 21 24 42 55 46 69 4 14 18 36 30 50 13 14 29 36 35 50 6
14 20 41 31 60 14 25 19 55 19 106 0 41 5 75 12 82 9 9 9 15 1 23 -7 7 -12 5
-17 -8z"/>
<path d="M2650 2020 c-8 -5 -11 -12 -7 -16 4 -4 15 0 24 9 18 18 8 23 -17 7z"/>
<path d="M3488 1852 c-43 -26 -36 -67 9 -56 15 4 20 14 21 40 1 19 0 34 -1 33
-1 0 -14 -8 -29 -17z"/>
<path d="M3121 1484 c-11 -15 -18 -30 -15 -35 7 -12 54 31 54 49 0 20 -17 14
-39 -14z"/>
</g>
</svg>
