<?xml version="1.0" standalone="no"?>
<!DOCTYPE svg PUBLIC "-//W3C//DTD SVG 20010904//EN"
 "http://www.w3.org/TR/2001/REC-SVG-20010904/DTD/svg10.dtd">
<svg version="1.0" xmlns="http://www.w3.org/2000/svg"
 width="800.000000pt" height="600.000000pt" viewBox="0 0 800.000000 600.000000"
 preserveAspectRatio="xMidYMid meet">

<g transform="translate(0.000000,600.000000) scale(0.100000,-0.100000)"
fill="#000000" stroke="none">
<path d="M3720 5219 c0 -6 5 -19 11 -31 11 -20 11 -20 26 2 13 19 13 24 2 31
-19 12 -39 11 -39 -2z"/>
<path d="M3890 5192 c0 -10 -7 -28 -16 -40 -20 -29 -12 -28 43 5 45 26 45 26
22 39 -33 18 -49 17 -49 -4z"/>
<path d="M3626 5183 c-3 -6 2 -17 10 -24 12 -10 20 -8 41 14 l26 26 -36 -2
c-20 -1 -39 -7 -41 -14z"/>
<path d="M3550 5160 c0 -6 -19 -19 -42 -29 -24 -10 -62 -37 -84 -60 l-42 -41
50 0 c37 0 57 6 82 25 28 21 43 25 107 25 87 0 145 14 153 37 6 14 -2 15 -68
10 -58 -4 -78 -2 -87 9 -6 8 -20 14 -30 14 -11 0 -19 5 -19 10 0 6 -4 10 -10
10 -5 0 -10 -5 -10 -10z"/>
<path d="M4002 5130 c-8 -13 -9 -20 -1 -20 19 0 50 21 44 31 -10 15 -29 10
-43 -11z"/>
<path d="M4090 5111 c0 -6 4 -13 10 -16 5 -3 -2 -17 -18 -31 l-27 -25 28 5
c35 8 36 -12 2 -71 -30 -49 -37 -48 -94 11 -19 20 -43 36 -53 36 -11 0 -35 8
-56 18 -48 24 -179 23 -236 -2 -29 -12 -41 -13 -47 -5 -4 7 -15 9 -25 6 -51
-16 -159 -59 -204 -82 -27 -14 -58 -25 -69 -25 -18 0 -19 3 -11 26 13 33 13
34 -4 28 -18 -7 -85 27 -110 55 -22 25 -49 27 -66 6 -11 -13 -8 -15 19 -15 27
0 36 -7 65 -52 18 -29 43 -72 55 -96 12 -23 26 -40 32 -36 13 8 49 -25 49 -45
0 -9 -10 -32 -21 -51 -14 -22 -17 -36 -10 -38 6 -2 11 -10 11 -19 0 -9 6 -12
18 -9 9 3 29 8 44 11 14 4 36 18 49 31 16 17 26 21 34 14 9 -7 16 -6 25 5 14
17 60 21 60 5 0 -5 -5 -10 -11 -10 -6 0 -40 -28 -75 -62 -43 -41 -64 -69 -64
-85 0 -41 26 -37 85 11 31 25 62 46 68 46 8 0 7 -4 -1 -12 -7 -7 -12 -16 -12
-20 0 -13 63 -8 90 7 32 18 40 18 40 1 0 -24 -26 -36 -100 -45 -65 -8 -77 -14
-111 -47 -21 -20 -36 -41 -33 -46 12 -20 74 -7 107 22 35 30 61 38 72 21 9
-16 64 9 71 32 l7 21 18 -23 c11 -13 19 -36 19 -53 0 -33 21 -78 45 -98 10 -8
44 -15 82 -16 35 -1 67 -4 69 -7 3 -2 -1 -16 -7 -31 -11 -23 -9 -29 9 -49 12
-13 22 -36 22 -53 0 -51 8 -55 91 -45 41 6 82 13 92 17 12 4 17 1 17 -13 0
-22 -45 -69 -53 -56 -3 5 -32 8 -64 7 -81 -1 -114 -25 -137 -97 -3 -10 -10
-16 -16 -12 -12 7 -2 62 16 92 8 12 10 24 6 27 -13 8 -52 -23 -52 -41 0 -8
-13 -27 -29 -42 -23 -21 -31 -40 -36 -83 -7 -52 -5 -57 17 -72 36 -24 91 -138
96 -202 5 -63 25 -74 22 -11 -6 98 -1 127 20 127 13 0 18 5 14 15 -4 8 -1 21
5 29 9 11 8 24 -5 55 -9 22 -14 45 -12 51 2 7 28 21 58 33 46 19 57 28 66 57
6 19 19 36 28 38 45 9 -19 -103 -65 -116 -40 -10 -41 -26 -2 -30 43 -4 96 23
88 47 -3 11 3 25 15 36 17 16 20 26 15 57 -8 45 10 52 26 11 18 -46 4 -131
-25 -162 -15 -16 -26 -39 -26 -54 0 -19 -7 -31 -24 -38 -14 -7 -22 -17 -19
-25 3 -9 -3 -14 -18 -14 -23 -1 -59 -21 -59 -34 0 -3 20 -35 45 -72 25 -36 45
-67 45 -69 0 -2 -8 -6 -17 -8 -15 -4 -15 -6 5 -12 20 -7 22 -12 18 -62 -3 -30
-9 -60 -15 -66 -18 -22 -139 -82 -148 -73 -4 5 -2 11 6 14 39 14 68 72 36 72
-8 0 -15 4 -15 9 0 13 55 51 73 51 22 0 32 20 16 30 -13 9 -20 4 -125 -88 -23
-20 -40 -41 -37 -48 2 -7 -1 -15 -7 -19 -6 -4 -8 -15 -5 -26 5 -14 2 -19 -14
-19 -11 0 -23 -5 -27 -12 -5 -8 7 -9 47 -5 30 4 64 7 76 7 13 0 40 16 62 35
45 41 55 44 47 12 -7 -31 57 -98 70 -74 5 8 20 17 34 19 23 3 25 7 25 63 1 33
4 66 9 73 13 21 53 13 76 -15 17 -21 25 -25 37 -17 22 14 28 27 47 109 18 79
21 175 6 175 -16 0 -120 -110 -120 -126 0 -16 -12 -18 -26 -5 -5 5 -27 11 -49
13 -36 3 -40 6 -43 31 -3 25 -1 28 18 22 14 -4 28 -1 40 10 11 10 31 15 51 13
28 -3 35 2 51 29 19 32 19 32 -2 61 l-21 28 26 50 c23 45 26 62 28 176 2 120
1 127 -21 151 -22 23 -25 24 -42 9 -13 -10 -16 -20 -10 -31 4 -9 8 -27 9 -41
0 -14 3 -63 7 -110 5 -71 3 -99 -16 -168 -19 -70 -27 -86 -49 -95 -14 -6 -30
-17 -34 -24 -10 -17 -28 -7 -21 11 3 7 -2 19 -11 26 -19 16 -19 30 0 30 9 0
20 12 25 26 6 15 20 40 32 56 18 26 20 39 15 104 -6 62 -4 75 10 83 13 7 14
13 6 23 -5 7 -13 31 -17 53 -3 22 -9 49 -12 61 -4 15 1 23 21 32 20 9 25 17
20 30 -17 40 -17 52 -1 52 21 0 93 -66 112 -103 13 -25 22 -121 13 -152 -1 -5
-4 -28 -5 -50 -1 -22 -3 -47 -4 -55 -3 -32 13 -155 21 -161 5 -3 25 -3 44 -1
29 3 35 8 30 22 -4 12 0 20 13 24 16 5 18 14 14 67 -4 59 -4 61 17 54 27 -8
27 6 0 31 -19 17 -49 65 -49 79 0 10 31 5 63 -11 l32 -17 -24 27 c-14 14 -32
25 -40 24 -13 -2 -17 10 -21 58 -3 34 -12 69 -20 79 -8 9 -47 39 -87 66 -40
28 -73 55 -73 62 0 7 -9 18 -20 25 -11 6 -17 18 -14 26 3 8 -3 24 -13 35 -13
16 -29 21 -68 21 -72 0 -86 -12 -52 -44 23 -21 27 -34 29 -86 1 -33 2 -68 2
-77 1 -11 -13 -22 -37 -32 -33 -12 -40 -12 -48 0 -8 11 -17 6 -44 -26 l-35
-40 0 62 c0 94 16 116 55 73 27 -29 40 -24 20 8 -36 57 -67 81 -118 92 -36 7
-53 7 -63 -1 -20 -17 -83 8 -97 38 -9 21 -8 27 8 39 28 20 47 17 96 -15 33
-23 51 -28 74 -24 43 8 51 19 32 41 -22 24 -21 32 3 32 11 0 20 4 20 9 0 21
-106 112 -159 137 -31 14 -67 31 -80 38 -13 6 -26 19 -29 29 -6 23 -20 22 -84
-8 -29 -14 -59 -25 -65 -25 -22 0 -14 16 13 29 23 10 26 16 20 43 l-6 31 85
-7 c56 -5 91 -3 106 4 27 15 34 7 18 -18 -22 -35 2 -70 52 -78 23 -4 50 -15
60 -25 10 -10 24 -16 32 -13 7 2 32 -2 55 -10 34 -12 42 -13 42 -2 0 8 -7 19
-16 26 -46 39 -41 59 53 179 71 90 110 114 176 108 57 -5 82 -25 113 -92 43
-91 27 -192 -38 -245 -20 -16 -20 -17 -2 -35 19 -18 19 -18 22 11 2 16 12 38
23 50 89 96 12 334 -109 334 -21 0 -47 7 -60 15 -19 14 -24 14 -46 0 -20 -13
-24 -14 -29 -2 -3 8 0 20 6 26 8 8 6 16 -8 31 -19 21 -35 26 -35 11z"/>
<path d="M3031 4914 c0 -11 3 -14 6 -6 3 7 2 16 -1 19 -3 4 -6 -2 -5 -13z"/>
<path d="M3120 4922 c0 -4 10 -12 23 -17 27 -12 37 -55 12 -55 -13 0 -16 -6
-11 -25 4 -16 2 -25 -6 -25 -6 0 -2 -10 10 -23 29 -30 28 -40 -3 -35 -17 4
-25 1 -25 -8 0 -8 -7 -11 -17 -8 -13 4 -11 0 5 -12 12 -9 22 -20 22 -25 0 -20
-33 -7 -62 24 -20 21 -26 25 -19 11 10 -21 60 -68 79 -76 17 -6 1 -66 -19 -71
-10 -3 -23 -16 -28 -29 -5 -13 -16 -30 -25 -37 -9 -7 -16 -20 -16 -27 0 -20
-50 -121 -66 -135 -12 -10 -12 -14 -2 -20 9 -6 5 -14 -15 -29 -32 -25 -36 -46
-6 -30 11 7 23 9 26 7 8 -9 -17 -48 -28 -42 -5 4 -14 -6 -19 -22 -6 -15 -18
-41 -27 -58 l-16 -30 21 19 c12 11 24 17 26 15 7 -7 -15 -144 -24 -153 -6 -6
-2 -14 8 -22 16 -11 15 -14 -7 -38 -20 -21 -21 -26 -8 -26 9 0 17 -7 17 -15 0
-8 9 -15 20 -15 25 0 26 -24 2 -58 -34 -50 -34 -57 2 -19 27 31 43 39 70 40
23 1 38 7 41 16 8 28 -2 156 -14 178 -14 27 -14 61 0 102 19 54 29 34 29 -58
0 -50 5 -93 10 -96 6 -3 10 -17 10 -31 0 -14 12 -45 26 -69 24 -41 25 -47 12
-80 -11 -33 -11 -38 5 -46 20 -12 23 -29 4 -29 -19 0 -43 30 -51 63 -8 33 -29
31 -36 -4 -3 -13 -16 -44 -29 -69 -16 -29 -18 -40 -8 -32 13 11 17 10 27 -9 7
-12 13 -33 15 -47 3 -24 25 -50 75 -85 17 -12 19 -19 11 -41 -11 -28 -1 -35
19 -11 33 39 92 1 96 -63 1 -20 2 -41 3 -47 1 -6 36 -10 85 -10 88 0 104 9 37
20 -56 9 -56 8 -77 139 -6 31 -4 38 7 34 18 -7 69 29 69 48 0 21 -18 17 -44
-11 -29 -32 -32 -31 -44 4 -11 32 0 51 31 51 10 0 16 4 13 9 -3 5 4 21 16 36
l21 27 -24 -7 c-13 -3 -32 -9 -41 -11 -20 -6 -24 6 -7 23 7 7 9 19 5 28 -5 13
-10 14 -27 5 -18 -10 -25 -7 -54 22 -18 18 -43 60 -56 93 -19 51 -22 76 -20
170 2 74 8 119 18 139 9 18 13 42 10 63 -4 25 -3 33 6 29 7 -3 20 -9 29 -12
15 -5 15 -10 3 -43 -7 -20 -16 -55 -20 -79 -6 -35 -4 -42 9 -42 17 0 22 -15 7
-25 -5 -3 -13 -30 -16 -60 -7 -50 -5 -59 20 -95 27 -39 29 -40 86 -40 33 0 59
2 59 4 0 1 -22 17 -49 34 -27 17 -56 43 -63 59 -17 34 -12 136 5 130 16 -5 41
-57 41 -87 1 -25 2 -25 96 -47 40 -9 50 -23 50 -65 0 -22 4 -48 10 -58 5 -10
12 -44 15 -76 9 -82 14 -104 25 -104 6 0 8 11 4 24 -4 16 3 40 20 72 14 27 26
63 26 81 0 39 30 63 77 63 27 0 35 5 44 27 8 21 5 36 -17 81 -15 30 -35 57
-46 60 -10 2 -30 24 -44 47 -23 41 -24 46 -11 77 16 37 67 88 112 111 17 9 24
16 17 17 -7 0 -35 -11 -63 -25 -41 -21 -50 -23 -55 -11 -10 27 -32 5 -44 -45
-8 -34 -9 -53 -2 -62 13 -16 27 -157 16 -157 -9 0 -47 76 -48 97 -1 7 -7 18
-14 25 -18 18 -15 67 8 133 11 32 20 66 20 77 0 11 7 18 20 18 12 0 33 12 48
28 l27 27 -24 3 c-13 2 -36 -6 -52 -17 -15 -12 -43 -21 -62 -21 -39 0 -57 -15
-57 -49 0 -19 3 -22 12 -13 30 30 53 -11 38 -68 -12 -44 -16 -46 -44 -25 -11
8 -30 15 -42 15 -13 0 -27 8 -33 18 -8 14 -13 15 -30 5 -12 -7 -23 -13 -26
-13 -11 0 -4 38 9 49 17 15 25 52 15 77 -6 15 2 27 33 54 36 33 39 37 29 64
-8 19 -16 26 -26 22 -22 -8 -18 3 8 24 25 21 20 25 -43 34 -94 14 -117 24 -91
40 5 3 16 28 25 56 16 50 16 50 -14 123 -17 39 -38 78 -47 85 -19 13 -43 16
-43 4z"/>
<path d="M4154 4906 c-34 -15 -44 -33 -44 -75 0 -15 -6 -33 -12 -39 -10 -10
-10 -17 0 -32 6 -11 12 -39 13 -62 0 -24 3 -37 6 -30 3 8 30 12 84 12 46 0 79
4 79 10 0 6 9 10 20 10 28 0 36 41 15 77 -15 25 -14 16 1 -22 5 -13 -6 -15
-70 -15 -42 0 -76 4 -76 9 0 11 25 21 51 21 19 0 19 2 5 22 -20 28 -20 38 -1
38 19 0 19 14 0 30 -9 7 -14 22 -13 34 4 26 -17 30 -58 12z"/>
<path d="M3022 4870 c0 -14 2 -19 5 -12 2 6 2 18 0 25 -3 6 -5 1 -5 -13z"/>
<path d="M4299 4848 c4 -28 6 -29 9 -9 2 13 0 27 -5 32 -6 6 -7 -3 -4 -23z"/>
<path d="M3022 4810 c0 -14 2 -19 5 -12 2 6 2 18 0 25 -3 6 -5 1 -5 -13z"/>
<path d="M4430 4769 c0 -23 36 -126 54 -151 23 -32 20 -4 -4 42 -11 22 -20 50
-20 63 0 27 -29 73 -30 46z"/>
<path d="M4010 4625 c0 -14 7 -37 16 -50 14 -22 24 -25 76 -25 57 0 59 1 52
23 -9 29 -7 28 -53 34 -22 3 -48 14 -57 24 -23 26 -34 24 -34 -6z"/>
<path d="M4145 4640 c-15 -24 47 -80 89 -80 18 0 49 41 38 51 -5 6 -107 39
-118 39 -2 0 -6 -4 -9 -10z"/>
<path d="M4403 4598 c30 -53 46 -100 62 -192 13 -68 13 -69 14 -23 1 26 6 47
11 47 14 0 12 66 -2 115 -10 32 -13 36 -16 18 -5 -35 -18 -28 -48 27 -15 28
-31 50 -37 50 -5 0 2 -19 16 -42z"/>
<path d="M3666 4485 c-4 -16 -19 -30 -40 -39 -30 -12 -56 -41 -56 -60 0 -12
68 -6 77 7 8 10 43 102 43 114 0 2 -4 3 -9 3 -5 0 -12 -11 -15 -25z"/>
<path d="M4322 4478 c-21 -32 -21 -33 -3 -41 10 -5 24 -23 32 -40 15 -32 43
-56 55 -45 6 7 -41 133 -56 151 -4 5 -17 -7 -28 -25z"/>
<path d="M4521 4496 c-2 -16 22 -91 33 -105 6 -8 14 -71 17 -140 l5 -126 2
122 c2 102 -1 130 -17 165 -11 24 -24 54 -29 68 -6 14 -11 21 -11 16z"/>
<path d="M3696 4403 c9 -62 14 -83 22 -82 4 1 18 -2 31 -6 25 -8 25 -10 5
-118 -6 -32 -4 -37 10 -31 19 7 19 4 6 -31 -7 -19 -7 -24 1 -19 16 9 41 73 34
84 -9 14 9 12 22 -1 22 -22 43 -2 43 39 0 26 -10 53 -31 86 -36 54 -47 55 -25
1 18 -43 21 -75 6 -75 -5 0 -10 4 -10 10 0 5 -7 7 -16 3 -14 -5 -16 -2 -10 22
6 22 1 35 -24 66 -16 21 -34 49 -40 63 -14 39 -29 31 -24 -11z"/>
<path d="M4514 4375 c4 -11 12 -42 17 -69 10 -55 19 -72 19 -35 -1 38 -17 100
-31 113 -9 8 -10 6 -5 -9z"/>
<path d="M3630 4248 c0 -24 3 -53 6 -65 12 -43 19 -23 16 42 -4 72 -22 90 -22
23z"/>
<path d="M3712 4255 c0 -16 2 -22 5 -12 2 9 2 23 0 30 -3 6 -5 -1 -5 -18z"/>
<path d="M3580 4238 c0 -16 47 -118 54 -118 3 0 -4 19 -14 43 -11 23 -20 50
-20 59 0 9 -4 20 -10 23 -5 3 -10 0 -10 -7z"/>
<path d="M4570 4060 c6 -11 13 -20 16 -20 2 0 0 9 -6 20 -6 11 -13 20 -16 20
-2 0 0 -9 6 -20z"/>
<path d="M4580 3974 c0 -22 -3 -24 -22 -19 -18 5 -16 2 7 -13 30 -19 30 -19
37 2 11 36 9 56 -7 56 -9 0 -15 -10 -15 -26z"/>
<path d="M4044 3935 c11 -8 25 -15 30 -15 6 0 2 7 -8 15 -11 8 -25 15 -30 15
-6 0 -2 -7 8 -15z"/>
<path d="M4544 3896 c16 -13 26 -28 22 -34 -3 -6 -2 -13 4 -17 5 -3 10 -2 10
4 0 5 2 16 5 23 4 9 -8 20 -32 31 l-38 17 29 -24z"/>
<path d="M3258 3873 c-29 -4 -36 -17 -18 -28 11 -7 79 12 95 26 9 9 -25 10
-77 2z"/>
<path d="M4155 3850 c-3 -5 -1 -10 4 -10 6 0 11 5 11 10 0 6 -2 10 -4 10 -3 0
-8 -4 -11 -10z"/>
<path d="M3289 3824 c-11 -14 -10 -15 11 -12 13 1 25 9 28 16 5 17 -23 15 -39
-4z"/>
<path d="M3371 3817 c-6 -6 -19 -12 -29 -12 -24 0 -21 -29 4 -33 14 -2 24 5
33 24 13 30 10 39 -8 21z"/>
<path d="M4532 3808 c5 -15 28 -23 28 -10 0 5 -7 13 -16 16 -10 4 -14 1 -12
-6z"/>
<path d="M4532 3742 c19 -24 24 -26 30 -13 10 23 9 33 -1 26 -5 -3 -12 -1 -16
5 -3 5 -13 10 -21 10 -12 0 -10 -7 8 -28z"/>
<path d="M2946 3713 c-9 -18 -12 -33 -7 -33 13 0 33 38 28 53 -2 7 -11 -3 -21
-20z"/>
<path d="M4464 3637 c6 -30 3 -46 -13 -73 -11 -18 -25 -51 -31 -73 -6 -22 -27
-64 -46 -93 -20 -29 -47 -74 -60 -99 -18 -36 -30 -48 -53 -52 -23 -5 -31 -12
-31 -27 0 -13 -10 -24 -27 -31 -59 -21 -97 -45 -126 -81 -16 -21 -34 -35 -38
-32 -5 3 -9 -1 -9 -9 0 -27 -37 -61 -86 -77 -27 -10 -56 -20 -65 -24 -13 -5
-20 0 -27 21 -8 21 -11 23 -11 8 -1 -10 -15 -34 -33 -52 -25 -26 -29 -36 -20
-45 15 -15 16 -53 2 -79 -19 -34 7 -21 44 23 20 23 36 45 36 50 0 5 11 6 25 2
42 -10 158 57 250 146 44 42 99 87 123 99 23 12 42 28 42 36 0 22 68 155 96
188 27 32 84 205 84 253 0 17 -7 38 -17 45 -15 13 -15 11 -9 -24z"/>
<path d="M4526 3507 c-10 -79 -23 -175 -30 -215 -7 -40 -9 -72 -4 -72 14 0 37
104 49 220 6 63 13 136 16 163 3 26 1 47 -4 47 -5 0 -17 -64 -27 -143z"/>
<path d="M3380 3580 c0 -5 5 -10 10 -10 6 0 10 5 10 10 0 6 -4 10 -10 10 -5 0
-10 -4 -10 -10z"/>
<path d="M3842 3572 c-11 -19 -19 -22 -45 -17 -24 5 -38 1 -57 -15 -17 -14
-35 -20 -62 -18 -21 1 -38 5 -38 8 0 14 -62 41 -81 35 -11 -4 -27 -1 -35 6 -8
6 -18 9 -22 5 -4 -4 35 -48 86 -97 58 -56 92 -96 90 -107 -2 -11 -19 -19 -48
-25 -25 -5 -53 -16 -63 -25 -17 -15 -18 -14 -24 6 -5 20 -12 22 -77 23 -90 2
-95 1 -122 -19 -29 -21 -29 -41 0 -117 18 -48 30 -63 57 -77 19 -9 42 -15 52
-12 11 4 17 0 17 -10 0 -9 9 -16 20 -16 11 0 38 -16 60 -36 41 -37 47 -35 30
11 -10 27 -72 61 -90 50 -6 -4 -10 -2 -10 4 0 6 9 15 19 21 11 5 21 22 23 37
2 22 9 29 32 31 25 3 28 1 23 -17 -7 -30 9 -35 27 -10 13 20 20 21 78 15 35
-4 73 -14 86 -22 22 -15 23 -15 12 5 -9 18 -7 23 15 31 37 14 39 13 63 -20 13
-16 30 -30 38 -30 8 0 46 28 84 62 l69 61 -24 29 c-14 16 -25 34 -25 40 0 6
-7 8 -15 4 -27 -10 -16 10 13 24 15 7 22 15 15 17 -6 2 -25 -3 -42 -11 -16 -9
-52 -17 -78 -17 -44 -2 -45 -2 -14 -8 19 -3 37 -12 39 -20 4 -11 -5 -13 -47
-8 -49 6 -52 5 -62 -20 -9 -24 -10 -25 -29 -8 -10 9 -34 24 -52 33 -53 27 -49
53 19 105 80 62 116 102 111 124 -3 16 -5 16 -16 -5z"/>
<path d="M2976 3478 c8 -116 79 -410 116 -479 16 -31 45 -72 65 -90 l36 -34
-26 45 c-14 25 -47 99 -73 165 -64 165 -88 255 -66 255 8 0 143 -245 168 -305
26 -64 172 -195 217 -195 5 0 29 -18 54 -40 44 -39 108 -68 121 -55 4 3 -2 11
-13 18 -30 16 -125 108 -125 121 0 6 -20 20 -45 32 -55 25 -198 177 -239 255
-16 30 -45 71 -64 93 -18 21 -41 55 -49 75 -8 20 -23 54 -33 76 -10 22 -21 64
-25 93 -11 84 -26 61 -19 -30z"/>
<path d="M3352 3548 c5 -13 106 -78 122 -78 5 0 1 9 -9 20 -10 11 -24 20 -31
20 -7 0 -26 11 -42 25 -33 27 -46 32 -40 13z"/>
<path d="M4000 3545 c-18 -21 -3 -32 16 -13 10 9 12 18 6 22 -5 3 -15 -1 -22
-9z"/>
<path d="M3350 3480 c0 -22 82 -63 136 -68 30 -2 54 -2 54 1 0 4 -29 15 -65
26 -35 11 -78 27 -95 36 -16 9 -30 11 -30 5z"/>
<path d="M2930 3428 c0 -204 81 -454 186 -578 58 -68 95 -93 163 -109 58 -13
39 9 -43 48 -80 38 -170 130 -186 189 -6 23 -19 57 -30 75 -39 66 -70 203 -70
308 0 54 -4 101 -10 104 -6 4 -10 -11 -10 -37z"/>
<path d="M4470 3406 c-6 -19 -15 -72 -20 -118 -5 -46 -12 -101 -16 -123 -4
-22 -4 -37 -1 -34 9 7 60 300 54 306 -3 2 -10 -11 -17 -31z"/>
<path d="M4390 3067 c0 -66 -144 -247 -197 -247 -33 0 -123 -30 -123 -41 0 -5
-6 -9 -13 -9 -8 0 -21 -8 -30 -18 -12 -13 -26 -17 -46 -14 -20 3 -40 -3 -60
-17 -16 -12 -36 -18 -44 -15 -21 8 -74 -21 -124 -67 -44 -40 -70 -48 -91 -27
-9 9 -12 9 -12 0 0 -6 8 -16 18 -21 9 -6 13 -11 9 -11 -4 0 -3 -9 4 -21 8 -16
8 -37 -1 -86 -20 -101 -46 -114 -95 -43 -28 40 -83 69 -95 50 -4 -7 -18 -5
-39 6 -18 9 -66 20 -106 25 -167 18 -265 111 -293 278 -7 35 -18 71 -25 80 -8
9 -23 41 -33 71 -10 30 -20 48 -21 39 -2 -8 12 -55 31 -105 18 -49 37 -105 41
-124 7 -37 66 -153 93 -184 18 -20 139 -82 214 -111 49 -18 128 -92 128 -119
0 -39 -11 -46 -71 -46 -33 0 -59 -4 -59 -10 0 -5 6 -10 14 -10 7 0 19 -7 26
-15 7 -9 29 -15 55 -15 29 0 47 -6 60 -20 27 -30 40 -25 54 22 25 82 30 91 45
79 7 -6 20 -9 28 -6 12 5 14 -7 11 -77 -6 -115 -8 -122 -48 -141 -49 -23 -44
-50 10 -57 32 -4 40 -9 40 -25 0 -17 -6 -20 -37 -17 -47 4 -50 -13 -8 -53 24
-23 30 -37 30 -70 0 -28 10 -60 30 -96 34 -62 36 -78 14 -134 l-15 -41 -77 -1
c-105 -1 -163 -11 -192 -33 l-25 -19 33 1 c18 1 35 5 38 10 3 4 15 8 28 8 12
0 27 5 33 11 7 7 36 12 66 12 65 0 97 -23 86 -63 -4 -14 -7 -42 -8 -62 -1 -39
-29 -66 -53 -52 -7 5 -9 -1 -4 -20 10 -40 -9 -31 -38 19 -25 43 -60 75 -80 75
-6 0 8 -19 30 -42 86 -91 92 -119 37 -172 -55 -52 -79 -48 -98 16 -8 28 -24
61 -34 72 -11 12 -27 35 -36 51 l-16 30 6 -42 c6 -35 4 -43 -9 -43 -24 0 -19
-18 13 -48 16 -15 32 -39 36 -53 6 -25 3 -28 -42 -43 -47 -16 -48 -16 -66 6
-10 12 -16 30 -14 40 3 10 1 21 -4 24 -12 7 -11 51 1 59 6 4 20 25 31 47 19
37 20 46 9 82 -6 23 -29 59 -49 81 -61 64 -151 183 -166 218 -9 20 -14 25 -15
14 0 -28 99 -185 162 -257 69 -77 74 -106 28 -162 -28 -34 -30 -40 -21 -80 6
-24 16 -57 23 -74 l13 -31 50 13 c28 8 74 16 104 19 30 3 61 11 69 18 28 23
102 -88 102 -153 0 -23 4 -30 20 -30 22 0 58 -18 75 -36 13 -14 58 -26 110
-29 22 -1 69 -5 105 -9 l65 -7 -27 25 c-16 14 -28 30 -28 36 0 13 -17 13 -25
0 -4 -6 -11 -8 -16 -4 -12 7 -3 56 16 94 14 28 25 171 13 164 -4 -3 -8 -26 -8
-52 0 -54 -20 -116 -57 -179 -29 -50 -50 -64 -81 -56 -30 7 -32 2 31 75 19 23
22 38 8 38 -5 0 -19 -16 -31 -35 -26 -41 -57 -62 -72 -47 -7 7 -5 18 6 33 24
34 19 46 -5 15 -15 -20 -25 -24 -32 -17 -6 6 -22 11 -35 11 -21 0 -23 4 -18
27 4 18 0 40 -13 63 -19 34 -19 35 0 56 26 28 48 133 58 279 7 96 14 131 35
175 14 30 26 63 26 72 0 9 11 29 24 45 24 28 73 135 96 208 7 22 26 52 43 67
16 16 24 28 18 28 -22 0 -56 -52 -91 -137 -40 -98 -68 -124 -56 -52 4 24 7 83
6 130 -1 86 -1 87 30 109 35 25 138 60 176 60 14 0 38 -7 54 -15 17 -9 55 -18
87 -21 31 -3 76 -9 101 -14 49 -9 95 1 123 26 26 24 24 38 -3 20 -28 -20 -92
-21 -107 -2 -7 8 -43 17 -86 21 -42 4 -89 14 -106 22 -24 12 -48 14 -98 9 -58
-5 -74 -3 -111 17 -24 12 -45 27 -47 32 -2 9 40 39 144 102 20 11 61 24 92 27
125 14 241 68 241 111 0 14 -6 12 -30 -8 -36 -31 -54 -35 -198 -46 -109 -9
-114 -10 -156 -45 -53 -43 -83 -46 -96 -10 -26 66 1 114 63 114 28 0 32 3 117
96 49 54 124 92 206 103 80 12 100 29 157 141 19 36 49 91 67 123 30 54 34 87
10 87 -5 0 -10 -10 -10 -23z"/>
<path d="M4471 3017 c-6 -40 -23 -97 -36 -126 -29 -62 -155 -193 -206 -216
-33 -14 -33 -14 -8 -15 41 0 119 38 119 59 0 10 12 28 26 42 47 42 102 138
113 192 17 93 21 137 12 137 -4 0 -14 -33 -20 -73z"/>
<path d="M3560 2663 c0 -5 11 -21 23 -37 18 -22 29 -27 43 -22 17 7 16 10 -14
37 -31 28 -52 37 -52 22z"/>
<path d="M3467 2629 c26 -46 76 -81 109 -77 15 2 29 9 32 15 4 13 -3 17 -50
27 -15 4 -43 20 -62 36 -43 38 -52 38 -29 -1z"/>
<path d="M2991 2605 c0 -77 22 -177 52 -226 14 -24 59 -76 99 -115 59 -58 93
-82 176 -121 81 -39 99 -45 88 -29 -19 30 -87 75 -113 76 -65 1 -224 193 -255
310 -9 36 -24 85 -32 110 l-15 45 0 -50z"/>
<path d="M4406 2523 c-10 -21 -31 -54 -47 -74 -29 -37 -29 -38 -8 -44 27 -9
29 -7 60 80 29 78 25 102 -5 38z"/>
<path d="M3035 2103 c5 -39 14 -55 48 -85 23 -21 51 -40 62 -42 11 -2 51 -11
90 -19 38 -9 73 -13 77 -11 19 12 5 24 -29 24 -86 1 -194 67 -225 136 -10 24
-21 44 -25 44 -3 0 -2 -21 2 -47z"/>
<path d="M4264 1946 c-22 -22 -59 -54 -82 -70 -23 -16 -40 -32 -37 -34 5 -5
95 28 113 42 16 12 65 107 55 105 -5 -1 -26 -20 -49 -43z"/>
<path d="M4205 1568 c-28 -80 -35 -108 -35 -135 0 -44 -25 -66 -64 -59 -107
22 -134 20 -185 -13 -31 -20 -53 -43 -60 -62 -5 -16 -8 -29 -6 -29 2 0 22 19
44 42 36 39 43 43 88 42 127 -1 189 -17 264 -67 27 -18 46 -65 52 -127 4 -33
4 -33 5 6 3 73 -38 139 -100 163 -34 13 -35 37 -9 164 10 48 17 87 14 87 -2 0
-6 -6 -8 -12z"/>
<path d="M3460 1426 c0 -3 11 -17 25 -32 28 -30 34 -21 9 14 -13 19 -34 30
-34 18z"/>
<path d="M3700 1320 c-36 -28 -21 -31 19 -3 19 12 28 23 20 23 -8 0 -25 -9
-39 -20z"/>
<path d="M3793 1233 c-6 -21 -10 -40 -8 -42 7 -6 26 51 23 66 -2 8 -8 -3 -15
-24z"/>
<path d="M4032 1126 c-7 -27 -11 -51 -8 -53 10 -10 27 40 24 70 -3 30 -4 29
-16 -17z"/>
<path d="M4161 1119 c-6 -18 -7 -38 -2 -47 6 -11 11 -4 16 27 9 52 1 63 -14
20z"/>
<path d="M4261 1148 c-1 -4 6 -26 15 -48 16 -41 12 -68 -7 -40 -6 11 -8 2 -7
-29 l3 -45 -63 -1 -62 -1 -11 41 c-15 59 -20 65 -14 19 5 -44 -3 -58 -40 -67
-11 -3 37 -4 107 -3 102 1 131 5 144 18 12 12 14 20 5 36 -6 11 -11 38 -11 58
0 35 -1 36 -14 19 -13 -19 -15 -18 -29 15 -9 19 -16 32 -16 28z"/>
<path d="M4034 985 c-10 -8 -14 -15 -8 -15 6 0 17 7 24 15 16 19 9 19 -16 0z"/>
</g>
</svg>
