<?xml version="1.0" standalone="no"?>
<!DOCTYPE svg PUBLIC "-//W3C//DTD SVG 20010904//EN"
 "http://www.w3.org/TR/2001/REC-SVG-20010904/DTD/svg10.dtd">
<svg version="1.0" xmlns="http://www.w3.org/2000/svg"
 width="800.000000pt" height="600.000000pt" viewBox="0 0 800.000000 600.000000"
 preserveAspectRatio="xMidYMid meet">

<g transform="translate(0.000000,600.000000) scale(0.100000,-0.100000)"
fill="#000000" stroke="none">
<path d="M4622 4463 c3 -14 14 -18 53 -18 45 0 51 -3 73 -35 35 -53 47 -60 23
-15 -37 71 -54 85 -106 85 -39 0 -46 -3 -43 -17z"/>
<path d="M4572 4413 c-18 -32 -15 -51 4 -25 8 12 14 28 11 35 -2 7 -8 3 -15
-10z"/>
<path d="M5272 4394 c-19 -19 -33 -37 -30 -39 7 -7 68 25 68 36 0 22 21 6 37
-28 l17 -38 4 33 c4 37 -8 57 -40 65 -15 4 -31 -4 -56 -29z"/>
<path d="M4648 4383 c-9 -10 -24 -24 -33 -32 -10 -8 -14 -19 -9 -30 10 -23 25
-163 20 -178 -3 -7 -12 -13 -19 -13 -11 0 -14 17 -14 68 0 45 -6 80 -19 107
-14 29 -20 35 -22 22 -2 -10 2 -32 9 -49 11 -26 10 -32 -4 -39 -8 -5 -26 -39
-38 -77 -21 -62 -24 -65 -29 -37 l-6 30 -18 -27 c-24 -36 -15 -60 21 -56 24 3
30 11 45 62 22 73 33 85 23 27 -5 -29 -3 -46 4 -51 12 -7 -4 -64 -30 -113 -15
-27 0 -36 17 -12 8 11 22 29 31 40 10 11 16 28 15 37 -4 21 28 67 46 68 6 0
12 12 12 26 0 23 3 25 28 20 15 -3 34 -2 42 4 13 8 13 11 -1 22 -9 7 -20 27
-24 43 -3 17 -14 38 -23 48 -14 16 -14 19 -2 27 13 8 12 12 -5 24 -17 13 -18
17 -6 25 9 6 22 6 32 0 11 -6 20 -5 24 0 5 10 -24 31 -42 31 -5 0 -16 -8 -25
-17z"/>
<path d="M4748 4309 c4 -29 3 -31 -18 -24 l-22 7 18 -32 c23 -39 41 -47 60
-28 13 13 12 20 -5 61 -23 54 -40 62 -33 16z"/>
<path d="M4829 4324 c-18 -22 0 -38 22 -18 20 18 34 13 34 -14 0 -13 10 -17
40 -18 63 -2 65 -3 65 -20 0 -12 -6 -15 -21 -11 -15 4 -23 0 -26 -13 -3 -11
-13 -22 -23 -25 -25 -8 -44 -32 -31 -39 5 -3 23 5 39 19 33 28 48 31 55 13 3
-10 10 -10 31 2 22 11 31 12 47 2 16 -10 20 -10 25 3 5 13 10 13 37 -1 17 -9
39 -26 50 -38 l18 -21 -6 29 c-5 26 -4 28 9 17 9 -8 16 -24 16 -37 0 -26 17
-41 32 -26 6 6 4 20 -6 40 -19 36 -28 43 -64 48 -50 6 -141 29 -149 37 -4 5 3
17 17 29 l25 20 -32 -6 c-19 -3 -33 -1 -33 4 0 27 -151 47 -171 24z"/>
<path d="M4446 4291 c-3 -4 -19 -11 -35 -14 -15 -3 -45 -21 -65 -40 -30 -29
-36 -41 -36 -75 0 -41 -17 -92 -31 -92 -23 0 -38 115 -18 152 14 25 6 33 -20
18 -16 -8 -21 -20 -21 -52 0 -34 -2 -39 -14 -28 -8 6 -16 21 -18 33 -2 14 -11
23 -25 25 -13 2 -23 1 -23 -1 0 -18 34 -78 50 -90 12 -8 25 -28 29 -43 5 -19
15 -30 30 -32 12 -2 30 -17 40 -33 15 -24 20 -27 25 -14 3 9 6 30 6 45 0 16 5
32 10 35 6 3 10 13 10 21 0 9 16 35 35 58 19 24 35 48 35 54 0 6 19 26 43 46
36 31 39 36 20 36 -12 0 -24 -4 -27 -9z"/>
<path d="M5325 4289 c-4 -6 -5 -13 -2 -16 7 -7 27 6 27 18 0 12 -17 12 -25 -2z"/>
<path d="M5078 4279 c15 -16 101 -39 107 -29 6 10 -35 27 -82 36 -31 5 -36 4
-25 -7z"/>
<path d="M5245 4269 c-4 -6 -4 -13 -1 -16 8 -8 36 5 36 17 0 13 -27 13 -35 -1z"/>
<path d="M4506 4238 c-9 -12 -16 -31 -16 -42 0 -14 7 -9 25 18 14 20 25 39 25
41 0 13 -21 2 -34 -17z"/>
<path d="M5341 4234 c-22 -16 -41 -22 -57 -18 -30 8 -31 -6 -1 -34 26 -25 37
-28 37 -10 0 7 14 27 32 45 39 40 34 48 -11 17z"/>
<path d="M4815 4229 c-11 -17 1 -21 15 -4 8 9 8 15 2 15 -6 0 -14 -5 -17 -11z"/>
<path d="M4850 4220 c-14 -11 -31 -20 -38 -20 -16 0 -102 -84 -102 -99 0 -18
15 -13 40 14 13 14 27 25 31 25 15 0 15 -36 0 -63 -11 -20 -13 -32 -5 -44 21
-33 31 -23 38 33 4 32 12 64 18 71 8 10 6 13 -11 13 -25 0 -28 18 -3 27 42 14
102 46 102 54 0 16 -44 9 -70 -11z"/>
<path d="M4437 4212 c-20 -22 -23 -72 -4 -72 26 0 45 65 26 85 -3 3 -13 -3
-22 -13z"/>
<path d="M5010 4170 c0 -5 -11 -10 -25 -10 -28 0 -75 -20 -75 -32 0 -10 13
-10 43 1 29 11 42 4 53 -29 l8 -25 6 30 c5 29 7 30 53 29 26 -1 59 -5 72 -8
14 -4 25 -2 25 3 0 15 -58 34 -84 27 -15 -4 -28 0 -36 9 -14 17 -40 20 -40 5z"/>
<path d="M4020 4162 c-14 -5 -25 -14 -25 -22 0 -9 -8 -14 -18 -12 -9 2 -17 -2
-17 -8 0 -7 -16 -9 -48 -4 -40 5 -60 1 -121 -25 -82 -35 -81 -34 -81 -22 0 11
93 51 119 51 13 0 21 7 21 16 0 22 -52 10 -113 -26 -26 -16 -53 -27 -60 -25
-6 3 -42 -23 -78 -58 -66 -63 -99 -124 -99 -186 0 -14 -13 -49 -29 -78 -25
-46 -36 -79 -57 -182 -3 -14 -9 -20 -14 -15 -10 10 16 153 31 169 11 11 12 38
0 31 -30 -19 -86 -125 -114 -217 l-32 -104 3 -222 c2 -191 5 -232 23 -290 27
-88 59 -143 109 -186 28 -23 38 -39 34 -51 -9 -24 -16 -21 -63 40 -24 30 -45
53 -48 50 -3 -3 19 -44 50 -91 49 -76 55 -90 50 -123 l-6 -37 21 19 c30 26 62
96 62 134 0 38 15 42 24 7 3 -13 26 -66 51 -117 25 -51 45 -100 45 -110 0 -9
12 -39 26 -67 27 -51 50 -63 82 -43 18 12 -8 81 -53 142 -36 49 -60 121 -35
105 8 -5 11 -3 8 6 -3 8 -13 16 -24 18 -24 4 -30 14 -49 81 -24 82 -47 140
-56 140 -4 0 -12 -12 -18 -27 -9 -23 -10 -15 -6 43 6 90 15 135 26 129 4 -3
15 -31 24 -61 9 -31 18 -54 20 -52 9 9 -18 144 -32 160 -8 9 -13 22 -12 30 3
18 -10 84 -26 133 -19 56 -29 325 -14 359 7 14 16 26 20 26 4 0 9 -35 12 -77
3 -43 12 -115 20 -159 9 -45 18 -126 21 -180 6 -129 32 -250 62 -295 13 -19
24 -39 24 -43 0 -4 9 -19 20 -33 11 -14 22 -41 26 -62 4 -20 16 -52 28 -71 11
-19 26 -44 31 -55 6 -11 18 -21 28 -23 13 -3 17 4 17 32 0 20 5 36 11 36 16 0
3 78 -18 110 -9 13 -17 42 -19 65 -8 125 -24 247 -34 260 -12 16 -29 121 -23
143 9 34 -17 230 -36 275 -10 23 -20 67 -24 98 -3 31 -12 71 -21 87 -38 74
-12 140 97 247 105 103 123 115 172 115 54 0 105 -29 210 -118 113 -97 119
-110 110 -236 -4 -56 -14 -117 -22 -136 -8 -19 -32 -89 -54 -154 -25 -74 -48
-125 -60 -134 -10 -7 -19 -20 -19 -29 0 -9 -18 7 -41 36 -22 28 -46 51 -52 51
-14 0 -93 -83 -118 -123 -22 -37 -25 -77 -5 -77 7 0 27 23 45 51 l32 52 45 -6
c25 -2 55 -13 67 -24 13 -11 33 -17 48 -15 23 3 30 14 57 90 16 48 47 134 68
192 30 85 38 123 42 199 4 83 6 92 18 76 9 -12 14 -49 15 -104 1 -70 3 -80 10
-56 15 45 1 133 -32 201 -32 68 -34 74 -19 74 5 0 19 -17 30 -37 l21 -38 -5
40 c-10 81 -18 105 -36 105 -9 0 -25 10 -36 21 -10 12 -38 35 -61 51 -50 34
-58 56 -12 33 17 -9 33 -14 35 -12 8 8 -35 93 -56 112 -21 19 -83 28 -120 17z"/>
<path d="M4366 4101 c-9 -14 2 -51 15 -51 5 0 12 7 16 16 7 19 -21 51 -31 35z"/>
<path d="M4931 4088 c-12 -12 -23 -30 -27 -40 -7 -25 -22 -23 -26 4 -4 30 -25
34 -33 7 -6 -18 -1 -29 24 -51 45 -40 58 -37 57 14 -1 37 3 44 27 56 15 7 27
17 27 23 0 17 -29 9 -49 -13z"/>
<path d="M5130 4101 c0 -5 14 -17 32 -25 37 -19 38 -19 38 -6 0 5 -13 16 -30
25 -34 17 -40 18 -40 6z"/>
<path d="M5056 4092 c-3 -6 1 -15 8 -21 8 -7 17 -8 20 -3 3 6 -1 15 -8 21 -8
7 -17 8 -20 3z"/>
<path d="M5284 4068 c58 -80 67 -98 63 -120 l-4 -23 -8 23 c-4 12 -11 22 -16
22 -5 0 -21 26 -35 58 -17 36 -28 51 -32 42 -3 -8 -11 -21 -19 -28 -22 -23
-26 -60 -9 -87 9 -13 16 -31 16 -40 0 -20 10 -19 26 3 19 24 17 32 -5 32 -25
0 -37 18 -22 33 6 6 11 22 11 36 0 24 1 24 15 5 8 -10 15 -26 15 -35 0 -9 11
-28 25 -43 31 -33 31 -36 1 -36 -15 0 -27 -7 -31 -19 -3 -11 -17 -26 -30 -35
-30 -20 -33 -40 -5 -33 11 3 27 -1 34 -9 20 -19 25 -18 50 13 29 38 46 89 46
146 0 48 7 56 28 35 20 -20 14 8 -8 33 -15 19 -21 21 -29 10 -10 -15 -38 -4
-61 23 -20 25 -34 19 -16 -6z"/>
<path d="M4427 4073 c-10 -17 -18 -84 -11 -94 8 -13 34 43 34 72 0 19 -16 34
-23 22z"/>
<path d="M4646 4045 c-18 -23 -29 -52 -33 -87 -3 -33 -15 -68 -31 -91 -23 -35
-24 -40 -12 -77 7 -21 10 -52 7 -68 -8 -41 2 -72 24 -72 10 0 21 -4 24 -10 10
-16 85 -12 85 4 0 8 -5 18 -10 21 -6 4 1 21 17 42 l27 35 23 -27 c22 -25 53
-29 53 -5 0 11 -73 60 -89 60 -19 0 -32 41 -25 73 3 18 15 45 26 60 15 21 17
31 9 41 -7 8 -9 25 -5 41 5 21 4 27 -7 23 -23 -7 -50 -125 -46 -193 4 -63 -7
-105 -29 -105 -16 0 -28 42 -21 71 3 12 1 30 -6 40 -9 14 -8 22 5 36 11 11 14
24 9 32 -8 12 21 111 47 157 11 20 7 34 -8 34 -4 0 -20 -16 -34 -35z"/>
<path d="M4997 4047 c-8 -22 -9 -73 -1 -104 5 -19 13 -23 43 -23 23 0 31 3 23
9 -8 4 -13 17 -12 27 1 11 2 39 1 64 l-1 45 -19 -24 -19 -25 -4 25 c-3 21 -4
22 -11 6z"/>
<path d="M3870 4031 c-32 -17 -54 -41 -140 -155 -35 -46 -39 -94 -12 -146 29
-53 43 -47 21 10 -10 27 -19 57 -19 64 0 17 90 155 114 175 30 25 26 6 -9 -44
-43 -63 -60 -126 -51 -189 10 -65 23 -47 28 39 4 58 11 80 40 128 54 86 56 88
102 85 30 -2 42 -8 44 -21 3 -16 1 -17 -18 -7 -25 13 -75 -2 -84 -26 -7 -18
-1 -18 30 2 39 26 40 8 2 -28 -49 -46 -79 -111 -85 -182 -5 -57 -4 -60 11 -41
20 26 21 5 1 -42 -16 -37 -18 -121 -5 -163 8 -25 8 -25 10 5 10 122 13 135 29
135 17 0 24 -115 8 -146 -17 -33 -34 -144 -20 -129 5 6 24 43 42 83 36 79 36
99 9 243 -12 66 0 99 36 99 23 0 45 -19 64 -55 18 -37 41 -125 32 -125 -5 0
-17 26 -26 58 -20 69 -29 82 -60 82 -26 0 -32 -14 -11 -27 26 -15 45 -58 51
-113 4 -31 18 -75 31 -99 16 -28 25 -59 25 -88 0 -27 4 -42 10 -38 13 8 13 86
0 121 -9 22 -8 29 4 36 24 13 39 47 28 61 -12 15 -33 132 -38 210 -2 32 -9 67
-15 78 -14 28 -1 39 17 14 18 -25 33 -81 43 -159 8 -61 8 -61 15 -23 16 73
-12 180 -61 234 -18 21 -33 41 -33 44 0 9 -96 59 -111 59 -8 -1 -30 -9 -49
-19z"/>
<path d="M4947 4044 c-4 -4 -7 -19 -7 -33 l0 -25 16 23 c15 21 7 51 -9 35z"/>
<path d="M5130 4039 c0 -6 5 -20 11 -31 9 -16 8 -19 -3 -16 -7 3 -19 15 -25
29 -10 19 -13 20 -13 6 0 -18 38 -77 51 -77 3 0 7 20 7 44 1 30 -3 46 -13 50
-8 3 -15 1 -15 -5z"/>
<path d="M5180 4041 c0 -6 4 -13 10 -16 6 -3 7 1 4 9 -7 18 -14 21 -14 7z"/>
<path d="M4467 4023 c-11 -10 -8 -51 3 -58 6 -3 10 0 10 7 0 7 3 23 6 36 6 21
-5 30 -19 15z"/>
<path d="M4261 4005 c0 -11 4 -29 9 -40 l9 -20 0 20 c0 11 -4 29 -9 40 l-9 20
0 -20z"/>
<path d="M4774 3967 l-27 -24 53 -6 c30 -4 55 -5 58 -3 3 4 -46 56 -53 56 -2
0 -16 -11 -31 -23z"/>
<path d="M5080 3974 c0 -12 7 -24 15 -28 19 -7 19 5 0 30 -14 19 -14 19 -15
-2z"/>
<path d="M4894 3945 c25 -19 37 -19 30 0 -4 8 -16 15 -28 15 -21 -1 -21 -1 -2
-15z"/>
<path d="M4426 3935 c-11 -29 -7 -77 6 -73 21 7 32 58 16 75 -14 13 -16 13
-22 -2z"/>
<path d="M5400 3923 c0 -12 -3 -28 -6 -37 -3 -9 -2 -16 4 -16 15 0 25 51 13
63 -8 8 -11 5 -11 -10z"/>
<path d="M4500 3912 c-13 -10 -21 -24 -19 -31 3 -9 12 -6 32 9 27 21 35 40 18
40 -5 0 -19 -8 -31 -18z"/>
<path d="M5140 3921 c0 -5 5 -13 10 -16 6 -3 10 -2 10 4 0 5 -4 13 -10 16 -5
3 -10 2 -10 -4z"/>
<path d="M4917 3902 c-20 -22 -13 -32 20 -32 26 0 29 -16 8 -44 -8 -11 -15
-33 -15 -49 0 -15 -5 -37 -10 -48 -6 -10 -7 -19 -2 -19 18 0 42 37 42 65 0 16
7 36 16 46 14 16 14 21 -8 58 -26 47 -29 48 -51 23z"/>
<path d="M4334 3869 c9 -54 25 -84 38 -71 6 6 4 20 -6 40 -9 17 -16 40 -16 52
0 11 -5 20 -11 20 -8 0 -9 -13 -5 -41z"/>
<path d="M4774 3897 c-18 -49 32 -119 73 -102 17 8 17 8 -2 13 -34 7 -46 23
-40 52 7 32 -20 64 -31 37z"/>
<path d="M5170 3875 c-16 -19 -3 -75 17 -75 12 0 14 7 10 29 -3 15 -1 33 4 38
7 7 5 12 -5 16 -8 3 -20 0 -26 -8z"/>
<path d="M4850 3856 c0 -21 39 -41 52 -28 7 7 0 16 -21 26 -27 14 -31 15 -31
2z"/>
<path d="M4762 3789 c2 -7 10 -15 17 -17 8 -3 12 1 9 9 -2 7 -10 15 -17 17 -8
3 -12 -1 -9 -9z"/>
<path d="M4986 3774 c-9 -22 3 -32 14 -14 12 19 12 30 1 30 -5 0 -12 -7 -15
-16z"/>
<path d="M5210 3773 c1 -10 12 -31 25 -48 l24 -29 28 20 c39 29 36 48 -7 52
-19 2 -39 8 -44 13 -15 14 -26 11 -26 -8z"/>
<path d="M4370 3753 c0 -42 27 -112 63 -165 36 -53 44 -57 78 -28 20 16 21 19
7 20 -9 0 -20 -4 -23 -10 -14 -23 -35 -9 -35 23 0 17 -9 43 -20 57 -11 14 -20
29 -20 35 0 18 -35 95 -42 95 -5 0 -8 -12 -8 -27z"/>
<path d="M4460 3759 c-6 -11 -10 -25 -8 -31 5 -14 38 19 38 38 0 21 -18 17
-30 -7z"/>
<path d="M4860 3769 c0 -7 -10 -9 -25 -5 -27 7 -35 -11 -9 -21 8 -3 13 -12 10
-19 -7 -17 6 -18 22 -2 23 23 13 -10 -12 -39 -22 -25 -27 -26 -45 -15 -27 16
-31 15 -31 -3 0 -9 11 -21 25 -27 22 -10 29 -8 51 13 37 34 56 75 48 104 -6
24 -34 36 -34 14z"/>
<path d="M5143 3773 c-15 -6 -17 -33 -3 -33 5 0 14 9 20 20 11 20 6 23 -17 13z"/>
<path d="M5032 3748 c-15 -15 -16 -58 -2 -58 6 0 10 9 10 19 0 11 5 23 10 26
12 7 13 25 2 25 -4 0 -13 -5 -20 -12z"/>
<path d="M5170 3706 c0 -7 9 -16 20 -19 17 -4 18 -2 9 14 -11 22 -29 25 -29 5z"/>
<path d="M4502 3674 c-21 -14 -31 -44 -14 -44 12 1 52 38 52 49 0 15 -12 14
-38 -5z"/>
<path d="M5265 3680 c3 -5 8 -10 11 -10 2 0 4 5 4 10 0 6 -5 10 -11 10 -5 0
-7 -4 -4 -10z"/>
<path d="M4917 3669 c8 -8 16 -8 30 0 16 9 14 10 -11 11 -22 0 -27 -3 -19 -11z"/>
<path d="M4740 3655 c0 -8 5 -15 10 -15 6 0 10 7 10 15 0 8 -4 15 -10 15 -5 0
-10 -7 -10 -15z"/>
<path d="M5315 3650 c-3 -5 -2 -10 4 -10 5 0 13 5 16 10 3 6 2 10 -4 10 -5 0
-13 -4 -16 -10z"/>
<path d="M4872 3628 c-17 -17 -15 -28 6 -28 9 0 26 -7 36 -15 22 -17 56 -20
56 -5 0 5 -16 12 -35 16 -29 5 -34 10 -30 25 7 22 -14 26 -33 7z"/>
<path d="M5250 3630 c0 -5 5 -10 11 -10 5 0 7 5 4 10 -3 6 -8 10 -11 10 -2 0
-4 -4 -4 -10z"/>
<path d="M5010 3613 c0 -10 16 -30 34 -45 34 -27 56 -35 56 -21 0 6 -80 83
-87 83 -1 0 -3 -8 -3 -17z"/>
<path d="M4672 3611 c-8 -5 -12 -17 -10 -27 3 -14 11 -18 33 -16 17 1 40 3 53
3 26 1 28 12 6 33 -17 17 -61 21 -82 7z"/>
<path d="M5173 3584 c-30 -30 -42 -54 -27 -54 7 0 16 11 55 63 27 36 12 32
-28 -9z"/>
<path d="M5113 3598 c2 -7 10 -13 17 -13 7 0 15 6 18 13 2 7 -5 12 -18 12 -13
0 -20 -5 -17 -12z"/>
<path d="M3776 3575 c-4 -14 -4 -49 -1 -78 7 -56 66 -256 76 -257 4 0 6 23 6
50 0 28 -4 50 -7 50 -11 0 -47 157 -52 228 -3 38 -13 42 -22 7z"/>
<path d="M4336 3563 c-3 -21 -6 -51 -6 -66 0 -60 -88 -307 -134 -380 -20 -30
-58 -75 -86 -98 -42 -35 -50 -48 -50 -76 0 -18 3 -33 6 -33 9 0 78 54 96 75
59 70 141 274 169 420 5 28 12 61 15 75 4 14 8 46 11 73 6 56 -12 64 -21 10z"/>
<path d="M4575 3590 c-19 -8 -19 -9 3 -9 12 -1 22 4 22 9 0 6 -1 10 -2 9 -2 0
-12 -4 -23 -9z"/>
<path d="M4810 3593 c1 -19 97 -65 144 -69 l51 -4 -69 25 c-38 13 -77 32 -86
40 -17 16 -40 20 -40 8z"/>
<path d="M5229 3570 c-18 -15 -20 -19 -8 -20 9 0 24 9 34 20 23 26 4 26 -26 0z"/>
<path d="M4740 3540 c0 -5 5 -10 10 -10 6 0 10 5 10 10 0 6 -4 10 -10 10 -5 0
-10 -4 -10 -10z"/>
<path d="M4615 3530 c-3 -5 3 -10 14 -10 12 0 21 5 21 10 0 6 -6 10 -14 10 -8
0 -18 -4 -21 -10z"/>
<path d="M4788 3533 c7 -3 16 -2 19 1 4 3 -2 6 -13 5 -11 0 -14 -3 -6 -6z"/>
<path d="M5228 3528 c-16 -5 -28 -14 -28 -19 0 -17 37 -9 55 11 20 22 14 24
-27 8z"/>
<path d="M4480 3505 c0 -19 32 -85 41 -85 9 0 -4 47 -20 79 -14 25 -21 27 -21
6z"/>
<path d="M4895 3495 c17 -8 46 -14 65 -14 28 0 31 2 15 8 -11 5 -40 11 -65 15
-45 6 -45 6 -15 -9z"/>
<path d="M4735 3489 c-23 -6 -31 -15 -33 -34 -2 -32 11 -32 32 0 19 28 34 32
50 11 8 -10 17 -12 35 -5 19 8 21 12 11 24 -14 16 -48 18 -95 4z"/>
<path d="M5145 3490 c-3 -5 -1 -10 4 -10 6 0 11 5 11 10 0 6 -2 10 -4 10 -3 0
-8 -4 -11 -10z"/>
<path d="M3952 3478 c-7 -7 -12 -16 -12 -21 0 -5 -14 -40 -31 -78 -37 -86 -35
-127 4 -53 27 54 52 84 68 84 5 0 23 -26 41 -57 33 -58 33 -58 36 -27 4 45
-51 164 -75 164 -11 0 -24 -5 -31 -12z"/>
<path d="M5060 3463 c-55 -37 -66 -51 -53 -64 13 -13 73 18 73 38 0 20 16 15
32 -9 9 -14 20 -19 31 -15 24 9 20 18 -16 48 l-32 26 -35 -24z"/>
<path d="M3501 3464 c0 -11 3 -14 6 -6 3 7 2 16 -1 19 -3 4 -6 -2 -5 -13z"/>
<path d="M4356 3458 c-10 -48 -26 -231 -21 -236 3 -3 5 2 5 11 0 9 9 21 20 27
20 11 27 44 12 54 -5 3 -7 41 -4 86 4 76 -2 107 -12 58z"/>
<path d="M4870 3456 c-6 -6 2 -17 22 -32 33 -25 48 -22 103 19 19 15 19 15 -5
15 -14 0 -44 2 -67 4 -24 2 -47 0 -53 -6z"/>
<path d="M5295 3450 c10 -11 25 -20 34 -20 12 1 10 5 -8 20 -30 26 -49 26 -26
0z"/>
<path d="M5177 3454 c-11 -11 3 -24 18 -18 8 4 12 10 9 15 -6 11 -18 12 -27 3z"/>
<path d="M3512 3390 c-1 -25 5 -67 13 -95 11 -40 14 -44 14 -20 0 17 -6 59
-13 95 -13 64 -14 64 -14 20z"/>
<path d="M4636 3404 c-10 -39 9 -52 22 -16 10 29 7 42 -9 42 -4 0 -10 -12 -13
-26z"/>
<path d="M4850 3418 c0 -20 29 -58 45 -58 27 0 23 16 -11 43 -21 17 -34 23
-34 15z"/>
<path d="M4239 3383 c-17 -44 -4 -63 14 -21 20 44 20 48 7 48 -6 0 -15 -12
-21 -27z"/>
<path d="M3248 3383 c-13 -14 -18 -36 -18 -77 0 -77 22 -70 33 10 10 79 7 92
-15 67z"/>
<path d="M4538 3364 c-9 -8 12 -64 23 -64 5 0 6 12 3 28 -8 31 -18 45 -26 36z"/>
<path d="M4510 3324 c1 -11 9 -44 20 -74 11 -30 19 -67 20 -82 0 -16 5 -28 10
-28 15 0 11 83 -5 104 -8 11 -15 32 -15 47 0 14 -7 32 -15 39 -12 10 -15 9
-15 -6z"/>
<path d="M4597 3283 c-17 -43 -12 -58 9 -29 12 18 20 66 10 66 -2 0 -11 -17
-19 -37z"/>
<path d="M4213 3283 c-4 -10 -12 -22 -20 -26 -15 -9 -18 -37 -3 -37 6 0 14 8
17 18 4 9 12 21 20 25 15 9 18 37 3 37 -6 0 -14 -8 -17 -17z"/>
<path d="M4322 3143 c-12 -38 -23 -89 -25 -114 -2 -33 -11 -56 -33 -85 -17
-21 -41 -58 -53 -82 -32 -63 -57 -85 -81 -72 -15 8 -26 7 -45 -6 -30 -20 -33
-44 -5 -44 23 0 26 -10 8 -28 -18 -18 -35 -15 -41 8 -6 24 -34 26 -59 3 -16
-14 -22 -15 -39 -4 -16 9 -24 9 -35 0 -12 -9 -14 -5 -14 24 0 20 -4 38 -9 41
-15 10 -20 -46 -9 -106 9 -52 13 -58 34 -58 14 0 48 -20 80 -46 54 -43 57 -44
75 -28 10 9 19 21 19 26 0 12 55 93 94 139 17 20 39 50 49 68 11 22 22 31 32
27 10 -4 15 1 15 14 0 26 14 25 33 -2 14 -21 16 -21 22 -5 4 10 0 27 -9 42
-21 32 -20 47 4 68 22 19 26 47 9 64 -13 13 -3 130 12 139 11 7 12 84 1 84 -5
0 -18 -30 -30 -67z m-36 -248 c-4 -14 -13 -33 -22 -43 -8 -9 -26 -30 -39 -47
-28 -34 -33 -19 -9 28 40 78 84 116 70 62z"/>
<path d="M3963 3156 c-33 -28 -106 -161 -118 -216 -7 -31 -6 -33 8 -22 9 8 17
23 19 34 2 12 9 23 15 26 21 6 27 -27 9 -47 -11 -13 -14 -21 -7 -26 13 -7 61
42 61 62 0 13 7 17 78 43 29 11 32 16 32 54 0 48 -16 83 -46 103 -19 12 -25
11 -51 -11z"/>
<path d="M3238 3158 c-7 -19 16 -81 32 -86 10 -4 11 5 6 38 -4 24 -9 47 -12
52 -8 12 -21 10 -26 -4z"/>
<path d="M4490 3042 c0 -43 4 -72 10 -72 7 0 8 24 4 68 -9 90 -14 91 -14 4z"/>
<path d="M3281 2944 c0 -11 3 -14 6 -6 3 7 2 16 -1 19 -3 4 -6 -2 -5 -13z"/>
<path d="M4206 2951 c-4 -7 -5 -15 -2 -18 9 -9 19 4 14 18 -4 11 -6 11 -12 0z"/>
<path d="M3953 2917 c-55 -29 -82 -84 -50 -104 39 -25 79 -31 113 -17 30 13
34 18 34 53 0 35 -4 41 -39 58 -29 14 -44 17 -58 10z"/>
<path d="M4174 2885 c-9 -22 1 -29 15 -11 8 10 9 16 1 21 -5 3 -13 -1 -16 -10z"/>
<path d="M3600 2825 c0 -13 51 -85 60 -85 17 0 11 11 -25 51 -19 22 -35 37
-35 34z"/>
<path d="M4370 2765 c0 -25 5 -45 10 -45 6 0 10 7 10 16 0 14 3 14 15 4 13
-10 19 -10 35 5 20 19 27 45 11 45 -5 0 -14 -7 -21 -15 -19 -23 -40 -18 -40
10 0 14 -4 25 -10 25 -5 0 -10 -20 -10 -45z"/>
<path d="M3630 2732 c0 -13 28 -42 42 -42 15 0 4 22 -20 38 -13 8 -22 10 -22
4z"/>
<path d="M4238 2694 c-5 -4 -8 -21 -8 -38 0 -21 3 -27 11 -19 6 6 9 23 7 38
-2 15 -6 23 -10 19z"/>
<path d="M3630 2671 c0 -10 30 -24 37 -17 3 3 2 9 -2 15 -8 13 -35 15 -35 2z"/>
<path d="M3702 2613 c38 -77 58 -102 58 -70 0 18 -38 77 -50 77 -6 0 -10 -3
-8 -7z"/>
<path d="M3829 2587 c-41 -34 -49 -59 -49 -148 0 -105 20 -95 28 13 8 120 32
142 57 53 22 -73 39 -72 29 3 -7 63 -19 102 -31 102 -5 -1 -20 -11 -34 -23z"/>
<path d="M4195 2587 c-14 -11 -15 -16 -5 -22 9 -5 15 -4 18 4 3 9 7 9 18 0 9
-7 14 -31 14 -65 0 -30 5 -54 10 -54 6 0 10 7 10 15 0 9 12 27 26 40 17 16 22
25 13 25 -18 1 -53 30 -62 53 -8 21 -17 21 -42 4z"/>
<path d="M4406 2568 c-11 -52 -15 -158 -6 -158 13 0 33 76 34 129 1 47 -20 69
-28 29z"/>
<path d="M3562 2568 c2 -6 10 -14 16 -16 7 -2 10 2 6 12 -7 18 -28 22 -22 4z"/>
<path d="M3918 2545 c-10 -23 -8 -29 26 -60 37 -34 41 -61 6 -50 -26 8 -38
-44 -14 -62 10 -7 21 -13 26 -13 14 0 9 -58 -7 -74 -8 -8 -15 -25 -15 -38 0
-13 -5 -29 -12 -36 -10 -10 -9 -15 3 -27 13 -13 20 -13 64 4 40 15 50 24 50
42 0 17 -6 25 -21 27 -36 5 -38 42 -4 77 36 37 36 42 9 71 l-21 22 31 17 c34
17 88 9 126 -19 32 -24 45 -19 45 17 0 23 -8 41 -28 60 -23 22 -33 26 -66 20
-21 -3 -40 -12 -43 -19 -9 -23 -27 -16 -68 26 -45 46 -71 50 -87 15z"/>
<path d="M3520 2550 c0 -5 5 -10 10 -10 6 0 10 5 10 10 0 6 -4 10 -10 10 -5 0
-10 -4 -10 -10z"/>
<path d="M3550 2520 c0 -5 5 -10 10 -10 6 0 10 5 10 10 0 6 -4 10 -10 10 -5 0
-10 -4 -10 -10z"/>
<path d="M3570 2461 c0 -10 30 -24 37 -17 3 3 2 9 -2 15 -8 13 -35 15 -35 2z"/>
<path d="M3471 2424 c-11 -15 -21 -34 -21 -43 0 -9 -3 -26 -6 -38 -9 -31 10
-29 24 3 10 21 18 25 49 22 30 -2 40 -9 53 -33 8 -16 16 -32 17 -34 2 -2 12 4
23 14 10 9 26 15 35 12 18 -7 19 0 4 42 -13 36 -24 40 -32 10 -7 -25 -27 -16
-27 11 0 22 -31 45 -71 55 -21 5 -31 1 -48 -21z"/>
<path d="M4060 2419 c0 -13 41 -59 53 -59 15 0 6 27 -16 48 -26 24 -37 28 -37
11z"/>
<path d="M3834 2406 c-10 -8 -16 -18 -12 -21 12 -12 58 4 58 20 0 19 -20 19
-46 1z"/>
<path d="M4250 2405 c-30 -11 -32 -14 -16 -21 22 -8 68 6 74 24 5 15 -11 14
-58 -3z"/>
<path d="M4392 2378 c-5 -7 -13 -49 -16 -93 -7 -90 3 -86 28 12 9 34 19 69 22
78 7 18 -19 21 -34 3z"/>
<path d="M4152 2364 c1 -9 9 -19 16 -22 9 -3 13 2 10 14 -1 9 -9 19 -16 22 -9
3 -13 -2 -10 -14z"/>
<path d="M4196 2352 c-13 -22 51 -57 85 -47 28 9 23 18 -21 38 -45 19 -57 21
-64 9z"/>
<path d="M3878 2332 c-32 -4 -37 -28 -8 -36 11 -3 29 -9 40 -12 15 -4 20 -1
20 14 0 26 -19 38 -52 34z"/>
<path d="M4050 2317 c0 -16 9 -42 21 -58 14 -19 19 -39 16 -56 -3 -19 0 -27
13 -30 10 -3 23 -16 29 -29 15 -34 35 -32 25 4 -4 15 -8 54 -8 87 -1 62 -10
90 -27 80 -5 -4 -9 -16 -10 -28 0 -21 -1 -21 -12 -3 -7 10 -20 28 -29 40 l-17
21 -1 -28z"/>
<path d="M3777 2290 c-21 -10 -43 -22 -49 -28 -9 -9 -16 -8 -30 5 -16 15 -18
15 -18 0 0 -9 5 -19 10 -22 6 -3 10 -12 10 -20 0 -43 79 -82 108 -53 23 23 13
37 -30 40 -30 2 -43 8 -43 18 0 10 8 14 26 12 19 -2 31 4 43 23 24 37 17 44
-27 25z"/>
<path d="M4170 2271 c0 -11 5 -23 10 -26 6 -3 10 3 10 14 0 11 -4 23 -10 26
-5 3 -10 -3 -10 -14z"/>
<path d="M3574 2216 c-20 -31 -41 -56 -46 -56 -13 0 -48 -63 -48 -87 0 -27 3
-28 35 -7 14 9 25 25 25 36 0 11 18 51 41 90 50 85 45 102 -7 24z"/>
<path d="M3518 2237 c-30 -12 -66 -83 -50 -99 6 -6 14 2 20 21 6 17 17 31 25
31 8 0 22 11 31 25 25 38 22 41 -26 22z"/>
<path d="M4180 2195 c-13 -35 -13 -45 3 -45 6 0 40 -13 75 -30 58 -27 92 -31
92 -9 0 5 -6 9 -14 9 -8 0 -36 18 -61 40 -71 61 -83 66 -95 35z"/>
<path d="M3690 2155 c0 -8 7 -15 15 -15 8 0 15 7 15 15 0 8 -7 15 -15 15 -8 0
-15 -7 -15 -15z"/>
<path d="M3598 2116 c-21 -18 -38 -40 -38 -48 0 -8 -13 -27 -30 -43 -16 -16
-28 -30 -26 -33 8 -8 52 21 89 59 21 22 40 39 43 39 17 0 46 -25 54 -46 5 -13
14 -24 20 -24 15 0 12 16 -5 30 -8 7 -15 19 -15 27 0 23 -29 73 -43 73 -6 -1
-29 -16 -49 -34z"/>
<path d="M3736 2131 c-4 -7 -5 -15 -2 -18 9 -9 19 4 14 18 -4 11 -6 11 -12 0z"/>
<path d="M3814 2050 c0 -52 1 -74 3 -47 2 26 2 68 0 95 -2 26 -3 4 -3 -48z"/>
<path d="M3953 2093 c-4 -10 -17 -31 -30 -47 -24 -29 -24 -47 -1 -30 7 6 39 9
71 8 54 -1 57 0 57 22 0 31 17 30 52 -3 26 -25 28 -25 28 -7 0 11 -14 33 -30
49 -25 24 -33 27 -40 15 -7 -11 -13 -12 -35 -2 -37 17 -65 15 -72 -5z"/>
<path d="M3730 2072 c0 -5 12 -14 26 -21 22 -10 25 -9 22 6 -3 18 -48 32 -48
15z"/>
<path d="M3620 1974 c-7 -8 -18 -14 -25 -14 -7 0 -18 -7 -25 -15 -10 -12 -8
-17 13 -26 14 -6 30 -22 36 -35 14 -32 40 -30 74 5 32 34 33 43 10 63 -35 28
-70 38 -83 22z"/>
<path d="M4147 1983 c-4 -3 -7 -16 -7 -28 0 -16 8 -24 28 -29 15 -3 37 -8 50
-12 32 -9 28 12 -10 47 -32 29 -49 35 -61 22z"/>
<path d="M4057 1973 c-12 -11 -8 -23 7 -23 7 0 19 7 26 15 10 12 9 15 -7 15
-11 0 -23 -3 -26 -7z"/>
<path d="M3913 1938 c-19 -25 -24 -38 -14 -38 11 0 35 39 28 46 -2 3 -9 -1
-14 -8z"/>
<path d="M3956 1929 c-32 -25 -34 -43 -3 -35 12 3 47 -1 77 -9 70 -19 69 -19
67 5 -1 12 -8 20 -20 20 -10 0 -30 9 -44 20 -32 25 -44 25 -77 -1z"/>
<path d="M3501 1921 c-9 -15 -7 -20 12 -25 24 -6 53 16 43 33 -11 18 -44 13
-55 -8z"/>
<path d="M3740 1900 c-13 -9 -10 -14 14 -36 32 -29 47 -22 39 19 -6 28 -26 35
-53 17z"/>
<path d="M4292 1893 c5 -25 28 -28 28 -4 0 12 -6 21 -16 21 -9 0 -14 -7 -12
-17z"/>
<path d="M4184 1859 c1 -20 6 -29 16 -27 22 5 23 31 2 45 -17 10 -19 8 -18
-18z"/>
<path d="M3958 1868 c-15 -12 -38 -83 -52 -157 -3 -19 -3 -57 0 -84 7 -47 8
-49 35 -43 21 4 29 2 29 -8 0 -14 21 -26 46 -26 10 0 14 14 14 50 0 28 5 50
10 50 6 0 10 -11 10 -24 0 -13 7 -43 15 -66 17 -49 19 -98 5 -134 -8 -23 -14
-26 -46 -22 -41 5 -54 19 -47 47 7 24 -5 69 -17 69 -6 0 -10 -12 -10 -27 0
-16 -11 -46 -25 -68 -26 -42 -31 -70 -16 -79 14 -9 273 22 284 33 7 7 -2 24
-26 51 -31 34 -37 47 -37 86 0 25 -7 58 -15 74 -10 20 -13 42 -9 70 5 31 3 41
-10 46 -22 8 -20 21 4 27 18 4 19 11 14 54 -4 26 -8 49 -9 51 -2 2 -19 -1 -37
-6 -32 -9 -35 -8 -45 19 -12 31 -38 38 -65 17z"/>
<path d="M3690 1847 c0 -17 38 -53 46 -44 7 7 -25 57 -37 57 -5 0 -9 -6 -9
-13z"/>
<path d="M4135 1851 c-6 -11 9 -23 19 -14 9 9 7 23 -3 23 -6 0 -12 -4 -16 -9z"/>
<path d="M3535 1820 c-3 -5 2 -21 12 -36 16 -24 16 -27 0 -38 -27 -20 -73
-189 -60 -222 6 -17 -15 -54 -32 -54 -7 0 -15 -10 -17 -22 -2 -14 -12 -24 -28
-28 -14 -3 -26 -14 -28 -25 -2 -11 -8 -24 -13 -29 -14 -15 -11 -24 9 -22 9 0
19 10 22 21 8 29 54 27 58 -2 3 -17 10 -23 30 -24 15 -1 43 -3 62 -5 27 -3 39
1 58 21 23 25 52 34 52 16 0 -5 -9 -13 -20 -16 -30 -9 -24 -25 9 -25 26 0 29
3 27 33 -2 30 -4 32 -36 30 -19 -1 -53 -5 -76 -9 -45 -6 -78 14 -67 42 7 19
55 44 86 44 38 0 67 30 87 89 20 61 17 85 -11 76 -17 -6 -19 -1 -19 49 0 30
-4 58 -10 61 -5 3 -10 17 -10 31 0 24 -14 32 -25 14 -11 -17 -25 -11 -35 15
-10 27 -16 30 -25 15z"/>
<path d="M3670 1788 c1 -15 49 -52 57 -44 3 3 -2 17 -11 31 -17 26 -46 34 -46
13z"/>
<path d="M4178 1779 c-35 -18 -46 -39 -38 -74 1 -5 6 -47 11 -93 5 -45 15 -95
24 -110 17 -31 50 -72 59 -72 14 0 4 22 -24 54 -36 40 -33 81 6 96 29 11 32
30 5 30 -27 0 -34 28 -11 42 25 16 25 24 1 31 -10 2 -20 16 -23 31 -4 20 1 31
20 47 37 29 15 42 -30 18z"/>
<path d="M3773 1765 c-3 -9 -3 -19 1 -22 8 -9 37 18 30 28 -8 14 -24 11 -31
-6z"/>
<path d="M4281 1741 c-8 -17 -11 -34 -8 -38 8 -7 29 46 24 60 -2 6 -9 -4 -16
-22z"/>
<path d="M3680 1724 c0 -8 5 -12 10 -9 6 4 8 11 5 16 -9 14 -15 11 -15 -7z"/>
<path d="M3710 1707 c0 -12 23 -57 29 -57 8 0 34 41 29 45 -7 7 -58 17 -58 12z"/>
<path d="M3717 1624 c-14 -14 -7 -53 12 -63 13 -7 20 -26 24 -63 3 -29 9 -64
13 -77 6 -20 4 -23 -9 -18 -22 8 -49 -20 -45 -47 3 -18 11 -21 56 -24 l52 -3
0 35 c0 25 4 36 15 36 17 0 21 55 6 92 -5 13 -12 34 -15 48 -3 14 -15 36 -25
50 -16 20 -22 23 -33 12 -10 -10 -15 -9 -28 8 -9 12 -19 18 -23 14z"/>
<path d="M3886 1479 c-8 -44 -8 -79 2 -79 13 0 36 76 29 94 -10 26 -24 18 -31
-15z"/>
<path d="M3360 1461 c-5 -11 -10 -28 -10 -38 0 -13 6 -8 20 15 23 37 24 42 10
42 -5 0 -14 -9 -20 -19z"/>
<path d="M4370 1449 c12 -16 24 -28 27 -25 8 7 -15 43 -32 50 -12 4 -11 -1 5
-25z"/>
<path d="M4263 1400 c-23 -9 -32 -30 -14 -30 23 0 62 21 56 30 -7 12 -13 12
-42 0z"/>
</g>
</svg>
