<?xml version="1.0" standalone="no"?>
<!DOCTYPE svg PUBLIC "-//W3C//DTD SVG 20010904//EN"
 "http://www.w3.org/TR/2001/REC-SVG-20010904/DTD/svg10.dtd">
<svg version="1.0" xmlns="http://www.w3.org/2000/svg"
 width="707.000000pt" height="1600.000000pt" viewBox="0 0 707.000000 1600.000000"
 preserveAspectRatio="xMidYMid meet">

<g transform="translate(0.000000,1600.000000) scale(0.100000,-0.100000)"
fill="#000000" stroke="none">
<path d="M1509 15963 c83 -49 199 -164 231 -228 20 -40 25 -65 25 -127 0 -69
-3 -80 -30 -119 l-31 -44 -172 0 -172 0 0 57 c0 157 -106 311 -240 348 -54 15
-149 11 -205 -8 -158 -55 -356 -260 -450 -465 -208 -457 -130 -966 219 -1433
88 -118 234 -271 343 -358 l72 -57 -87 -74 c-211 -178 -400 -440 -588 -815
-144 -288 -193 -440 -224 -686 -14 -113 -14 -385 0 -501 20 -164 72 -373 125
-506 7 -17 5 -17 -34 -1 -128 51 -204 -62 -231 -344 -11 -122 -2 -220 45 -463
50 -256 74 -432 81 -584 7 -168 -8 -257 -69 -390 -25 -55 -48 -118 -52 -140
-4 -22 -18 -66 -32 -99 -50 -115 -39 -284 22 -353 l24 -28 1 43 c0 80 48 151
72 108 50 -90 159 -148 218 -116 17 9 19 5 25 -37 11 -83 16 -101 31 -114 11
-9 14 -7 14 10 0 25 15 57 37 83 14 16 18 16 44 3 84 -44 229 23 248 115 l6
31 31 -44 c41 -57 101 -87 177 -87 46 0 58 -4 71 -22 9 -12 16 -30 16 -40 0
-23 13 -23 32 0 28 31 40 64 40 104 -1 21 0 38 1 38 1 0 20 -7 42 -15 58 -20
129 -19 175 5 42 21 75 16 113 -17 9 -9 20 -13 25 -9 4 4 7 51 7 105 0 88 -3
102 -32 161 -17 36 -35 79 -39 95 -11 47 -42 103 -63 115 -11 5 -47 10 -80 10
-50 0 -65 4 -92 27 -39 33 -62 86 -54 123 l6 29 107 -6 c342 -17 549 143 712
549 136 339 209 838 181 1244 l-12 175 -36 47 c-65 84 -109 211 -132 375 -6
42 -17 187 -26 324 -8 136 -18 271 -22 298 l-6 50 -13 -48 c-19 -73 -56 -140
-155 -277 -275 -382 -328 -488 -337 -684 -6 -127 6 -190 53 -293 29 -63 111
-193 122 -193 2 0 -5 17 -16 38 -135 264 -11 826 219 992 l25 18 -4 -85 c-7
-181 61 -421 191 -674 l81 -156 4 -94 c5 -94 -23 -388 -51 -529 l-12 -65 -8
70 c-19 170 -59 309 -179 618 -72 184 -102 293 -113 407 l-8 75 -19 -60 c-27
-87 -32 -229 -13 -350 9 -55 39 -184 67 -288 28 -103 49 -197 47 -210 -7 -51
-131 -9 -223 75 -99 91 -185 234 -210 351 l-12 62 -8 -38 c-4 -21 -5 -73 -3
-116 6 -107 56 -207 185 -371 128 -163 162 -213 190 -280 26 -64 30 -163 9
-222 -17 -48 -6 -48 34 0 80 96 122 238 124 414 1 64 2 115 4 113 11 -11 32
-124 42 -232 12 -128 8 -288 -11 -388 -13 -68 -116 -275 -180 -359 -61 -80
-147 -147 -222 -173 -42 -15 -83 -18 -217 -18 -155 0 -170 2 -245 28 -112 39
-205 97 -295 183 -123 117 -195 229 -308 474 -11 24 -11 24 -5 -5 25 -126 96
-295 169 -400 39 -58 44 -71 44 -123 0 -62 25 -128 81 -208 17 -25 42 -64 55
-87 22 -38 24 -39 18 -12 -3 17 -28 85 -55 153 -27 67 -49 129 -49 137 0 9 30
-10 72 -46 80 -66 222 -141 306 -160 51 -12 62 -21 42 -34 -5 -3 -10 -30 -10
-60 0 -75 29 -108 119 -135 120 -35 145 -74 96 -146 -27 -40 -34 -119 -15
-170 6 -15 9 -29 6 -31 -7 -7 -141 42 -140 52 1 6 5 36 9 67 l6 57 -83 86
c-90 93 -107 117 -108 155 l-1 25 -19 -24 c-26 -30 -25 -76 0 -145 l21 -54
-30 -29 c-36 -36 -56 -122 -46 -199 7 -59 2 -64 -43 -40 -62 33 -102 96 -102
164 0 51 -50 189 -89 245 -17 26 -34 47 -36 47 -2 0 6 -21 17 -47 29 -66 36
-185 13 -238 l-16 -40 -16 30 c-22 43 -72 94 -115 116 l-37 19 -26 -28 c-15
-15 -36 -45 -47 -67 l-21 -40 -13 30 c-30 69 -8 162 44 189 16 8 32 23 36 31
11 30 6 80 -13 120 l-19 40 -1 -51 c-1 -62 -28 -106 -90 -148 -24 -16 -49 -43
-57 -62 -21 -51 -17 -140 10 -206 13 -32 21 -60 18 -63 -12 -12 -40 -4 -60 18
-18 19 -22 35 -22 88 0 123 -46 219 -105 219 -23 0 -25 3 -19 23 12 40 36 81
85 148 74 100 79 118 79 274 l0 136 22 -6 c83 -25 192 -172 224 -300 l12 -50
1 61 c2 140 -85 349 -184 443 -36 34 -62 51 -80 51 -14 0 -27 6 -29 13 -2 6
-20 81 -40 164 -20 84 -39 160 -43 169 -5 15 -3 15 25 0 60 -31 144 -9 172 44
15 28 9 33 -25 20 -60 -23 -136 33 -190 139 -22 45 -25 62 -25 163 1 246 58
391 154 391 54 0 81 -21 114 -88 l32 -65 -29 0 c-113 0 -181 -105 -147 -223 9
-30 25 -65 36 -78 19 -24 19 -24 0 16 -34 68 -24 132 28 170 28 21 137 33 159
18 7 -5 26 -38 42 -73 l29 -65 -22 -12 c-39 -20 -61 -87 -61 -183 0 -47 5 -93
10 -103 8 -13 11 0 11 53 1 80 20 120 58 120 66 0 129 -143 130 -292 1 -56 4
-72 11 -60 6 9 10 73 10 142 0 104 -5 143 -29 235 -36 141 -93 287 -167 432
-56 110 -58 116 -44 143 28 54 48 209 49 372 1 87 4 158 8 158 3 0 26 -23 51
-51 59 -67 128 -200 173 -334 34 -101 37 -120 38 -226 1 -65 4 -115 7 -113 4
2 15 33 24 68 26 95 17 289 -19 409 -62 209 -185 381 -344 481 -24 15 -46 26
-48 24 -2 -2 1 -44 8 -94 25 -201 9 -611 -22 -578 -14 15 -67 196 -81 274 -17
100 -15 329 6 465 20 135 65 365 75 384 4 7 10 -13 13 -47 15 -137 91 -281
254 -473 283 -335 330 -428 321 -622 -3 -56 -8 -111 -12 -122 -3 -11 5 3 18
30 38 76 56 160 56 256 0 217 -84 419 -278 666 -89 113 -142 210 -166 304 -49
192 -15 421 99 654 43 88 119 211 169 270 l25 30 -24 -60 c-89 -227 -101 -692
-24 -950 20 -67 78 -189 86 -182 2 2 -4 46 -13 98 -24 140 -15 431 20 594 56
265 134 467 254 658 l37 58 105 -6 c58 -4 106 -8 108 -10 2 -2 -17 -39 -42
-83 -234 -406 -392 -920 -359 -1171 l8 -65 37 60 c43 69 185 211 280 277 66
47 188 109 241 121 23 5 27 3 27 -15 0 -48 -58 -184 -179 -421 -138 -271 -190
-408 -212 -557 -15 -104 -7 -263 18 -356 l18 -70 6 135 c13 271 70 416 319
815 196 314 252 432 284 605 17 85 20 241 7 320 l-7 45 -21 -47 c-87 -192
-295 -362 -532 -433 -23 -7 -23 -6 -16 46 22 177 110 433 210 609 93 165 149
236 208 266 28 15 92 56 142 91 97 70 241 144 374 193 109 40 96 24 -74 -90
-286 -192 -425 -327 -524 -512 -48 -88 -97 -232 -106 -308 l-7 -55 42 75 c100
179 189 272 380 400 84 56 156 114 221 179 85 85 102 109 152 209 31 63 57
120 57 128 0 21 46 38 180 68 421 93 847 81 1184 -34 49 -16 91 -28 93 -26 6
6 -144 62 -243 91 -361 105 -924 113 -1304 20 -31 -8 -136 -16 -243 -18 -103
-3 -193 -9 -200 -14 -6 -5 -52 -17 -101 -27 -81 -15 -206 -54 -326 -101 -36
-14 -51 -15 -74 -6 l-29 12 39 40 c54 56 178 114 292 137 l92 18 -80 43 c-44
23 -121 69 -172 103 -84 55 -95 60 -132 55 -126 -18 -271 -93 -326 -169 l-28
-39 -80 81 c-44 45 -85 93 -93 106 -12 23 -10 27 27 65 21 22 64 53 94 69 57
29 177 60 230 60 l30 0 -55 72 c-30 40 -74 110 -97 155 l-42 83 -45 2 c-140 4
-247 -20 -319 -72 -23 -16 -46 -30 -51 -30 -13 0 -65 165 -86 270 l-16 85 31
26 c91 77 247 57 371 -47 22 -19 42 -34 42 -34 1 0 2 46 2 103 1 72 6 113 17
139 16 36 16 39 -9 87 -31 63 -99 124 -160 145 -53 18 -160 21 -216 5 -22 -6
-41 -8 -43 -6 -10 10 57 165 98 227 39 59 48 67 98 83 71 24 181 25 247 3 69
-23 128 -82 148 -149 18 -62 19 -79 1 -145 -7 -29 -11 -52 -9 -52 2 0 25 11
52 24 102 52 178 70 301 70 129 0 245 -19 395 -65 183 -57 270 -94 755 -329
427 -206 553 -257 795 -317 99 -25 127 -28 290 -28 142 0 194 4 245 18 80 22
195 75 278 129 64 42 78 62 23 34 -16 -9 -31 -16 -33 -16 -2 0 -3 39 -3 88 0
76 -4 94 -29 141 -35 67 -115 148 -184 188 l-52 30 -67 -23 c-42 -15 -92 -24
-131 -24 l-63 0 73 -72 c86 -86 133 -168 154 -270 17 -80 12 -133 -12 -142
-25 -10 -196 -7 -281 5 -43 5 -117 19 -166 30 l-88 21 32 36 c98 112 99 286 1
432 -34 50 -49 61 -187 137 -82 45 -153 82 -158 82 -4 1 6 -25 22 -57 75 -148
94 -292 51 -390 -21 -49 -78 -112 -101 -112 -9 0 -369 166 -377 175 -2 2 10
22 28 45 90 114 95 291 13 455 -50 99 -66 113 -227 191 -83 41 -155 74 -159
74 -4 0 5 -19 21 -42 86 -126 126 -246 120 -358 -5 -82 -30 -141 -80 -187
l-23 -21 -115 53 c-63 29 -136 62 -161 73 l-47 20 30 60 c86 173 13 384 -183
528 -65 47 -131 63 -294 70 l-130 6 64 -39z m-1354 -6993 c21 -23 31 -100 16
-127 -5 -11 -23 -23 -39 -26 -38 -8 -61 -44 -76 -120 l-13 -62 -12 40 c-26 92
-1 223 54 281 37 39 46 41 70 14z m380 -122 c9 -29 19 -80 22 -112 6 -54 5
-59 -12 -52 -28 10 -62 -19 -95 -82 l-31 -57 4 100 c3 65 11 116 23 145 20 51
56 110 66 110 4 0 14 -24 23 -52z m903 19 c11 -12 28 -38 36 -58 18 -43 33
-169 20 -169 -5 0 -34 24 -66 53 -66 61 -79 101 -54 160 17 43 34 46 64 14z
m-379 -24 c23 -50 51 -188 51 -250 0 -67 -14 -91 -24 -42 -3 18 -25 59 -48 93
-37 54 -42 68 -42 117 -1 36 5 65 17 82 22 34 31 34 46 0z"/>
<path d="M4309 15567 c-94 -27 -177 -114 -267 -284 l-12 -22 59 24 c201 82
364 32 464 -144 28 -49 31 -52 44 -35 30 42 55 130 56 199 1 111 -50 202 -136
244 -55 27 -148 35 -208 18z"/>
<path d="M3347 13709 c-22 -12 -55 -45 -80 -80 -99 -140 -102 -144 -140 -153
-52 -13 -98 4 -195 74 -46 33 -103 65 -125 71 -84 23 -172 -8 -259 -89 -86
-80 -117 -150 -162 -366 -26 -123 -86 -342 -138 -506 l-25 -75 -45 90 c-92
182 -122 353 -83 465 24 67 10 58 -28 -19 -51 -102 -71 -201 -65 -325 5 -86
13 -122 53 -241 56 -166 56 -198 2 -388 -42 -144 -44 -254 -9 -351 24 -64 48
-101 37 -55 -9 38 12 237 31 293 19 56 73 116 103 116 106 0 189 -137 199
-326 4 -89 0 -124 -33 -290 -60 -300 -50 -445 45 -637 39 -79 89 -154 76 -114
-15 47 -46 220 -52 292 -9 105 7 218 57 412 34 131 41 175 42 258 0 55 -5 120
-12 145 -34 124 -115 304 -247 546 l-28 50 86 190 c48 104 109 245 137 312 28
68 66 150 85 181 69 114 198 207 300 218 29 4 72 -5 152 -31 174 -56 203 -49
284 69 32 45 70 87 98 105 61 40 138 41 293 1 63 -16 148 -32 189 -36 126 -11
224 -34 401 -96 201 -70 242 -95 401 -247 122 -117 168 -152 266 -201 35 -18
122 -68 195 -113 167 -102 217 -131 217 -125 0 3 -25 20 -55 37 -30 17 -111
84 -178 148 -68 64 -145 133 -172 152 -27 19 -104 100 -172 180 -105 125 -131
150 -190 183 -153 84 -448 153 -819 191 -124 13 -135 16 -218 60 -101 53 -155
59 -219 25z"/>
<path d="M3585 13483 c-44 -12 -86 -56 -126 -134 -64 -122 -68 -123 -364 -138
-185 -10 -232 -21 -325 -81 -102 -66 -183 -185 -233 -345 -14 -44 -44 -167
-67 -274 -23 -107 -46 -206 -51 -219 -5 -14 -8 -26 -6 -28 2 -2 20 36 41 85
134 318 344 554 576 648 177 71 383 70 606 -3 67 -21 79 -23 92 -11 12 13 10
28 -13 113 -58 211 -34 267 139 330 l60 21 -74 18 c-78 18 -220 28 -255 18z"/>
<path d="M4195 13304 c-126 -15 -213 -49 -273 -107 -69 -66 -85 -107 -84 -207
1 -89 -13 -130 -44 -130 -9 0 -56 18 -105 40 -120 54 -201 66 -336 52 -309
-34 -562 -217 -670 -483 -71 -176 -92 -333 -103 -754 -5 -185 -13 -339 -20
-365 -7 -28 -10 -88 -7 -155 4 -98 9 -125 48 -235 54 -157 55 -206 10 -375
-52 -190 -52 -294 0 -410 l18 -40 1 60 c2 156 33 285 80 335 59 63 151 27 206
-81 66 -130 70 -246 17 -497 -48 -230 -50 -369 -10 -504 24 -78 25 -93 16
-145 -22 -115 5 -301 52 -364 l17 -23 39 19 c21 10 42 18 47 16 5 -1 25 13 45
32 171 162 477 236 505 122 9 -36 -23 -103 -74 -159 -50 -54 -46 -58 18 -14
193 133 241 277 109 327 -68 26 -190 5 -314 -54 -40 -19 -73 -32 -73 -30 0 2
20 33 45 68 62 89 121 217 146 317 21 83 22 90 9 315 -28 501 12 790 136 973
52 78 17 53 -102 -71 -143 -149 -192 -242 -215 -404 -13 -91 -7 -150 32 -343
38 -187 48 -381 25 -490 -20 -97 -72 -201 -136 -272 -64 -72 -143 -130 -164
-122 -17 7 -36 64 -61 181 -16 80 -11 131 23 221 11 29 18 52 16 52 -2 0 -18
-19 -35 -42 l-32 -43 7 97 c4 64 22 158 51 275 86 339 61 458 -194 927 -146
269 -166 311 -203 419 -37 109 -42 231 -14 306 21 57 20 63 -4 24 -32 -53 -34
-79 20 277 50 334 124 506 281 656 89 84 138 115 259 162 147 56 204 72 290
78 136 11 296 -42 449 -145 71 -48 117 -55 126 -18 4 13 -4 61 -16 108 -17 63
-23 112 -23 199 -1 127 12 172 74 250 37 47 147 122 227 155 l58 24 -80 -1
c-44 -1 -93 -3 -110 -4z"/>
<path d="M4590 13050 c-63 -4 -135 -12 -160 -19 -93 -27 -186 -123 -229 -236
-26 -69 -44 -199 -36 -259 l6 -49 -38 7 c-137 23 -277 30 -380 18 -141 -16
-209 -34 -318 -86 -147 -70 -250 -194 -302 -362 -16 -51 -18 -96 -18 -349 0
-159 -4 -302 -9 -317 l-8 -28 83 0 c46 0 127 -3 180 -6 l96 -7 43 63 c88 130
241 270 380 348 54 30 224 92 251 92 8 0 2 -10 -13 -21 -15 -11 -43 -41 -62
-67 -19 -26 -52 -58 -73 -71 -33 -20 -52 -47 -119 -174 -43 -83 -78 -157 -77
-166 3 -27 -195 -297 -409 -559 -60 -74 -108 -136 -106 -138 9 -8 517 515 643
661 182 211 241 267 329 311 58 28 91 38 145 42 102 7 131 -2 223 -70 45 -33
102 -70 125 -80 55 -24 88 -15 171 46 152 114 209 112 406 -13 55 -35 142 -82
195 -105 114 -50 170 -85 339 -212 151 -114 194 -166 292 -353 39 -74 88 -155
109 -180 20 -25 48 -75 61 -111 12 -36 36 -88 52 -116 l29 -52 -27 -88 c-22
-74 -27 -109 -27 -209 -1 -69 4 -139 12 -165 23 -83 89 -204 153 -282 239
-289 281 -348 338 -472 47 -102 64 -171 62 -266 0 -83 -28 -174 -75 -248 -22
-34 -31 -41 -45 -33 -75 40 -111 161 -77 256 18 48 18 48 4 39 -6 -3 -24 -33
-39 -65 l-28 -59 -27 82 c-81 247 -205 401 -398 496 -133 66 -204 84 -352 89
-125 5 -170 -1 -273 -32 -21 -7 -18 3 35 106 66 130 144 219 228 259 45 22 63
25 170 24 95 0 134 -5 185 -21 l65 -22 -35 30 c-65 56 -199 140 -254 160 -73
25 -186 25 -241 0 -37 -16 -60 -38 -137 -130 -21 -25 -34 -32 -55 -29 -23 2
-34 14 -61 68 -75 148 -123 206 -231 279 -146 99 -268 139 -447 148 -176 8
-300 -25 -452 -121 -100 -63 -30 6 78 78 99 65 206 105 313 118 121 13 338 5
402 -15 111 -36 235 -129 341 -258 107 -129 137 -118 147 53 7 113 23 183 58
255 50 104 165 180 305 204 165 27 161 21 33 54 -150 40 -278 42 -356 6 -73
-33 -128 -95 -148 -168 -23 -86 -36 -108 -69 -111 -37 -5 -110 62 -97 87 5 9
11 61 15 116 13 212 80 336 218 406 66 33 163 59 225 59 75 0 54 16 -60 46
-155 40 -257 40 -345 0 -84 -39 -123 -86 -152 -182 -15 -53 -29 -79 -46 -91
-29 -19 -42 -12 -137 75 -120 108 -264 156 -467 156 -300 0 -517 -120 -683
-375 -97 -150 -139 -247 -272 -629 -51 -146 -96 -274 -99 -285 -20 -55 58 86
171 310 69 138 150 288 181 335 151 233 360 369 602 392 234 22 389 -4 511
-85 61 -40 169 -134 169 -147 0 -4 -37 4 -82 18 -72 21 -103 25 -228 26 -122
1 -158 -3 -230 -22 -276 -76 -458 -267 -615 -647 -32 -77 -54 -107 -182 -259
-80 -94 -169 -195 -197 -223 -27 -29 -46 -53 -41 -53 10 0 138 106 265 218
l60 54 -44 -129 c-24 -70 -54 -152 -65 -181 -12 -29 -21 -56 -21 -60 1 -15 85
139 170 309 97 194 109 208 258 303 145 94 286 136 457 136 97 0 117 -4 233
-41 175 -57 272 -109 349 -187 71 -73 135 -189 178 -322 15 -49 37 -94 50
-106 l22 -21 -57 -31 c-32 -18 -65 -32 -73 -32 -27 0 -47 41 -47 95 0 88 -24
146 -80 199 -91 85 -196 113 -385 100 l-110 -7 67 -23 c157 -53 277 -149 313
-251 24 -67 29 -210 12 -313 -26 -153 2 -165 141 -60 176 133 328 184 491 162
96 -12 285 -64 346 -94 138 -70 266 -198 342 -344 61 -119 94 -218 167 -514
52 -213 104 -383 91 -300 -3 19 -8 62 -10 95 -5 60 -5 60 36 -59 22 -65 43
-144 47 -175 l8 -56 63 159 c124 315 166 500 165 731 -1 268 -32 347 -285 741
-248 385 -333 583 -354 822 -7 82 -1 100 22 63 7 -11 58 -75 115 -142 161
-192 208 -251 235 -296 14 -24 27 -43 30 -43 11 0 -6 446 -21 553 -28 202 -89
386 -168 509 -68 106 -122 161 -316 325 -212 179 -516 476 -616 603 -177 224
-285 431 -326 621 -7 33 -8 12 -5 -86 10 -303 141 -634 327 -826 65 -66 111
-98 243 -169 139 -74 216 -123 312 -197 101 -78 165 -154 212 -253 34 -71 36
-80 36 -180 0 -110 -8 -160 -26 -160 -6 0 -34 22 -63 50 -55 52 -108 143 -108
185 0 14 -4 23 -8 20 -4 -3 -29 50 -56 118 -45 116 -52 126 -123 198 -83 83
-197 163 -367 257 -103 58 -382 191 -430 206 -12 4 -48 34 -80 68 -85 89 -116
108 -178 108 -62 0 -106 -22 -195 -96 -80 -66 -107 -73 -169 -42 -35 17 -63
45 -111 107 -58 76 -62 86 -46 95 9 6 48 30 85 54 l69 43 -20 56 c-23 68 -23
82 -3 181 42 208 160 335 359 387 33 9 123 22 200 28 l140 12 -90 27 c-412
121 -618 44 -772 -290 -33 -71 -36 -75 -50 -56 -58 77 -97 211 -91 313 10 170
116 295 328 388 84 37 93 35 -110 23z m-699 -840 c86 -17 169 -61 240 -129 59
-58 62 -62 34 -56 -16 3 -78 9 -137 12 -90 5 -116 2 -176 -16 -180 -54 -309
-219 -411 -526 l-40 -119 -123 3 c-68 1 -124 4 -125 5 -1 1 11 22 27 46 39 58
61 118 110 298 65 234 103 300 225 388 125 89 245 119 376 94z m-57 -795 c-21
-30 -39 -53 -42 -51 -4 5 27 55 56 89 28 32 22 17 -14 -38z"/>
<path d="M1290 12167 c-88 -70 -197 -192 -230 -260 -55 -115 -57 -232 -4 -387
21 -65 86 -199 69 -145 -27 86 -24 258 6 394 30 139 111 316 181 395 22 25 38
46 36 46 -1 0 -28 -19 -58 -43z"/>
<path d="M3020 12167 c-90 -71 -196 -192 -232 -265 -32 -64 -33 -72 -33 -182
0 -100 4 -125 28 -195 24 -69 89 -204 72 -150 -27 86 -24 258 6 394 30 139
111 316 181 395 22 25 38 46 36 46 -1 0 -28 -19 -58 -43z"/>
<path d="M5121 11515 c-19 -8 -65 -44 -103 -80 -68 -65 -69 -65 -126 -65 -39
0 -110 15 -218 46 -131 38 -174 46 -244 46 -146 1 -261 -52 -376 -173 -73 -78
-116 -140 -224 -329 -46 -80 -97 -165 -114 -190 -19 -28 14 1 89 78 186 193
354 307 535 364 64 19 96 23 215 23 119 0 151 -4 215 -23 98 -31 195 -81 303
-156 85 -58 89 -60 103 -41 9 12 14 46 14 94 0 95 21 194 46 222 35 39 93 59
179 59 l80 1 -40 25 c-152 95 -267 129 -334 99z"/>
<path d="M635 11040 c-28 -105 -26 -263 4 -387 28 -116 118 -301 202 -414 76
-104 223 -251 307 -307 34 -24 62 -40 62 -36 0 3 -9 19 -21 35 -35 50 -99 196
-118 271 -45 177 -36 310 37 558 37 126 46 173 49 255 3 71 1 96 -6 85 -6 -8
-11 -24 -11 -36 0 -35 -35 -124 -104 -269 -90 -187 -109 -253 -105 -360 2 -47
1 -85 -3 -85 -17 0 -130 139 -162 200 -75 142 -97 231 -105 420 l-6 145 -20
-75z"/>
<path d="M1225 10858 c-63 -133 -78 -211 -79 -408 -1 -190 9 -251 62 -358 26
-54 96 -142 113 -142 5 0 -5 21 -22 48 -90 141 -92 362 -4 362 34 0 102 -74
140 -154 114 -242 121 -501 13 -591 -48 -40 -101 -50 -177 -31 -94 23 -163 68
-272 176 -93 93 -141 161 -181 259 l-18 46 6 -55 c18 -168 84 -310 194 -421
141 -142 289 -179 444 -111 131 59 206 200 206 390 -1 210 -38 306 -214 547
-137 188 -199 352 -177 469 5 25 7 46 4 46 -2 0 -19 -33 -38 -72z"/>
<path d="M2991 10750 c46 -48 91 -141 113 -233 54 -217 42 -521 -28 -713 l-24
-64 33 20 c45 28 69 25 98 -10 51 -61 43 -185 -23 -344 l-29 -71 30 35 c98
113 171 386 143 529 l-7 32 -17 -29 c-20 -33 -80 -65 -104 -56 -20 8 -20 12 1
88 14 48 18 101 18 246 0 171 -2 192 -28 284 -35 126 -86 223 -148 281 -59 56
-80 60 -28 5z"/>
<path d="M4510 9442 c232 -150 284 -308 188 -572 -17 -47 -31 -103 -32 -125
-1 -35 2 -40 23 -43 13 -2 66 16 122 43 143 67 239 89 364 83 118 -6 180 -27
342 -115 119 -65 203 -136 268 -227 124 -175 162 -333 171 -711 l5 -230 -32
35 c-52 58 -139 196 -175 280 -54 125 -76 221 -78 339 l-1 103 -19 -58 c-11
-36 -20 -102 -23 -169 -8 -185 29 -284 199 -535 129 -191 169 -262 204 -365
23 -68 27 -97 28 -195 1 -63 -2 -137 -7 -165 -10 -66 6 -41 43 69 40 117 54
219 47 339 -9 145 -20 176 -89 232 -67 53 -65 42 -43 225 54 474 37 720 -66
929 -29 58 -62 105 -112 158 -171 180 -359 265 -587 266 -101 1 -124 -3 -189
-26 -89 -32 -102 -33 -126 -7 -16 17 -16 26 -5 103 10 67 10 91 0 123 -33 99
-129 184 -249 218 -55 15 -212 46 -236 46 -5 0 24 -22 65 -48z"/>
<path d="M4041 9072 c143 -84 226 -180 255 -291 22 -87 13 -155 -39 -309 -59
-177 -44 -192 117 -117 126 59 227 85 330 85 114 0 180 -19 336 -97 123 -62
143 -75 225 -158 73 -72 100 -108 137 -181 87 -168 105 -268 118 -669 6 -159
14 -310 18 -335 8 -42 9 -39 16 50 4 52 16 174 26 270 49 447 32 689 -61 886
-98 207 -320 375 -560 424 -129 27 -199 25 -305 -6 -133 -40 -139 -40 -159
-10 -14 21 -15 33 -6 76 23 108 7 179 -59 254 -61 68 -143 105 -305 137 -130
25 -139 24 -84 -9z"/>
<path d="M3321 8735 c-95 -21 -239 -95 -308 -159 -50 -46 -132 -146 -120 -146
2 0 34 25 72 55 159 126 365 186 450 131 47 -31 28 -106 -47 -191 -22 -25 -35
-45 -30 -45 17 0 139 98 176 141 82 97 69 190 -31 218 -48 14 -82 13 -162 -4z"/>
<path d="M6095 8650 c-28 -108 -27 -252 4 -350 32 -103 54 -143 186 -341 131
-196 186 -302 211 -404 19 -79 22 -236 6 -305 -28 -119 29 5 65 140 28 110 35
276 13 374 -12 57 -16 64 -129 175 -123 121 -167 180 -231 309 -62 125 -91
231 -99 362 l-6 115 -20 -75z"/>
<path d="M3751 8473 c89 -47 162 -115 194 -185 34 -73 34 -167 -2 -304 -26
-99 -26 -105 -10 -122 17 -16 20 -16 60 7 287 161 413 169 683 42 93 -44 117
-61 183 -129 135 -136 194 -286 226 -573 27 -245 47 -393 54 -406 11 -21 13
608 2 699 -26 202 -83 346 -179 449 -190 206 -485 283 -719 189 -107 -43 -113
-39 -113 77 0 63 -5 93 -19 122 -27 53 -89 105 -153 129 -55 21 -180 42 -245
42 -33 0 -32 -2 38 -37z"/>
<path d="M3027 8344 c-31 -7 -70 -20 -85 -28 -15 -7 -61 -19 -102 -26 -158
-26 -304 -80 -389 -144 -47 -35 -134 -198 -129 -242 l4 -32 -51 45 c-27 24
-84 61 -124 81 -69 34 -82 37 -160 37 -77 0 -91 -3 -141 -31 -176 -98 -199
-356 -57 -641 22 -45 42 -81 43 -80 2 1 -10 41 -26 88 -73 217 -70 408 7 500
33 39 93 69 152 76 114 13 201 -59 217 -180 l6 -43 -98 -67 c-165 -111 -175
-124 -59 -73 237 103 407 146 587 146 163 0 278 -28 491 -118 l68 -29 64 34
c267 141 593 137 684 -10 20 -32 41 -127 28 -127 -3 0 -43 9 -89 20 -142 34
-334 24 -488 -27 -25 -8 -84 -33 -131 -55 l-87 -40 -43 30 c-171 117 -411 183
-614 168 -404 -28 -594 -286 -379 -516 26 -28 48 -49 50 -47 2 1 -3 21 -11 42
-19 52 -19 134 0 178 50 120 230 186 438 159 110 -14 226 -50 320 -100 73 -40
87 -62 87 -148 0 -70 -10 -106 -29 -98 -123 52 -155 58 -306 58 -147 1 -151 0
-210 -29 -82 -41 -118 -89 -123 -163 -2 -31 1 -76 7 -100 l12 -42 72 74 c87
88 149 116 255 116 98 0 231 -35 259 -69 12 -14 22 -29 23 -33 0 -3 -24 -12
-52 -18 -29 -7 -69 -21 -89 -31 -36 -18 -99 -81 -99 -99 0 -6 24 -7 60 -3 65
6 131 -7 169 -36 21 -16 23 -23 17 -64 -7 -47 -56 -132 -88 -151 -12 -7 -30
-6 -65 7 -26 9 -62 17 -79 17 -55 0 -104 -54 -118 -130 l-7 -35 15 32 c41 90
87 95 161 18 84 -87 127 -74 176 53 11 31 23 93 26 136 5 69 8 77 20 61 9 -13
13 -56 14 -144 0 -128 5 -135 30 -41 11 41 12 43 19 20 12 -42 57 -124 79
-144 21 -19 21 -19 71 32 28 29 62 55 75 58 40 10 78 -9 102 -52 20 -34 23
-36 23 -15 0 45 -24 102 -53 127 -35 29 -53 30 -92 4 -16 -11 -40 -20 -52 -20
-28 0 -87 69 -109 127 -17 43 -17 44 7 70 51 55 125 66 228 34 l62 -19 -6 21
c-18 60 -67 101 -149 122 -32 8 -60 16 -62 18 -2 2 0 16 4 33 10 35 48 56 157
84 135 35 261 24 318 -28 10 -9 30 -40 44 -69 15 -34 35 -59 54 -68 27 -14 29
-20 29 -73 0 -105 -61 -198 -202 -304 -47 -37 -63 -54 -52 -57 24 -4 122 15
239 49 184 53 248 58 303 24 28 -18 29 -71 6 -186 -10 -51 -14 -103 -11 -141
19 -205 19 -210 -5 -252 -13 -22 -44 -52 -71 -69 -69 -42 -154 -46 -316 -12
-68 14 -148 26 -177 26 -51 0 -54 1 -54 25 0 23 35 105 44 105 2 0 25 -12 52
-27 42 -24 60 -28 131 -28 74 0 85 3 125 30 44 31 97 112 98 150 1 18 24 90
44 137 7 16 5 17 -23 7 -26 -9 -38 -7 -83 15 -101 50 -208 28 -299 -63 -82
-83 -97 -119 -204 -495 -7 -26 -21 -56 -29 -65 -25 -27 -56 -104 -56 -138 0
-36 15 -44 25 -14 10 32 43 36 71 10 33 -31 47 -89 39 -163 l-6 -61 30 35 c17
19 40 54 52 78 20 41 22 42 35 23 8 -11 19 -44 24 -73 6 -29 42 -119 81 -200
82 -170 84 -187 25 -267 -53 -71 -78 -85 -173 -91 -76 -6 -84 -8 -128 -46 -26
-21 -61 -49 -78 -61 -48 -35 -18 -27 46 11 77 47 89 49 132 31 60 -24 98 -19
149 20 26 19 48 35 50 35 11 0 -54 -141 -81 -179 -2 -2 -35 9 -73 24 l-71 28
-53 -22 -54 -22 -108 33 -108 34 57 38 c70 47 122 108 147 175 18 46 18 55 5
145 -20 133 -41 210 -78 286 -42 86 -42 152 -2 270 30 90 37 162 17 195 -10
17 -11 14 -12 -26 0 -66 -23 -134 -67 -198 -52 -75 -51 -116 5 -208 65 -108
84 -172 86 -290 1 -95 -1 -103 -24 -128 -33 -36 -94 -70 -166 -95 l-59 -20
-60 29 c-35 18 -85 55 -119 90 -55 56 -60 64 -64 115 -6 71 13 125 76 218 57
85 77 137 68 181 -4 18 -29 83 -57 146 -32 72 -53 135 -56 170 -5 44 -8 50
-15 32 -8 -24 12 -139 37 -212 30 -85 18 -174 -55 -404 -41 -129 -59 -246 -46
-298 8 -32 100 -133 156 -172 l41 -28 -73 -20 c-83 -22 -89 -22 -140 -9 -29 7
-48 5 -90 -10 -99 -36 -93 -37 -163 34 -35 36 -73 84 -85 108 -24 46 -40 160
-23 160 11 0 59 -58 96 -117 15 -23 38 -50 52 -59 22 -15 29 -14 94 2 65 17
71 17 112 1 35 -13 40 -14 24 -2 -29 23 -89 36 -147 34 -48 -3 -53 0 -84 35
-18 21 -53 77 -77 125 l-43 86 18 70 c10 39 21 108 24 155 5 69 12 97 39 150
34 67 88 210 82 216 -2 2 -30 -42 -62 -99 -33 -56 -61 -104 -64 -107 -4 -3
-19 -32 -36 -64 -30 -59 -36 -65 -194 -183 -36 -27 -79 -70 -98 -97 -116 -169
-89 -459 55 -587 56 -48 127 -73 222 -75 l75 -1 77 -89 c42 -49 81 -90 86 -92
4 -1 14 9 22 22 17 32 27 26 40 -25 15 -55 -8 -132 -60 -198 -66 -83 -74 -86
-235 -86 -123 -1 -145 -3 -180 -22 -42 -22 -81 -59 -110 -106 -10 -16 -35 -37
-55 -47 -67 -34 -116 -130 -127 -250 l-6 -64 40 42 c44 46 82 55 108 25 8 -10
31 -37 51 -61 24 -27 53 -48 84 -59 l48 -17 -6 -102 c-2 -56 -2 -114 2 -129
l7 -27 22 43 c15 28 38 51 67 67 l45 25 39 -27 c21 -14 52 -26 67 -26 28 0 29
-2 29 -50 0 -60 31 -154 62 -187 l22 -24 13 45 c7 25 18 48 23 51 6 4 34 -6
64 -20 47 -23 59 -25 93 -16 21 6 59 24 85 40 l47 30 25 -44 c30 -51 97 -111
132 -118 28 -5 28 -7 9 29 -8 16 -15 46 -15 67 l0 38 48 -8 c77 -13 123 -5
198 32 90 44 205 148 229 207 25 60 23 204 -4 332 -37 176 -27 253 55 420 24
50 44 104 44 121 0 16 -18 68 -40 115 l-39 84 30 51 c16 27 33 56 37 62 6 10
17 10 42 3 66 -19 163 -12 213 14 l46 25 40 -30 c44 -31 44 -31 65 -159 52
-305 43 -621 -23 -812 -10 -30 -63 -126 -118 -214 -251 -401 -369 -643 -427
-870 -14 -54 -45 -196 -70 -314 -25 -118 -52 -237 -61 -265 -16 -56 -173 -337
-240 -430 -69 -97 -161 -177 -230 -200 -153 -51 -263 -192 -296 -379 -23 -134
9 -283 76 -351 l39 -40 6 60 c7 64 33 125 53 125 6 0 30 -12 52 -25 49 -30 94
-32 129 -4 14 11 26 16 26 12 0 -5 20 -38 43 -74 38 -56 45 -74 50 -134 3 -39
14 -92 23 -119 14 -42 18 -46 27 -30 32 59 81 124 98 129 10 4 44 -3 74 -14
65 -24 144 -27 184 -7 15 8 44 33 64 55 l36 40 15 -53 c31 -106 102 -170 222
-201 47 -12 72 -13 114 -5 29 6 56 7 59 4 14 -14 5 -93 -13 -113 -24 -26 -16
-26 33 -1 80 40 151 160 151 251 0 29 9 56 32 90 17 27 33 49 36 49 2 0 27
-20 55 -44 65 -54 87 -66 127 -66 38 0 65 13 106 52 18 16 40 28 49 26 33 -6
59 -54 59 -111 l1 -53 19 24 c29 37 56 137 56 209 0 55 4 70 25 95 13 16 30
48 36 71 23 83 -23 224 -99 305 -35 37 -42 40 -121 50 -46 7 -94 18 -107 27
-34 22 -77 89 -166 259 -44 83 -87 159 -95 168 -37 42 34 305 137 506 72 143
146 250 278 404 340 397 554 702 703 998 121 242 192 435 228 623 17 89 22
100 79 174 191 252 305 489 366 764 33 150 42 240 61 569 17 301 30 455 46
540 19 101 61 211 106 279 l44 66 -57 -60 c-169 -181 -247 -436 -289 -950 -35
-427 -78 -636 -179 -864 -90 -205 -210 -351 -386 -470 -52 -36 -136 -105 -186
-155 -135 -135 -173 -224 -194 -460 -16 -184 -59 -287 -153 -372 -40 -36 -46
-45 -27 -39 41 12 108 54 145 91 66 66 101 155 145 369 36 176 136 324 282
419 28 18 28 18 38 -9 31 -83 1 -152 -126 -287 -53 -57 -105 -121 -115 -143
-10 -22 -25 -97 -33 -165 -22 -194 -52 -262 -192 -436 -150 -186 -211 -211
-170 -70 9 30 28 68 42 85 31 37 21 40 -26 7 -64 -43 -119 -184 -120 -302 0
-24 -6 -47 -15 -54 -8 -7 -38 -44 -67 -82 l-52 -71 -14 39 c-8 22 -14 78 -15
129 -1 98 20 172 85 310 18 39 34 75 37 80 2 6 -12 -4 -30 -21 -82 -76 -183
-127 -362 -179 -158 -47 -238 -87 -313 -157 -68 -64 -115 -144 -139 -233 -22
-87 -18 -108 9 -43 50 123 138 207 287 277 88 41 215 81 260 81 74 0 104 -81
97 -261 -4 -90 -9 -115 -32 -162 -25 -52 -84 -117 -107 -117 -6 0 -19 21 -31
46 -26 60 -21 141 11 185 29 39 23 45 -19 17 -43 -29 -78 -97 -91 -176 -8 -51
-6 -83 8 -160 10 -55 18 -142 18 -202 -1 -94 -4 -112 -29 -168 -41 -89 -85
-124 -200 -161 -53 -17 -106 -32 -119 -33 -12 -1 28 -4 90 -7 91 -5 117 -10
139 -26 15 -12 62 -83 105 -158 l78 -137 -14 -35 c-16 -36 -19 -117 -6 -150 6
-16 9 -12 15 20 8 42 31 85 45 85 5 0 31 -18 57 -41 80 -66 119 -82 184 -76
73 8 96 1 119 -37 22 -34 45 -122 36 -136 -3 -5 -17 2 -31 15 -43 40 -62 41
-100 4 -59 -57 -77 -110 -72 -209 3 -47 9 -93 13 -102 6 -15 2 -18 -21 -18
-51 0 -104 20 -120 46 -9 13 -25 64 -34 113 -23 112 -44 159 -108 242 -108
141 -151 233 -161 349 l-7 75 -17 -54 c-9 -30 -17 -77 -17 -103 l0 -49 -35 7
c-40 7 -85 -8 -101 -34 -10 -15 -5 -17 46 -17 73 0 91 -15 120 -104 16 -52 33
-80 74 -123 96 -102 126 -212 82 -301 l-19 -37 -32 73 c-58 134 -100 172 -138
126 -45 -55 -96 -209 -97 -291 0 -16 -4 -28 -8 -28 -26 0 -125 77 -146 113
-34 59 -38 92 -26 191 18 149 60 228 134 256 28 10 28 12 13 28 -12 12 -31 16
-67 14 l-50 -2 0 53 c0 37 7 66 26 101 30 56 29 105 -1 204 -24 78 -39 57 -31
-42 l7 -81 -46 -86 c-52 -101 -71 -172 -86 -329 -13 -140 -31 -209 -65 -250
-29 -34 -81 -64 -132 -75 -30 -6 -33 -5 -29 11 15 55 17 103 7 172 -16 100
-47 202 -66 209 -40 15 -123 -57 -187 -164 -18 -29 -35 -53 -39 -53 -17 0 -7
77 16 125 27 57 64 94 152 153 74 50 100 88 122 183 14 59 21 73 42 81 23 9
91 4 129 -9 9 -4 3 8 -14 26 -17 19 -48 37 -72 44 -47 12 -54 31 -28 77 18 32
19 46 1 31 -7 -6 -30 -53 -51 -104 -65 -156 -122 -230 -218 -278 -23 -12 -56
-32 -74 -45 l-31 -24 -17 28 c-18 28 -54 61 -68 62 -4 0 -1 -10 8 -23 28 -43
29 -108 5 -209 -13 -51 -28 -99 -34 -107 -29 -37 -97 -28 -120 18 -12 22 -12
37 1 96 15 69 13 209 -2 248 -9 22 -22 22 -70 -3 -22 -11 -41 -20 -42 -20 -7
0 28 73 47 101 12 16 42 41 66 55 38 23 63 28 154 34 96 6 118 11 182 43 40
19 88 48 106 64 l34 28 -45 -3 c-74 -6 -72 28 9 150 47 71 149 276 180 365
l18 52 32 -32 c17 -18 49 -47 72 -65 50 -40 67 -86 49 -140 -10 -30 -22 -42
-66 -64 l-55 -28 75 0 c168 0 304 66 358 175 21 41 25 73 36 244 20 300 44
398 118 478 45 49 43 53 -12 19 -81 -52 -122 -122 -179 -315 -43 -142 -67
-181 -129 -207 -80 -34 -157 -5 -203 76 -23 42 -25 54 -25 185 1 130 3 146 31
225 71 202 227 348 449 421 53 18 93 23 167 24 88 0 95 1 87 17 -19 35 -89 61
-178 66 -95 5 -173 -9 -244 -45 l-49 -24 30 43 c123 178 241 238 343 175 121
-74 149 -88 195 -97 66 -14 131 0 190 41 57 39 56 45 -2 14 -50 -27 -113 -32
-160 -14 -16 5 -58 34 -94 63 -78 63 -119 86 -156 86 l-27 0 22 24 c38 40 117
69 176 64 102 -9 185 -73 185 -143 0 -32 7 -31 89 18 114 69 231 225 266 357
17 63 20 196 5 205 -6 3 -10 -4 -10 -17 0 -42 -56 -143 -115 -206 -41 -45 -78
-72 -133 -99 l-76 -38 -225 -5 c-124 -3 -228 -5 -229 -4 -9 6 58 104 98 145
37 39 59 51 130 74 98 31 131 49 182 102 53 54 77 117 94 244 8 61 17 123 20
138 11 45 52 108 86 130 18 11 27 21 20 21 -32 0 -99 -90 -164 -220 -83 -168
-125 -218 -229 -271 -120 -60 -123 -56 -43 62 31 45 69 110 85 144 49 103 70
256 50 360 -7 38 -7 37 -15 -32 -14 -135 -67 -284 -134 -371 -53 -70 -57 -65
-58 92 -1 148 -9 219 -50 429 -13 71 -27 169 -31 218 -3 49 -10 89 -14 89 -13
0 -39 -56 -39 -85 0 -20 -4 -26 -17 -23 -14 3 -17 11 -13 38 3 19 5 89 4 155
-1 100 -5 133 -26 197 l-26 78 42 -8 c22 -4 97 -7 166 -7 160 1 218 21 301
105 69 68 113 153 144 276 23 88 43 224 32 214 -3 -3 -17 -34 -32 -70 -32 -76
-98 -180 -146 -230 -157 -164 -384 -188 -624 -67 -150 75 -292 190 -348 280
l-38 62 26 23 c28 24 60 29 71 11 5 -8 31 -10 82 -6 111 8 143 -12 127 -82
l-6 -29 -55 15 c-31 8 -60 13 -66 11 -15 -5 110 -94 188 -133 188 -94 413
-100 568 -17 28 15 79 55 113 89 144 143 210 397 183 712 -6 75 -15 152 -19
171 -7 31 -8 27 -15 -40 -43 -417 -149 -670 -327 -777 -81 -49 -155 -64 -294
-63 -66 0 -149 6 -185 13 l-65 13 3 39 c2 22 6 43 10 47 4 4 32 1 62 -7 133
-36 263 -11 340 63 83 81 98 178 55 343 -30 114 -31 173 -5 307 24 123 25 154
5 192 -22 43 -74 54 -176 39 -44 -6 -82 -9 -85 -6 -3 3 15 24 41 48 59 54 75
86 75 147 0 38 -6 58 -29 89 -34 47 -86 82 -135 90 -32 5 -37 10 -52 56 -24
71 -95 140 -165 161 -115 34 -284 13 -463 -60 -18 -7 -19 -4 -13 53 4 34 16
86 28 117 23 64 46 82 164 134 303 132 555 66 748 -196 l45 -62 7 39 c8 49 -8
138 -35 190 -21 42 -75 102 -125 140 -29 21 -29 22 -5 16 101 -25 195 -99 243
-190 l21 -40 8 35 c4 20 3 58 -3 86 -13 66 -59 121 -138 163 -34 18 -61 38
-61 45 0 19 35 117 58 162 32 62 106 131 163 149 88 29 180 0 215 -67 55 -105
10 -380 -81 -497 -37 -47 -43 -76 -22 -105 12 -16 13 -14 13 17 0 26 13 52 52
104 67 91 88 139 102 241 33 224 -22 357 -164 402 -134 43 -316 -54 -394 -209
-27 -54 -32 -59 -44 -44 -27 33 -134 94 -203 116 -60 19 -92 22 -220 22 -149
-1 -246 -14 -373 -51 -33 -9 -58 -12 -65 -6 -29 22 -169 72 -246 87 -150 31
-356 11 -512 -50 -13 -5 -21 4 -34 39 -9 24 -14 50 -10 56 10 17 137 74 220
99 118 37 233 24 292 -31 19 -18 23 -19 23 -6 0 28 -48 75 -102 99 -70 31
-233 35 -286 6 -33 -18 -33 -18 -22 2 17 33 108 79 188 97 123 27 219 3 280
-72 27 -33 39 -64 57 -148 9 -42 27 -19 33 42 6 63 -26 139 -78 186 -28 25
-35 37 -27 45 20 20 86 12 147 -19 72 -36 96 -37 135 -5 l30 24 -47 1 c-108 0
-131 42 -39 73 37 12 85 18 158 18 58 0 103 2 100 5 -3 3 -40 12 -83 19 -99
18 -222 18 -297 -1z m-667 -534 c0 -4 -12 -12 -26 -19 -24 -10 -26 -10 -19 6
4 10 10 27 13 37 5 18 6 18 19 1 7 -11 13 -22 13 -25z m1430 -1651 c6 -11 11
-45 11 -75 0 -114 -80 -173 -143 -106 -32 33 -48 72 -48 118 0 28 6 38 32 54
40 24 43 20 62 -86 13 -76 14 -78 21 -41 8 39 3 108 -10 140 -11 27 60 24 75
-4z m61 -12 c27 -18 35 -30 37 -62 8 -90 -64 -182 -160 -205 -61 -15 -114 -7
-178 25 l-49 25 13 45 c15 47 59 130 76 140 6 4 10 -8 10 -29 0 -99 74 -171
145 -142 55 23 85 104 67 184 -6 23 -7 42 -2 42 4 0 22 -10 41 -23z m-116
-1039 c39 -31 84 -71 102 -89 44 -47 73 -148 73 -253 0 -80 -20 -169 -41 -182
-6 -3 -46 9 -90 26 -63 26 -79 36 -74 49 18 45 35 143 35 198 0 52 -6 72 -37
130 -57 105 -122 237 -123 248 0 5 19 -9 43 -31 23 -23 74 -66 112 -96z
m-1411 -79 c-50 -156 -56 -181 -52 -239 7 -91 45 -163 140 -264 l78 -84 -52
-21 c-60 -25 -78 -26 -144 -6 -53 15 -109 66 -138 122 -24 48 -43 131 -56 241
-16 139 -5 162 150 316 66 65 121 124 121 130 1 6 3 4 6 -5 2 -9 -21 -95 -53
-190z m1404 -514 c28 -9 52 -20 52 -25 0 -22 -151 -57 -191 -45 -18 6 -17 10
22 50 23 24 47 42 53 40 6 -2 35 -11 64 -20z m-271 -20 c23 -14 43 -28 43 -30
0 -2 -30 5 -67 16 -38 10 -72 19 -78 19 -18 0 20 20 39 20 11 0 39 -11 63 -25z
m-734 -167 c17 -20 18 -20 80 -2 82 25 305 26 389 2 54 -15 58 -15 74 3 12 13
31 19 61 19 l45 0 -7 -40 c-4 -25 -3 -46 4 -54 8 -9 -3 -24 -45 -60 -53 -46
-55 -47 -48 -20 7 28 7 28 -44 -15 l-52 -43 0 34 -1 33 -34 -37 c-20 -21 -38
-38 -41 -38 -3 0 -12 17 -21 38 l-16 37 -21 -48 c-21 -48 -36 -53 -36 -13 0
12 -4 27 -9 35 -7 11 -14 4 -30 -27 -12 -23 -23 -42 -26 -42 -3 0 -14 19 -26
43 -12 23 -23 44 -25 45 -1 2 -16 -4 -32 -14 -29 -17 -31 -17 -78 11 -64 36
-101 72 -125 117 -29 56 -26 71 14 63 17 -4 40 -16 50 -27z m711 -130 c8 -13
18 -35 21 -50 10 -38 -14 -37 -57 1 -32 29 -33 29 -14 50 24 27 32 26 50 -1z
m-36 -140 c45 -66 62 -104 62 -138 0 -32 -25 -96 -42 -106 -18 -12 -98 48
-142 107 -25 33 -46 65 -46 71 0 5 -4 6 -10 3 -35 -22 26 -162 119 -272 32
-39 64 -81 71 -94 12 -22 17 -175 6 -186 -2 -3 -15 2 -28 10 -33 21 -82 30
-120 21 l-33 -7 40 -14 c72 -25 116 -81 136 -172 21 -100 -20 -167 -136 -222
-65 -31 -111 -36 -139 -16 -17 13 -17 15 -2 45 34 66 6 168 -60 218 -60 46
-38 114 61 185 51 37 80 89 96 173 14 79 7 90 -18 25 -21 -53 -21 -54 -28 -24
-18 80 -22 81 -28 7 -4 -41 -13 -85 -21 -99 -13 -25 -14 -24 -25 39 -12 61
-46 136 -57 126 -2 -3 2 -34 11 -69 22 -95 20 -135 -10 -164 -13 -14 -30 -25
-38 -25 -8 0 -33 -20 -55 -44 -51 -55 -77 -136 -92 -283 -10 -98 -14 -110 -38
-130 -27 -23 -88 -41 -99 -30 -3 3 -6 41 -7 84 -2 83 -29 161 -81 229 -50 66
-22 90 112 97 110 5 146 23 180 86 24 45 29 108 13 146 -6 15 -9 8 -9 -28 -1
-57 -19 -94 -58 -123 -42 -31 -76 -36 -168 -23 -140 20 -173 -11 -196 -188
-13 -93 -13 -93 -41 -93 -16 0 -40 7 -53 16 -23 15 -24 18 -10 44 31 59 13
167 -38 233 -24 32 -25 35 -10 65 29 61 71 76 223 82 108 4 142 9 163 23 30
19 47 53 47 93 l0 26 -26 -32 c-52 -62 -107 -74 -183 -40 -73 33 -158 21 -242
-35 -48 -31 -94 -123 -110 -220 -15 -87 -27 -94 -83 -44 -48 41 -52 60 -21
104 21 32 25 49 25 109 0 39 -5 89 -11 111 -11 37 -10 41 20 67 41 37 88 44
166 24 35 -9 81 -16 103 -16 53 0 121 45 178 120 26 33 51 57 56 52 11 -11 15
-130 5 -167 l-7 -30 24 28 c52 57 68 172 42 295 -7 34 -11 62 -8 62 13 0 84
-66 99 -92 l18 -30 5 39 6 38 51 -52 52 -51 10 29 c14 40 28 36 36 -11 4 -22
10 -42 14 -44 4 -3 15 18 24 45 21 58 37 63 37 12 1 -37 1 -38 18 -17 9 11 25
31 34 45 l18 24 -6 -30 -7 -30 27 25 c15 14 35 37 44 53 21 35 31 34 38 -3 l6
-29 46 50 46 51 12 -36 c7 -20 26 -55 42 -78z m-1304 -384 c10 -26 7 -62 -6
-71 -7 -4 -26 -6 -41 -4 -33 3 -83 -28 -115 -73 l-23 -31 7 30 c11 49 52 122
80 144 32 25 89 28 98 5z m255 -241 c12 -10 24 -35 28 -55 6 -40 -7 -56 -87
-117 -18 -14 -41 -43 -52 -65 l-19 -41 5 57 c9 89 69 238 95 238 5 0 18 -8 30
-17z m656 -164 c13 -20 29 -54 35 -76 11 -37 10 -43 -11 -73 -21 -28 -24 -42
-24 -130 l0 -99 -23 22 c-91 85 -113 311 -39 405 12 16 31 2 62 -49z m-390
-59 c8 -16 18 -50 22 -75 5 -41 4 -45 -15 -45 -24 0 -70 -51 -78 -88 -3 -15
-7 -31 -8 -37 -4 -15 -36 85 -36 112 0 45 66 163 91 163 5 0 15 -13 24 -30z"/>
<path d="M3635 6080 c-3 -6 1 -7 9 -4 18 7 21 14 7 14 -6 0 -13 -4 -16 -10z"/>
<path d="M3645 6040 c-3 -6 1 -7 9 -4 18 7 21 14 7 14 -6 0 -13 -4 -16 -10z"/>
<path d="M3675 6009 c-4 -6 -5 -12 -2 -15 2 -3 7 2 10 11 7 17 1 20 -8 4z"/>
<path d="M2825 3986 c37 -49 67 -141 68 -211 l0 -59 76 81 c42 44 94 93 115
107 21 14 33 26 25 26 -22 -1 -96 -37 -134 -66 -29 -21 -35 -23 -35 -10 0 31
-39 94 -81 130 -53 45 -68 46 -34 2z"/>
<path d="M4745 7725 c-87 -285 -68 -520 63 -780 22 -44 115 -192 206 -328 213
-317 274 -440 317 -632 18 -83 16 -310 -5 -409 -8 -44 -14 -81 -12 -83 5 -5
82 185 99 247 55 193 66 425 29 605 -20 93 -23 102 -58 130 -167 134 -261 235
-369 395 -113 169 -207 398 -240 586 -17 97 -19 248 -5 309 16 72 2 49 -25
-40z"/>
<path d="M6815 7737 c-70 -201 -184 -460 -261 -599 -78 -139 -119 -186 -220
-253 -127 -84 -242 -203 -288 -297 -41 -85 -62 -201 -51 -275 l8 -48 13 59
c33 142 128 261 258 325 89 44 101 40 101 -30 0 -46 -8 -72 -42 -140 -23 -46
-65 -115 -93 -154 -125 -170 -192 -395 -189 -640 l1 -70 18 100 c40 226 93
348 328 760 184 321 252 483 325 770 40 155 120 535 114 541 -2 2 -11 -20 -22
-49z"/>
<path d="M5229 7608 c-29 -109 -37 -285 -16 -384 31 -144 92 -262 289 -552
114 -168 185 -304 219 -417 36 -121 37 -312 3 -465 -5 -23 -4 -22 12 5 25 43
71 173 91 257 25 100 25 376 1 463 -15 50 -25 66 -65 99 -164 134 -323 339
-401 518 -77 176 -119 372 -105 499 3 32 3 59 1 59 -3 0 -16 -37 -29 -82z"/>
<path d="M1655 7121 c-82 -48 -132 -97 -165 -164 -49 -101 -51 -224 -4 -410
19 -74 12 -88 -87 -165 -42 -33 -79 -68 -83 -77 -3 -9 -3 -15 1 -13 99 51 170
68 280 68 34 0 64 3 67 8 2 4 -9 59 -25 122 -44 172 -62 286 -54 353 9 85 39
174 79 234 44 67 48 73 44 73 -2 0 -25 -13 -53 -29z"/>
<path d="M4273 6959 c119 -119 150 -212 162 -474 3 -76 8 -141 10 -144 3 -2
50 6 106 19 96 22 167 23 226 4 49 -16 -39 38 -102 63 -101 39 -110 51 -119
158 -10 124 -22 178 -53 247 -44 98 -150 175 -271 195 -32 6 -30 4 41 -68z"/>
<path d="M2080 6879 c-70 -28 -130 -106 -130 -169 0 -49 27 -101 78 -148 l47
-45 -96 8 c-124 9 -163 -5 -178 -62 -11 -41 -7 -80 24 -228 18 -89 16 -116
-22 -275 -29 -121 -26 -176 13 -257 57 -119 212 -171 377 -128 75 19 77 19 77
-7 1 -13 7 -34 15 -48 14 -24 14 -23 15 27 0 67 17 78 106 68 43 -4 75 -2 99
6 31 11 39 11 63 -3 15 -9 28 -23 30 -31 2 -7 -14 -38 -35 -68 -59 -86 -49
-163 32 -256 l34 -38 -6 35 c-6 45 10 107 40 151 32 47 52 48 77 2 l21 -38 -6
49 c-3 27 -5 56 -5 65 0 10 -16 44 -36 77 -20 32 -42 79 -49 104 -61 217 -106
355 -128 393 -36 61 -107 130 -160 156 -63 30 -158 29 -214 -3 -35 -21 -48
-23 -75 -15 -18 5 -34 9 -34 9 -1 0 9 -26 22 -57 13 -32 24 -67 24 -78 0 -11
10 -40 21 -65 59 -131 195 -174 333 -106 36 18 54 22 63 15 17 -15 46 -95 38
-108 -3 -6 -33 -11 -66 -11 -32 0 -99 -9 -147 -19 -48 -11 -117 -23 -153 -27
-126 -13 -229 39 -265 133 -15 40 -16 54 -6 114 16 92 15 199 -3 279 -32 147
-16 175 99 174 50 0 115 -12 221 -41 83 -23 173 -44 200 -47 l50 -6 -45 37
c-189 160 -220 208 -230 360 -3 60 -12 108 -19 117 -15 18 -72 20 -111 5z
m223 -664 c12 -5 12 -12 -1 -50 -10 -31 -12 -59 -7 -92 8 -46 8 -47 16 -18 4
17 13 56 19 88 6 31 14 57 16 57 3 0 18 -7 34 -15 27 -14 30 -21 30 -62 0 -58
-39 -130 -76 -139 -35 -9 -70 9 -95 48 -27 44 -23 153 6 174 20 15 35 17 58 9z
m-91 -80 c-7 -103 32 -165 103 -165 54 0 115 87 115 164 0 17 2 16 19 -5 26
-34 57 -99 66 -137 7 -32 5 -33 -50 -58 -48 -22 -67 -26 -129 -22 -60 3 -80 8
-113 31 -53 37 -85 96 -87 160 -1 47 1 52 33 74 19 13 37 23 40 23 4 0 5 -29
3 -65z"/>
<path d="M2248 6153 c7 -3 16 -2 19 1 4 3 -2 6 -13 5 -11 0 -14 -3 -6 -6z"/>
<path d="M2370 6121 c0 -5 7 -12 16 -15 14 -5 15 -4 4 9 -14 17 -20 19 -20 6z"/>
<path d="M2360 6076 c0 -2 7 -7 16 -10 8 -3 12 -2 9 4 -6 10 -25 14 -25 6z"/>
<path d="M2330 6046 c0 -2 8 -10 18 -17 15 -13 16 -12 3 4 -13 16 -21 21 -21
13z"/>
<path d="M4731 6730 c-1 -143 32 -234 150 -416 145 -223 170 -296 176 -514 7
-210 -16 -302 -107 -435 -117 -172 -142 -354 -86 -625 34 -164 33 -307 -2
-399 -12 -30 -20 -57 -17 -59 9 -9 66 85 84 141 31 92 41 183 41 372 0 194 11
286 41 356 31 71 45 79 63 35 24 -58 73 -123 110 -145 47 -29 50 -27 22 17
-53 79 -57 186 -25 562 33 379 23 409 -214 713 -100 128 -171 258 -209 382
l-27 90 0 -75z"/>
<path d="M2900 6238 c-23 -18 -51 -48 -62 -66 l-21 -33 38 25 c40 28 83 33
117 15 24 -13 57 -83 58 -124 1 -24 5 -18 25 35 26 70 64 113 93 103 9 -3 29
-17 45 -31 32 -30 34 -25 7 27 -22 45 -64 81 -92 81 -10 0 -29 -11 -41 -24
l-22 -24 -35 24 c-45 31 -60 30 -110 -8z"/>
<path d="M1360 6160 c-8 -64 -11 -166 -7 -273 4 -148 8 -184 31 -262 37 -123
80 -199 152 -273 173 -174 426 -196 698 -61 63 31 182 116 174 124 -2 3 -28
-2 -58 -11 -98 -26 -280 -54 -353 -54 -356 1 -535 232 -602 776 -9 71 -18 130
-19 132 -2 2 -9 -43 -16 -98z"/>
<path d="M2847 6050 c-26 -20 -87 -101 -87 -115 0 -4 17 7 37 24 65 53 119 38
141 -39 10 -34 10 -34 11 20 1 65 -24 124 -55 128 -11 2 -32 -7 -47 -18z"/>
<path d="M3126 6045 c-13 -14 -26 -39 -30 -56 -9 -48 -7 -109 4 -109 6 0 10 8
10 18 0 28 38 82 65 92 32 12 68 -3 86 -36 19 -37 22 -21 3 25 -18 46 -65 91
-95 91 -11 0 -30 -11 -43 -25z"/>
<path d="M5681 5533 c-57 -109 -131 -241 -166 -293 -59 -89 -211 -266 -305
-355 -75 -71 -102 -146 -135 -375 -9 -63 -24 -138 -34 -167 -16 -48 -16 -51
-1 -43 39 21 90 118 135 256 65 203 133 304 284 426 l76 61 7 -34 c3 -19 3
-68 -2 -109 -33 -287 -230 -566 -495 -701 -269 -138 -374 -273 -466 -598 -30
-106 -38 -165 -14 -100 32 88 108 210 179 288 23 24 109 95 193 157 237 176
347 291 486 504 179 277 262 488 287 737 27 261 42 373 60 452 11 46 19 86 17
88 -2 2 -50 -85 -106 -194z"/>
<path d="M1285 5314 c22 -116 83 -216 160 -264 55 -34 142 -59 264 -76 140
-20 151 -28 186 -133 14 -42 33 -88 43 -104 18 -27 18 -27 14 57 -4 70 0 100
23 180 15 53 25 99 22 102 -3 3 -76 12 -163 20 -260 24 -347 55 -460 168 -39
39 -77 82 -86 96 -15 23 -15 20 -3 -46z"/>
<path d="M2465 5215 c-5 -16 -9 -56 -9 -88 1 -46 6 -64 28 -95 15 -20 53 -75
84 -120 l56 -84 12 49 c6 26 19 68 28 92 11 30 16 74 15 140 l-1 96 -18 -72
c-20 -76 -44 -123 -64 -123 -44 0 -106 95 -116 178 -6 53 -7 55 -15 27z"/>
<path d="M3316 5164 c-12 -94 -8 -127 26 -180 17 -27 40 -71 49 -98 l17 -49 6
34 c20 101 31 132 57 165 24 30 29 46 29 90 0 68 -13 76 -28 17 -7 -25 -26
-59 -43 -76 l-32 -31 -22 26 c-13 16 -26 47 -30 75 -9 72 -21 83 -29 27z"/>
<path d="M4712 4943 c-15 -74 -50 -125 -108 -159 -105 -62 -272 -14 -290 83
-4 23 -1 41 10 58 15 22 15 25 1 25 -29 0 -92 -38 -125 -76 -76 -87 -116 -240
-105 -404 3 -53 10 -109 14 -125 9 -29 9 -29 10 10 4 159 73 332 150 378 31
18 32 18 72 -6 l41 -25 -30 -10 c-77 -27 -147 -128 -177 -254 -16 -68 -19
-257 -6 -323 5 -22 9 -35 10 -30 20 184 42 260 95 340 18 28 45 56 59 64 25
13 32 12 84 -15 50 -25 69 -29 139 -29 72 0 86 3 130 30 70 44 107 108 112
196 5 75 -12 97 -21 29 -7 -56 -51 -126 -98 -157 -113 -75 -299 -15 -299 96 0
51 12 61 63 49 145 -32 297 89 296 237 -1 73 -14 82 -27 18z"/>
</g>
</svg>
