<?xml version="1.0" standalone="no"?>
<!DOCTYPE svg PUBLIC "-//W3C//DTD SVG 20010904//EN"
 "http://www.w3.org/TR/2001/REC-SVG-20010904/DTD/svg10.dtd">
<svg version="1.0" xmlns="http://www.w3.org/2000/svg"
 width="292.000000pt" height="525.000000pt" viewBox="0 0 292.000000 525.000000"
 preserveAspectRatio="xMidYMid meet">

<g transform="translate(0.000000,525.000000) scale(0.100000,-0.100000)"
fill="#000000" stroke="none">
<path d="M0 2625 l0 -2625 1460 0 1460 0 0 2625 0 2625 -1460 0 -1460 0 0
-2625z m2860 0 l0 -2555 -1400 0 -1400 0 0 2555 0 2555 1400 0 1400 0 0 -2555z"/>
<path d="M140 4845 l0 -255 225 0 225 0 0 -540 0 -540 -80 0 -80 0 -2 438 -3
437 -142 3 -143 3 0 -1761 0 -1760 145 0 145 0 0 435 0 435 80 0 80 0 0 -535
0 -535 -225 0 -225 0 0 -260 0 -260 255 0 255 0 0 230 0 230 313 -2 312 -3 3
-82 3 -83 -231 0 -230 0 0 -145 0 -145 640 0 640 0 0 145 0 145 -230 0 -230 0
0 85 0 85 313 -2 312 -3 3 -228 2 -227 253 2 252 3 0 255 0 255 -222 3 -223 2
0 535 0 535 80 0 80 0 0 -435 0 -435 140 0 140 0 -2 1758 -3 1757 -137 3 -138
3 0 -441 0 -440 -80 0 -80 0 -2 530 c-2 292 -1 535 0 540 2 6 88 10 228 10
l224 0 0 255 0 255 -255 0 -255 0 0 -225 0 -225 -315 0 -315 0 0 80 0 80 230
0 230 0 0 145 0 145 -640 0 -640 0 0 -145 0 -145 230 0 230 0 0 -80 0 -80
-315 0 -315 0 0 225 0 225 -255 0 -255 0 0 -255z m450 0 l0 -195 -195 0 -195
0 0 195 0 195 195 0 195 0 0 -195z m1450 115 l0 -80 -230 0 -230 0 0 -260 0
-260 115 0 115 0 0 -115 0 -115 115 0 115 0 0 -340 0 -340 255 0 255 0 0 435
0 435 75 0 75 0 0 -1695 0 -1695 -75 0 -75 0 0 440 0 440 -255 0 -255 0 0
-345 0 -345 -115 0 -115 0 0 -110 0 -110 -115 0 -115 0 0 -260 0 -260 230 0
231 0 -3 -82 -3 -83 -577 -3 -578 -2 0 85 0 85 230 0 230 0 0 260 0 260 -115
0 -115 0 0 110 0 110 -115 0 -115 0 0 345 0 345 -257 -2 -258 -3 -3 -437 -2
-438 -80 0 -80 0 0 1695 0 1695 80 0 80 0 0 -435 0 -435 260 0 260 0 0 340 0
339 113 3 112 3 3 113 3 112 114 0 115 0 0 260 0 260 -230 0 -230 0 0 80 0 80
580 0 580 0 0 -80z m680 -115 l0 -195 -200 0 -200 0 0 195 0 195 200 0 200 0
0 -195z m-1680 -450 l0 -195 -195 0 -195 0 0 188 c0 104 3 192 7 195 3 4 91 7
195 7 l188 0 0 -195z m238 108 l3 -83 -86 0 -85 0 0 85 0 86 83 -3 82 -3 3
-82z m532 2 l0 -85 -85 0 -85 0 0 85 0 85 85 0 85 0 0 -85z m450 -110 l0 -195
-195 0 -195 0 0 188 c0 104 3 192 7 195 3 4 91 7 195 7 l188 0 0 -195z m-1440
-575 l0 -311 -82 3 -83 3 -3 308 -2 307 85 0 85 0 0 -310z m1440 0 l0 -310
-80 0 -80 0 0 310 0 310 80 0 80 0 0 -310z m-1440 -2390 l0 -310 -85 0 -85 0
0 310 0 310 85 0 85 0 0 -310z m1440 0 l0 -310 -80 0 -80 0 0 310 0 310 80 0
80 0 0 -310z m-1220 -565 l0 -195 -195 0 -195 0 0 195 0 195 195 0 195 0 0
-195z m1220 0 l0 -195 -195 0 -195 0 0 195 0 195 195 0 195 0 0 -195z m-980
-115 l0 -80 -85 0 -85 0 0 80 0 80 85 0 85 0 0 -80z m530 0 l0 -80 -85 0 -85
0 0 80 0 80 85 0 85 0 0 -80z m-1220 -340 l0 -200 -195 0 -195 0 0 200 0 200
195 0 195 0 0 -200z m2130 0 l0 -200 -200 0 -200 0 0 200 0 200 200 0 200 0 0
-200z"/>
<path d="M1300 4050 l0 -140 -110 0 -110 0 0 -335 0 -335 -340 0 -340 0 0
-610 0 -610 340 0 340 0 0 -335 0 -335 115 0 115 0 0 -140 0 -140 170 0 170 0
0 140 0 140 110 0 110 0 0 335 0 335 340 0 340 0 0 610 0 610 -345 0 -345 0 0
335 0 335 -110 0 -109 0 -3 138 -3 137 -167 3 -168 2 0 -140z m280 -60 l0
-140 115 0 115 0 0 -335 0 -335 340 0 340 0 0 -555 0 -555 -340 0 -340 0 0
-330 0 -330 -110 0 -110 0 0 -140 0 -140 -110 0 -110 0 0 140 0 140 -115 0
-115 0 0 330 0 330 -342 2 -343 3 -3 553 -2 552 340 0 340 0 0 335 0 335 115
0 115 0 0 140 0 140 110 0 110 0 0 -140z"/>
</g>
</svg>
